<?xml version="1.0" standalone="no"?>
<!DOCTYPE svg PUBLIC "-//W3C//DTD SVG 1.1//EN" "http://www.w3.org/Graphics/SVG/1.1/DTD/svg11.dtd" >
<svg>
<metadata>
Created by FontForge 20090914 at Wed Jan 10 12:54:23 2018
 By www-data
&#194;&#169; 1992 Carter &#38; Cone Type Inc. Designed by Matthew Carter. &#194;&#169; 1992 Type Solutions, Inc. Portions &#194;&#169; 1992 Microsoft Corp. All rights reserved.
</metadata>
<defs>
<font id="Elephant-Italic" horiz-adv-x="500" >
  <font-face 
    font-family="Elephant"
    font-weight="400"
    font-style="italic"
    font-stretch="normal"
    units-per-em="1000"
    panose-1="2 2 9 7 9 9 5 9 9 4"
    ascent="800"
    descent="-200"
    x-height="484"
    cap-height="729"
    bbox="-296 -306 1485 982.999"
    underline-thickness="90"
    underline-position="-88"
    slope="-22"
    unicode-range="U+0020-U+F002"
  />
<missing-glyph horiz-adv-x="800" 
d="M50 0v800h700v-800h-700zM700 50v700h-600v-700h600z" />
    <glyph glyph-name=".notdef" horiz-adv-x="800" 
d="M50 0v800h700v-800h-700zM700 50v700h-600v-700h600z" />
    <glyph glyph-name="space" unicode=" " horiz-adv-x="240" 
 />
    <glyph glyph-name="exclam" unicode="!" horiz-adv-x="468" 
d="M413 469c-48.667 -48 -84.667 -85.666 -108 -112.999s-49.333 -72 -78 -134l-14 5c12 34 20.833 67.667 26.5 101s8.5 62.333 8.5 87l-3 138c0 50.667 17 94.5 51 131.5s69 55.5 105 55.5c22.667 0 41.5 -12.167 56.5 -36.5s22.5 -53.5 22.5 -87.5
c0 -28 -6.33301 -54.333 -19 -79s-28.667 -47.334 -48 -68.001zM70 89.001c0 26.667 9.66699 49.332 29 67.999s42.666 28 69.999 28s50.833 -9.16699 70.5 -27.5s29.5 -41.166 29.5 -68.499s-9.66699 -50.333 -29 -69s-43 -28 -71 -28
c-27.333 0 -50.666 9.33301 -69.999 28s-29 41.667 -29 69z" />
    <glyph glyph-name="quotedbl" unicode="&#x22;" horiz-adv-x="386" 
d="M166 402l-15.0039 6c8 29.333 15.333 62.333 22 99s10 66 10 88c0 29.333 0.833008 49.5 2.5 60.5s5.33398 23.667 11.001 38s17.834 25.833 36.501 34.5s35.334 13 50.001 13c14 0 26 -9.83301 36 -29.5s15 -36.834 15 -51.501
c0 -19.333 -26.167 -63.666 -78.5 -132.999s-82.166 -111 -89.499 -125zM346.996 402l-15.0039 6c8 29.333 15.333 62.333 22 99s10 66 10 88c0 29.333 0.833008 49.5 2.5 60.5s5.33398 23.667 11.001 38s17.834 25.833 36.501 34.5s35.334 13 50.001 13
c14 0 26 -9.83301 36 -29.5s15 -36.834 15 -51.501c0 -19.333 -26.167 -63.666 -78.5 -132.999s-82.166 -111 -89.499 -125z" />
    <glyph glyph-name="numbersign" unicode="#" horiz-adv-x="739" 
d="M469 724l24 -6l-77 -191h151l79 197l24 -6l-77 -191h155l-48 -119h-155l-43 -107h155l-48 -118h-154l-80 -197l-24 6l78 191h-151l-80 -197l-24 6l78 191h-156l47 118h156l42 107h-155l48 119h156zM365 408l-44 -107h157l44 107h-157z" />
    <glyph glyph-name="dollar" unicode="$" horiz-adv-x="675" 
d="M258 15c4.66699 -0.666992 13.833 -1.83301 27.5 -3.5s27.5 -2.5 41.5 -2.5c44.667 0 79 10.667 103 32s36 48.666 36 81.999c0 24.667 -8 46.334 -24 65.001s-45.667 39.667 -89 63zM514.999 738.001l27.999 67.0059l21 -6l-26 -63
c52.667 -7.33301 96.167 -23.833 130.5 -49.5s51.5 -59.167 51.5 -100.5c0 -26.667 -9.5 -49.5 -28.5 -68.5s-42.167 -28.5 -69.5 -28.5s-51 8.16699 -71 24.5s-30 39.166 -30 68.499c0 21.333 4.83301 38.833 14.5 52.5s19.667 22.667 30 27l25 10.5
c6.33301 2.66699 9.5 6.66699 9.5 12c0 3.33301 -4.33301 8.66602 -13 15.999s-27.667 13 -57 17l-94 -234l61.5 -34.5c21 -11.667 43.333 -25.834 67 -42.501s45.334 -39.334 65.001 -68.001s29.5 -61 29.5 -97c0 -81.333 -34 -143.833 -102 -187.5s-147 -65.5 -237 -65.5
c-16.667 0 -31 0.833008 -43 2.5s-21 3.5 -27 5.5l-41 -101l-20 7l39 97c-55.333 12.667 -101.666 31.834 -138.999 57.501s-56 60.167 -56 103.5c0 28 10.167 52.5 30.5 73.5s44.833 31.5 73.5 31.5c30.667 0 56 -9 76 -27s30 -42.333 30 -73c0 -26 -8 -46.333 -24 -61
s-33.667 -23.334 -53 -26.001c-10.667 0 -16 -4 -16 -12c0 -6.66699 9 -14.834 27 -24.501s37.667 -17.5 59 -23.5l98 243l-60.5 34.5c-15.667 9 -27.5 16.167 -35.5 21.5c-32.667 25.333 -57.334 51.666 -74.001 78.999s-25 59.333 -25 96c0 74.667 34.5 134.667 103.5 180
s140.5 68 214.5 68zM417.998 493.007l90.001 225.999l-52 1c-34.667 0 -65.167 -9.66699 -91.5 -29s-39.5 -45.666 -39.5 -78.999c0 -24 8.66699 -45.5 26 -64.5s39.666 -37.167 66.999 -54.5z" />
    <glyph glyph-name="percent" unicode="%" horiz-adv-x="963" 
d="M814 736l-539.003 -771.996l-20 13l501 718c-24.667 -14 -45.5 -23.667 -62.5 -29s-40.167 -8 -69.5 -8c-19.333 0 -40.166 2.5 -62.499 7.5s-43.166 11.833 -62.499 20.5c16 -19.333 27 -39 33 -59s9 -40 9 -60c0 -72 -26.667 -133.333 -80 -184
s-120.666 -76 -201.999 -76c-24 0 -46.333 4.66699 -67 14s-39 22.166 -55 38.499s-28.167 35.166 -36.5 56.499s-12.5 44.333 -12.5 69c0 65.333 26.5 124.166 79.5 176.499s121.167 78.5 204.5 78.5c17.333 0 32 -1.5 44 -4.5s32 -10 60 -21s56.167 -19.833 84.5 -26.5
s51.5 -10 69.5 -10c35.333 0 63 3.5 83 10.5s40.333 18.5 61 34.5l17 25c3.33301 4 7 6 11 6c4.66699 0 8.5 -1.83301 11.5 -5.5s3.16699 -7.83398 0.5 -12.501zM982.997 237.004c0 -62.667 -26.501 -119.834 -79.501 -171.501s-120.5 -77.5 -202.5 -77.5
c-24 0 -46.833 4.83301 -68.5 14.5s-40.5 22.667 -56.5 39s-27.667 35 -35 56s-11 44.833 -11 71.5c0 64.667 26.833 122.834 80.5 174.501s120.834 77.5 201.501 77.5c25.333 0 48 -4.66699 68 -14s38.667 -23 56 -41s29.5 -39 36.5 -63s10.5 -46 10.5 -66z
M414.996 684.004c0 13.333 -2.16699 22.834 -6.5 28.501s-12.166 8.5 -23.499 8.5c-13.333 0 -25.5 -8 -36.5 -24s-24.833 -41.333 -41.5 -76s-36.334 -81.5 -59.001 -140.5s-34 -98.5 -34 -118.5c0 -12.667 2.16699 -22 6.5 -28s12.5 -9 24.5 -9c15.333 0 29.5 11 42.5 33
s27.333 49.333 43 82s33.667 76.167 54 130.5s30.5 92.166 30.5 113.499zM855.996 365.005c0 12.667 -2.50195 22.168 -7.50195 28.501s-12.5 9.5 -22.5 9.5c-15.333 0 -29.166 -10.667 -41.499 -32s-25.666 -46.833 -39.999 -76.5s-32.833 -74 -55.5 -133
s-34 -98.5 -34 -118.5c0 -12.667 2.16699 -22 6.5 -28s12.5 -9 24.5 -9c15.333 0 29.5 11 42.5 33s27.333 49.167 43 81.5s33.667 76.166 54 131.499s30.5 93 30.5 113z" />
    <glyph glyph-name="ampersand" unicode="&#x26;" horiz-adv-x="842" 
d="M249 384c-10.667 21.333 -18.3379 39.665 -23.0049 54.998s-7 36 -7 62c0 60.667 25.667 115.667 77 165s110.333 74 177 74c46.667 0 83 -9 109 -27s39 -42.333 39 -73c0 -42 -15.667 -73 -47 -93s-65 -38 -101 -54l48.5 -57c17.667 -21.333 34.834 -44.333 51.501 -69
c13.333 33.333 35.666 62.166 66.999 86.499s68.333 36.5 111 36.5c36 0 66.167 -10.167 90.5 -30.5s36.5 -46.833 36.5 -79.5c0 -31.333 -10.333 -57.666 -31 -78.999s-46.667 -32 -78 -32c-30.667 0 -56.667 7.83301 -78 23.5s-32 38.167 -32 67.5
c0 21.333 6.66699 41 20 59l17 18.5c4.66699 5 7 10.167 7 15.5c0 4.66699 -2.33301 7 -7 7c-15.333 0 -35.666 -11.5 -60.999 -34.5s-41.333 -48.833 -48 -77.5c32.667 -56 54.334 -96.333 65.001 -121s16 -58.334 16 -101.001c0 -81.333 -28.667 -150.666 -86 -207.999
s-126.333 -86 -207 -86c-14.667 0 -30.5 1.83301 -47.5 5.5s-33.167 9.83398 -48.5 18.501l5 12c12 -6.66699 26.667 -11.5 44 -14.5s33 -4.5 47 -4.5c35.333 0 64.5 10.333 87.5 31s34.5 50 34.5 88c0 28.667 -5.16699 55.667 -15.5 81s-26.166 53 -47.499 83
c-18.667 -37.333 -48.167 -70.666 -88.5 -99.999s-86.5 -44 -138.5 -44c-45.333 0 -85.166 15.5 -119.499 46.5s-51.5 70.167 -51.5 117.5c0 54 14.333 96.667 43 128s85.334 66 170.001 104zM464.996 502.999c25.333 13.333 45.501 29.667 60.501 49s22.5 44.333 22.5 75
c0 28.667 -5.83301 52 -17.5 70s-33.167 27 -64.5 27c-20 0 -39.667 -6.5 -59 -19.5s-29 -32.5 -29 -58.5c0 -22.667 9.16699 -46.167 27.5 -70.5s38.166 -48.5 59.499 -72.5zM425.997 143l-112.001 144.501c-28 36.333 -47.333 64.166 -58 83.499
c-15.333 -8 -27.666 -18.167 -36.999 -30.5s-14 -26.833 -14 -43.5c0 -42.667 17.833 -84.167 53.5 -124.5s70.167 -60.5 103.5 -60.5c16.667 0 29.5 2.33301 38.5 7s17.5 12.667 25.5 24z" />
    <glyph glyph-name="quotesingle" unicode="'" horiz-adv-x="205" 
d="M166 403l-15.001 6c8 28.667 15 61.167 21 97.5s9 65.833 9 88.5c0 29.333 0.833008 49.5 2.5 60.5s5.33398 23.667 11.001 38s18 25.833 37 34.5s36.167 13 51.5 13c14 0 26.333 -10 37 -30s16 -37 16 -51c0 -22.667 -23.5 -62.167 -70.5 -118.5
s-80.167 -102.5 -99.5 -138.5z" />
    <glyph glyph-name="parenleft" unicode="(" horiz-adv-x="448" 
d="M281 -187l0.000976562 -15.998c-76.667 20 -135.334 57.667 -176.001 113s-61 123.333 -61 204c0 77.333 19.333 159.833 58 247.5s98.167 171 178.5 250s187.5 118.5 321.5 118.5l33 -1v-16c-46.667 0 -89.834 -13.5 -129.501 -40.5s-80.167 -73.333 -121.5 -139
s-83.666 -158.334 -126.999 -278.001s-65 -214.834 -65 -285.501c0 -50 6.5 -86 19.5 -108s36.167 -38.333 69.5 -49z" />
    <glyph glyph-name="parenright" unicode=")" horiz-adv-x="448" 
d="M437 415c0 -77.333 -19.334 -159.835 -58.001 -247.502s-98.167 -171 -178.5 -250s-187.5 -118.5 -321.5 -118.5l-33 1v16c46.667 0 89.834 13.5 129.501 40.5s80.167 73.333 121.5 139s83.666 158.334 126.999 278.001s65 214.834 65 285.501c0 50 -6.5 86 -19.5 108
s-36.167 38.333 -69.5 49v16c76.667 -20 135.334 -57.667 176.001 -113s61 -123.333 61 -204z" />
    <glyph glyph-name="asterisk" unicode="*" horiz-adv-x="480" 
d="M333 560l2.99512 32.0039c0 14 -2.66699 32 -8 54s-8 37 -8 45c0 14 8 26.667 24 38s31.667 17 47 17c8.66699 0 18.167 -7.5 28.5 -22.5s15.5 -29.5 15.5 -43.5c0 -10 -12.833 -27.333 -38.5 -52s-43.5 -48.334 -53.5 -71.001l8 -12c24 2 49.167 11.5 75.5 28.5
s44.5 25.5 54.5 25.5c14 0 27.833 -7.5 41.5 -22.5s20.5 -27.833 20.5 -38.5c0 -8 -6.83301 -19.333 -20.5 -34s-28.167 -22 -43.5 -22c-7.33301 0 -24 7.83301 -50 23.5s-52.333 24.834 -79 27.501l-6 -11c8.66699 -20 26.667 -41.333 54 -64s41 -39.667 41 -51
c0 -13.333 -5 -27.833 -15 -43.5s-18 -23.5 -24 -23.5c-15.333 0 -31.666 3.66699 -48.999 11s-26 21.333 -26 42c0 7.33301 2.33301 21.666 7 42.999s7 37.333 7 48c0 4 -0.166992 8 -0.5 12s-1.83301 11.667 -4.5 23l-14 5c-16 -14 -31.833 -39.333 -47.5 -76
s-34.5 -55 -56.5 -55c-10 0 -21.333 1.83301 -34 5.5s-20.667 8 -24 13s-5 14.5 -5 28.5c0 20.667 4.5 36.667 13.5 48s29.833 18.166 62.5 20.499s61 10.5 85 24.5v11c-20 11.333 -45.167 18.5 -75.5 21.5s-49.166 5.5 -56.499 7.5s-13.666 9.5 -18.999 22.5
s-8 26.5 -8 40.5c0 11.333 1.33301 19.166 4 23.499s9.83398 8.83301 21.501 13.5s23.5 7 35.5 7c21.333 0 39.333 -16.833 54 -50.5s31.334 -58.834 50.001 -75.501z" />
    <glyph glyph-name="plus" unicode="+" horiz-adv-x="833" 
d="M505 624v-257h252v-78h-252v-258h-79v258h-252v78h252v257h79z" />
    <glyph glyph-name="comma" unicode="," horiz-adv-x="262" 
d="M-39 -120c38.667 0 76.167 12.8311 112.5 38.498s54.5 50.5 54.5 74.5c0 9.33301 -2.33301 14 -7 14l-19 -5c-5.33301 -1.33301 -11.333 -2 -18 -2c-21.333 0 -40 8 -56 24s-24 34 -24 54c0 28.667 8.83301 53.334 26.5 74.001s42.5 31 74.5 31
c30 0 55.167 -10.5 75.5 -31.5s30.5 -46.167 30.5 -75.5c0 -55.333 -24.5 -104.166 -73.5 -146.499s-107.833 -63.5 -176.5 -63.5v14z" />
    <glyph glyph-name="hyphen" unicode="-" horiz-adv-x="310" 
d="M54 302h263l-58 -145h-263z" />
    <glyph glyph-name="hyphen" unicode="&#xad;" horiz-adv-x="310" 
d="M54 302h263l-58 -145h-263z" />
    <glyph glyph-name="period" unicode="." horiz-adv-x="262" 
d="M6 89c0 26.667 9.66699 49.332 29 67.999s42.666 28 69.999 28s50.833 -9.16699 70.5 -27.5s29.5 -41.166 29.5 -68.499s-9.66699 -50.333 -29 -69s-43 -28 -71 -28c-27.333 0 -50.666 9.33301 -69.999 28s-29 41.667 -29 69z" />
    <glyph glyph-name="slash" unicode="/" horiz-adv-x="300" 
d="M-62 -91l454 857l43 -20l-455 -856z" />
    <glyph glyph-name="zero" unicode="0" horiz-adv-x="790" 
d="M820 435c0 -115.333 -47 -218.668 -141 -310.001s-204.333 -137 -331 -137c-85.333 0 -152 28.333 -200 85s-72 130 -72 220c0 120.667 48.5 225.334 145.5 314.001s205.833 133 326.5 133c83.333 0 149.5 -27.5 198.5 -82.5s73.5 -129.167 73.5 -222.5zM638 668.998
c0 17.333 -4.49902 30.332 -13.499 38.999s-22.5 13 -40.5 13c-20.667 0 -39.834 -7.83301 -57.501 -23.5s-42.5 -52.5 -74.5 -110.5s-72.333 -151.167 -121 -279.5s-73 -211.166 -73 -248.499c0 -17.333 4.5 -30.333 13.5 -39s22.5 -13 40.5 -13
c21.333 0 40.5 7.83301 57.5 23.5s42.167 53.167 75.5 112.5s73.833 152.833 121.5 280.5s71.5 209.5 71.5 245.5z" />
    <glyph glyph-name="one" unicode="1" horiz-adv-x="528" 
d="M343 125c-16.667 -42 -25 -68.999 -25 -80.999c0 -9.33301 7.5 -16.333 22.5 -21s43.833 -7 86.5 -7v-16h-495v16c5.33301 0 13 0.166992 23 0.5s25.667 1.66602 47 3.99902s37.833 10 49.5 23s27.167 41.833 46.5 86.5l69.5 165.5l64.5 160.5l51.5 132
c18.333 46.667 27.5 76 27.5 88c0 14 -7.83301 23.667 -23.5 29s-44.5 8 -86.5 8v16h385z" />
    <glyph glyph-name="two" unicode="2" horiz-adv-x="698" 
d="M357 711c-38 0 -69.668 -9.83887 -95.001 -29.5059s-38 -39.5 -38 -59.5c0 -10.667 4.33301 -19 13 -25c8 -6.66699 20 -11 36 -13c25.333 0 45.333 -7.66699 60 -23s22 -34.666 22 -57.999c0 -29.333 -11 -54.333 -33 -75s-48 -31 -78 -31
c-37.333 0 -67.5 10.833 -90.5 32.5s-34.5 50.5 -34.5 86.5c0 40.667 14.167 77.834 42.5 111.501s60.666 58.334 96.999 74.001s69.666 26 99.999 31s59.5 7.5 87.5 7.5c89.333 0 160.666 -17 213.999 -51s80 -79 80 -135s-17.333 -101.667 -52 -137s-74.667 -63 -120 -83
s-108.166 -42.167 -188.499 -66.5s-125.833 -44.166 -136.5 -59.499h45c16.667 0 37.334 0.333008 62.001 1h178c32.667 0 57.334 3.83301 74.001 11.5s30.334 18.834 41.001 33.501s19.167 27.167 25.5 37.5l24.5 41.5h13l-134 -333h-624v10l299 225
c80 60 140.667 116.333 182 169s62 111.334 62 176.001c0 41.333 -11.833 73.5 -35.5 96.5s-56.5 34.5 -98.5 34.5z" />
    <glyph glyph-name="three" unicode="3" horiz-adv-x="740" 
d="M287 -12c-74.667 0 -137.999 15.835 -189.999 47.502s-78 73.167 -78 124.5c0 38 13.333 70 40 96s59 39 97 39c40 0 72.167 -10.333 96.5 -31s36.5 -48 36.5 -82c0 -24.667 -5 -43.834 -15 -57.501s-21.5 -25.834 -34.5 -36.501l-28.5 -23
c-4.66699 -5.33301 -7 -12 -7 -20c0 -10 6.33301 -19.167 19 -27.5s28 -12.5 46 -12.5c54.667 0 99.167 29.667 133.5 89s51.5 120.333 51.5 183c0 35.333 -7.16699 63.5 -21.5 84.5s-38.166 31.5 -71.499 31.5c-16.667 0 -32.334 -2 -47.001 -6l-41 -15
c-8 0 -12 5.33301 -12 16c0 6.66699 8.66699 11.5 26 14.5s34 4.5 50 4.5c56 0 102.667 19.667 140 59s56 88.333 56 147c0 28.667 -8.33301 53.334 -25 74.001s-43.334 31 -80.001 31c-30.667 0 -56.167 -4.83301 -76.5 -14.5s-30.5 -21.167 -30.5 -34.5
c0 -14 15.833 -25.5 47.5 -34.5s47.5 -33.167 47.5 -72.5c0 -28.667 -11.333 -51.334 -34 -68.001s-51 -25 -85 -25c-32.667 0 -59 9 -79 27s-30 42.333 -30 73c0 32 13.333 60.5 40 85.5s56.334 43.333 89.001 55s62.667 19.667 90 24s56.666 6.5 87.999 6.5
c78 0 143.5 -13.5 196.5 -40.5s79.5 -64.833 79.5 -113.5c0 -56.667 -24.333 -99.5 -73 -128.5s-104.334 -43.5 -167.001 -43.5v-8c56.667 0 103.167 -15.167 139.5 -45.5s54.5 -66.833 54.5 -109.5c0 -90 -43.167 -156.333 -129.5 -199s-189.166 -64 -308.499 -64z" />
    <glyph glyph-name="four" unicode="4" horiz-adv-x="725" 
d="M340 199l124 303l-103.5 -81l-143.5 -109.5c-48.667 -36.333 -101.667 -73.5 -159 -111.5l124 -1h158zM561 156c-24.667 -62 -37.001 -99.333 -37.001 -112c0 -9.33301 7.5 -16.333 22.5 -21s43.833 -7 86.5 -7v-16h-485v16c5.33301 0 13 0.166992 23 0.5
s26.167 1.83301 48.5 4.5s39.333 11.667 51 27s29.5 51.333 53.5 108h-329v25c68.667 45.333 147.834 101.5 237.501 168.5l243 187l239.5 196.5h79l-215 -534h118l-17 -43h-119z" />
    <glyph glyph-name="five" unicode="5" horiz-adv-x="662" 
d="M6 161c0 32 12.498 58.833 37.498 80.5s53.167 32.5 84.5 32.5c36.667 0 66.167 -9.83301 88.5 -29.5s33.5 -46.5 33.5 -80.5c0 -33.333 -12.167 -61.166 -36.5 -83.499s-36.5 -36.5 -36.5 -42.5c0 -10.667 5.16699 -18.834 15.5 -24.501s21.833 -8.5 34.5 -8.5
c51.333 0 95.833 36.833 133.5 110.5s56.5 147.5 56.5 221.5c0 36 -7.5 65.5 -22.5 88.5s-38.833 34.5 -71.5 34.5c-43.333 0 -79.666 -10.833 -108.999 -32.5s-48.833 -38.5 -58.5 -50.5s-19.5 -25.667 -29.5 -41l-13 6l207 393h9c22 -7.33301 48.333 -14.666 79 -21.999
s66 -11 106 -11c51.333 0 94 3.66699 128 11l72 25c5.33301 0 8 -2.33301 8 -7c0 -16 -10.667 -40 -32 -72s-47 -57.333 -77 -76s-64.167 -32.667 -102.5 -42s-76.166 -14 -113.499 -14c-34.667 0 -63.667 1.83301 -87 5.5s-45 10.5 -65 20.5l-75 -141
c38 28 74 47.833 108 59.5s78.667 17.5 134 17.5c76.667 0 138.5 -19.833 185.5 -59.5s70.5 -89.834 70.5 -150.501c0 -92 -40.667 -163.5 -122 -214.5s-176 -76.5 -284 -76.5c-79.333 0 -141.833 15.667 -187.5 47s-68.5 73.333 -68.5 126z" />
    <glyph glyph-name="six" unicode="6" horiz-adv-x="718" 
d="M491 386c0 18 -3.99805 32.333 -11.998 43s-20 16 -36 16c-18.667 0 -34.834 -7.33301 -48.501 -22s-26.334 -32.667 -38.001 -54s-28.667 -68.833 -51 -142.5s-33.5 -125.5 -33.5 -155.5c0 -20 4.16699 -35 12.5 -45s20.5 -15 36.5 -15c33.333 0 62 28 86 84
s44 110.5 60 163.5s24 95.5 24 127.5zM681.002 724c29.333 -9.33301 55.833 -25.1641 79.5 -47.4971s35.5 -47.5 35.5 -75.5c0 -32.667 -10.5 -58.834 -31.5 -78.501s-47.5 -29.5 -79.5 -29.5c-31.333 0 -59.166 9.66699 -83.499 29s-36.5 44 -36.5 74
c0 14.667 1 25.5 3 32.5s5.5 14.833 10.5 23.5s12.833 17.167 23.5 25.5s16 15.5 16 21.5c0 4 -1.5 8.83301 -4.5 14.5s-12.833 8.5 -29.5 8.5c-20 0 -39.333 -7.33301 -58 -22s-37.334 -36.834 -56.001 -66.501s-36.167 -63.167 -52.5 -100.5s-31.5 -75 -45.5 -113
c16 19.333 36.167 33.5 60.5 42.5s50.833 13.5 79.5 13.5c56.667 0 105.167 -15.833 145.5 -47.5s60.5 -81.834 60.5 -150.501c0 -80.667 -33.167 -149.167 -99.5 -205.5s-144.833 -84.5 -235.5 -84.5s-164.167 26.833 -220.5 80.5s-84.5 124.5 -84.5 212.5
c0 62 14 122 42 180s67 108.167 117 150.5s102.167 74.333 156.5 96s113.833 32.5 178.5 32.5c25.333 0 45.5 -1.33301 60.5 -4s31.167 -6.66699 48.5 -12z" />
    <glyph glyph-name="seven" unicode="7" horiz-adv-x="615" 
d="M815 712l-113.002 -99.5c-41.333 -37 -86.666 -79.833 -135.999 -128.5s-94.166 -107.5 -134.499 -176.5s-65 -127.833 -74 -176.5s-15.833 -87 -20.5 -115c-12 -52 -32.833 -90.333 -62.5 -115s-64.834 -37 -105.501 -37c-37.333 0 -67.166 10.833 -89.499 32.5
s-33.5 49.5 -33.5 83.5c0 46 15.833 90.5 47.5 133.5s74.5 87.333 128.5 133s101.167 83.334 141.5 113.001l121 88.5c40.333 29.333 72.166 53.333 95.499 72l-1 5c-10 0 -32.167 -0.5 -66.5 -1.5s-55.5 -1.5 -63.5 -1.5h-214c-33.333 0 -56.666 -3.5 -69.999 -10.5
s-27 -22.167 -41 -45.5l-18 -30l-13 3l144 358h14c-1.33301 -4 -2.5 -8.83301 -3.5 -14.5s-1.5 -9.83398 -1.5 -12.501c0 -20 3.66699 -32.167 11 -36.5s24.333 -6.5 51 -6.5c57.333 0 128.333 0.166992 213 0.5s182.667 0.833008 294 1.5v-17z" />
    <glyph glyph-name="eight" unicode="8" horiz-adv-x="693" 
d="M159 481c0 78 32.666 140.669 97.999 188.002s143.333 71 234 71c74.667 0 134.167 -15.5 178.5 -46.5s66.5 -70.833 66.5 -119.5c0 -36 -13 -68 -39 -96s-61.667 -47 -107 -57c30 -22 53.667 -47.667 71 -77s26 -59 26 -89c0 -82 -33.667 -147 -101 -195
s-150.666 -72 -249.999 -72c-80 0 -148 16.833 -204 50.5s-84 80.5 -84 140.5c0 42.667 17.5 79.5 52.5 110.5s75.167 50.167 120.5 57.5c-17.333 17.333 -32 38.166 -44 62.499s-18 48.166 -18 71.499zM577.999 427.002c32.667 17.333 58.168 39.665 76.501 66.998
s27.5 57.666 27.5 90.999c0 38.667 -14.833 70.834 -44.5 96.501s-67.834 38.5 -114.501 38.5c-42 0 -76.333 -12 -103 -36s-40 -52.333 -40 -85c0 -24.667 7.66699 -46.167 23 -64.5s30.5 -31.666 45.5 -39.999s37.833 -20.166 68.5 -35.499s51 -26 61 -32zM231 340.001
c-30.667 -12 -56.833 -32.668 -78.5 -62.001s-32.5 -64.333 -32.5 -105c0 -45.333 18.5 -84.333 55.5 -117s85.5 -49 145.5 -49c44 0 82.333 11.333 115 34s49 54.334 49 95.001c0 25.333 -8.16699 47.333 -24.5 66s-42.333 37 -78 55l-89 45.5
c-23.667 12.333 -44.5 24.833 -62.5 37.5z" />
    <glyph glyph-name="nine" unicode="9" horiz-adv-x="718" 
d="M746 453c0 -62.667 -13.5 -122.503 -40.5 -179.503s-64.667 -107.167 -113 -150.5s-99.833 -76.666 -154.5 -99.999s-118.667 -35 -192 -35c-66 0 -118.833 13.667 -158.5 41s-59.5 59.666 -59.5 96.999c0 34 10.667 60.667 32 80s48.333 29 81 29
c30.667 0 58 -9.66699 82 -29s36 -43.666 36 -72.999c0 -13.333 -1.33301 -24 -4 -32s-6.33398 -16.167 -11.001 -24.5s-12.5 -17.166 -23.5 -26.499s-16.5 -17.333 -16.5 -24c0 -5.33301 2.16699 -10 6.5 -14s11.833 -6 22.5 -6c19.333 0 38.5 7 57.5 21
s38.5 36.667 58.5 68s38.333 65.333 55 102s32.334 74.334 47.001 113.001c-18 -22 -38 -37.5 -60 -46.5s-49 -13.5 -81 -13.5c-56 0 -103.833 17.833 -143.5 53.5s-59.5 87.5 -59.5 155.5c0 76 33.5 141.833 100.5 197.5s148.167 83.5 243.5 83.5
c92.667 0 165 -27.667 217 -83s78 -123.333 78 -204zM555 657.997c0 20 -3.66797 34.999 -11.001 44.999s-19.666 15 -36.999 15c-21.333 0 -38.833 -8 -52.5 -24s-29.167 -43.667 -46.5 -83s-34.5 -87.5 -51.5 -144.5s-25.5 -98.5 -25.5 -124.5c0 -20 4 -35 12 -45
s19.667 -15 35 -15c18.667 0 35.5 7.66699 50.5 23s28.5 34.833 40.5 58.5s29.333 70.834 52 141.501s34 121.667 34 153z" />
    <glyph glyph-name="colon" unicode=":" horiz-adv-x="312" 
d="M10 89c0 26.667 9.66699 49.332 29 67.999s42.666 28 69.999 28s50.833 -9.16699 70.5 -27.5s29.5 -41.166 29.5 -68.499s-9.66699 -50.333 -29 -69s-43 -28 -71 -28c-27.333 0 -50.666 9.33301 -69.999 28s-29 41.667 -29 69zM123 377.998
c0 26.667 9.66699 49.332 29 67.999s42.666 28 69.999 28s50.833 -9.16699 70.5 -27.5s29.5 -41.166 29.5 -68.499s-9.66699 -50.333 -29 -69s-43 -28 -71 -28c-27.333 0 -50.666 9.33301 -69.999 28s-29 41.667 -29 69z" />
    <glyph glyph-name="semicolon" unicode=";" horiz-adv-x="312" 
d="M-35 -120c38 0 75.333 12.998 112 38.998s55 50.667 55 74c0 9.33301 -2.66699 14 -8 14c-6.66699 -2 -12.667 -3.66699 -18 -5s-11.333 -2 -18 -2c-21.333 0 -40 8 -56 24s-24 34 -24 54c0 28.667 8.83301 53.334 26.5 74.001s42.5 31 74.5 31
c30 0 55.167 -10.5 75.5 -31.5s30.5 -46.167 30.5 -75.5c0 -55.333 -24.5 -104.166 -73.5 -146.499s-107.833 -63.5 -176.5 -63.5v14zM123 377.998c0 26.667 9.66699 49.332 29 67.999s42.666 28 69.999 28s50.833 -9.16699 70.5 -27.5s29.5 -41.166 29.5 -68.499
s-9.66699 -50.333 -29 -69s-43 -28 -71 -28c-27.333 0 -50.666 9.33301 -69.999 28s-29 41.667 -29 69z" />
    <glyph glyph-name="less" unicode="&#x3c;" horiz-adv-x="833" 
d="M295 332v-5l458 -185l-31 -74l-543 224v74l543 224l31 -74z" />
    <glyph glyph-name="equal" unicode="=" horiz-adv-x="833" 
d="M750 469v-78h-567v78h567zM750 267v-78h-567v78h567z" />
    <glyph glyph-name="greater" unicode="&#x3e;" horiz-adv-x="833" 
d="M754 292l-543 -226l-31 74l458 187v5l-458 186l31 74l543 -226v-74z" />
    <glyph glyph-name="question" unicode="?" horiz-adv-x="517" 
d="M91 89c0 26.667 9.66699 49.332 29 67.999s42.666 28 69.999 28s50.833 -9.16699 70.5 -27.5s29.5 -41.166 29.5 -68.499s-9.66699 -50.333 -29 -69s-43 -28 -71 -28c-27.333 0 -50.666 9.33301 -69.999 28s-29 41.667 -29 69zM444 279.998
c-20 -16.667 -40.833 -28.8301 -62.5 -36.4971s-44.834 -11.5 -69.501 -11.5c-45.333 0 -81.833 13.5 -109.5 40.5s-41.5 62.167 -41.5 105.5c0 27.333 7.5 52.166 22.5 74.499s36.833 43.166 65.5 62.499l161 91c12.667 8.66699 22.834 17.667 30.501 27
s11.5 20.333 11.5 33c0 18.667 -8.16699 33 -24.5 43s-36.833 15 -61.5 15c-30.667 0 -56.5 -5.16699 -77.5 -15.5s-31.5 -21.833 -31.5 -34.5c0 -5.33301 9.33301 -12 28 -20s28 -21.333 28 -40c0 -16 -5.5 -28.833 -16.5 -38.5s-24.833 -14.5 -41.5 -14.5
c-15.333 0 -27.666 5.66699 -36.999 17s-14 24.666 -14 39.999c0 30 15.333 57.833 46 83.5s69.334 38.5 116.001 38.5c55.333 0 100.666 -16.333 135.999 -49s53 -75.667 53 -129c0 -32.667 -7.33301 -61.5 -22 -86.5s-32.5 -44.833 -53.5 -59.5
s-39.5 -25.834 -55.5 -33.501s-43.333 -19.167 -82 -34.5s-63.5 -26.333 -74.5 -33s-16.5 -16.334 -16.5 -29.001c0 -13.333 6.66699 -23.166 20 -29.499s27.666 -9.5 42.999 -9.5c21.333 0 41.833 4.33301 61.5 13s38.5 21.334 56.5 38.001
c10.667 3.33301 16 0.666016 16 -8.00098c0 -3.33301 -1.33301 -6.66602 -4 -9.99902z" />
    <glyph glyph-name="at" unicode="@" horiz-adv-x="986" 
d="M634 313c10 28.667 14.998 49.999 14.998 63.999c0 9.33301 -2.16699 16.333 -6.5 21s-11.166 7 -20.499 7c-10.667 0 -23 -8.16699 -37 -24.5s-27.667 -37.5 -41 -63.5l-33 -65c-8.66699 -17.333 -14 -28.666 -16 -33.999l-43 -98c-9.33301 -22.667 -16.333 -41 -21 -55
s-7 -24.667 -7 -32c0 -5.33301 1.33301 -9.33301 4 -12s6.33398 -4 11.001 -4c16.667 0 36 10.5 58 31.5s39.667 46.167 53 75.5l44 94l22.5 51c7.66699 17.333 13.5 32 17.5 44zM950.998 327.999c0 73.333 -23.3359 137.168 -70.0029 191.501s-131 81.5 -253 81.5
c-118 0 -220.667 -45.333 -308 -136s-131 -196 -131 -316c0 -108 31.833 -191.333 95.5 -250s142.167 -88 235.5 -88c54.667 0 107.834 8.33301 159.501 25s114.834 52 189.501 106l8 -12c-53.333 -44 -111.166 -79 -173.499 -105s-126.833 -39 -193.5 -39
c-118.667 0 -219 31.667 -301 95s-123 153.666 -123 270.999c0 138.667 52.833 255.334 158.5 350.001s231.167 142 376.5 142c105.333 0 190.333 -28.333 255 -85s97 -130.667 97 -222c0 -52.667 -9.33301 -99.834 -28 -141.501s-45.334 -80.167 -80.001 -115.5
s-70 -59.333 -106 -72s-68 -19 -96 -19c-32 0 -58.833 8.33301 -80.5 25s-32.5 40.334 -32.5 71.001l-4 1c-22 -32 -43.667 -55.333 -65 -70s-49.333 -22 -84 -22c-36 0 -65.5 11.167 -88.5 33.5s-34.5 52.5 -34.5 90.5c0 71.333 32.5 142.666 97.5 213.999
s137.5 107 217.5 107c20 0 37.333 -4.66699 52 -14s22 -24 22 -44c-0.666992 -4 -1 -7 -1 -9h4l25 58h177l-45 -97l-64.5 -140.5l-45.5 -101c-5.33301 -12.333 -8 -24.166 -8 -35.499c0 -10 2.33301 -17.667 7 -23s11.667 -8 21 -8c18.667 0 38.334 5.5 59.001 16.5
s45 31.667 73 62s49.333 63.166 64 98.499s22 77.333 22 126z" />
    <glyph glyph-name="A" unicode="A" horiz-adv-x="974" 
d="M641 358l136.999 341c-34.667 -7.33301 -69.334 -23.333 -104.001 -48s-64.167 -52 -88.5 -82s-47.166 -62 -68.499 -96s-43.666 -72.333 -66.999 -115h191zM436.999 335l-34.0029 -66.001c-19.333 -37.333 -43.5 -80.666 -72.5 -129.999s-59.5 -86.833 -91.5 -112.5
s-73.333 -38.5 -124 -38.5c-41.333 0 -76.166 12.167 -104.499 36.5s-42.5 57.5 -42.5 99.5c0 38 13.167 70.167 39.5 96.5s59.166 39.5 98.499 39.5c36 0 66.5 -10.833 91.5 -32.5s37.5 -51.167 37.5 -88.5c0 -16 -2.66699 -30.667 -8 -44s-11.5 -23.166 -18.5 -29.499
s-17.333 -13.833 -31 -22.5s-20.5 -16.334 -20.5 -23.001c4.66699 -4 8.33398 -6 11.001 -6c14 0 31.833 7.66699 53.5 23s43.5 39.5 65.5 72.5s45.5 73.333 70.5 121s57.333 106 97 175s71.334 121 95.001 156s65.5 72.5 125.5 112.5s134.333 60 223 60
c35.333 0 63 -0.666992 83 -2s37.667 -3 53 -5l-242 -602c-16.667 -42 -25 -68.667 -25 -80c0 -16 9.66699 -24.833 29 -26.5s45 -2.5 77 -2.5v-16h-484v16c8 0 17.5 0.5 28.5 1.5s24.667 2.33301 41 4s30.333 9 42 22s26.834 40.833 45.501 83.5l86 208h-195z" />
    <glyph glyph-name="B" unicode="B" horiz-adv-x="936" 
d="M379 -1l-430.998 1v16l55 4c25.333 2.66699 43.666 10.5 54.999 23.5s31.5 55 60.5 126l77.5 194l66 175.5c21.333 58.667 34 95 38 109s6 24.333 6 31c0 14.667 -7.5 24 -22.5 28s-44.5 6 -88.5 6v16l397 1c66.667 0 112.167 -1.16699 136.5 -3.5s52 -7.5 83 -15.5
s58.667 -25.167 83 -51.5s36.5 -61.5 36.5 -105.5c0 -50 -21.333 -90.5 -64 -121.5s-97.334 -46.5 -164.001 -46.5l-42 1v-9c64 0 118.167 -15.167 162.5 -45.5s66.5 -74.5 66.5 -132.5c0 -42.667 -11.5 -79.167 -34.5 -109.5s-50.833 -51.5 -83.5 -63.5
s-73.167 -19.667 -121.5 -23s-105.5 -5 -171.5 -5h-100zM443.002 372l-137.999 -355.003c24.667 0 49.667 0.166992 75 0.5s55.166 2.5 89.499 6.5s66 30.833 95 80.5s43.5 101.834 43.5 156.501c0 32.667 -4.16699 58.334 -12.5 77.001s-27.5 29.334 -57.5 32.001l-56 3z
M450.003 389.997c62.667 0 106.667 4.50098 132 13.501s50 37.167 74 84.5s36 96.333 36 147c0 21.333 -4.5 39.166 -13.5 53.499s-23.833 21.5 -44.5 21.5l-57 2z" />
    <glyph glyph-name="C" unicode="C" horiz-adv-x="749" 
d="M391 -12c-90.667 0 -166 29.667 -226 89s-90 133.333 -90 222c0 116 47.5 218.5 142.5 307.5s211.167 133.5 348.5 133.5c48 0 88.667 -6.83301 122 -20.5l102 -41.5c16 0 31.833 6.16699 47.5 18.5s27.834 26.833 36.501 43.5h18l-142 -354h-19
c0 11.333 0.5 36.166 1.5 74.499s1.5 59.833 1.5 64.5c0 68.667 -5.16699 116.5 -15.5 143.5s-35.5 40.5 -75.5 40.5c-26 0 -52.333 -9.16699 -79 -27.5s-52.5 -44.166 -77.5 -77.499s-47.667 -69 -68 -107s-37 -74.333 -50 -109s-23.667 -70.5 -32 -107.5
s-12.5 -69.833 -12.5 -98.5c0 -52 8.5 -91.667 25.5 -119s47.5 -41 91.5 -41c32 0 59.833 5.66699 83.5 17s45.667 26 66 44s36.833 36.833 49.5 56.5s24.667 41.167 36 64.5l18 -8c-28 -64.667 -68.333 -115.5 -121 -152.5s-113.334 -55.5 -182.001 -55.5z" />
    <glyph glyph-name="D" unicode="D" horiz-adv-x="939" 
d="M964 425c0 -70.667 -15.3359 -134.334 -46.0029 -191.001s-72.667 -102.667 -126 -138s-113.666 -60.5 -180.999 -75.5s-144.666 -22.5 -231.999 -22.5l-437 2v16l55 4c24.667 2.66699 42.834 10.5 54.501 23.5s27.5 42.333 47.5 88l70.5 168.5l63.5 159l50.5 129.5
c18.333 47 27.5 76.833 27.5 89.5c0 14.667 -7.33301 24.167 -22 28.5s-44 6.5 -88 6.5v16l389 2c131.333 0 226.5 -30.667 285.5 -92s88.5 -132.666 88.5 -213.999zM731.997 573c0 36.667 -8.50098 67.6689 -25.501 93.002s-35 39.166 -54 41.499
s-33.167 3.66602 -42.5 3.99902s-18.333 0.5 -27 0.5l-78 -188l-132 -323c-44 -108.667 -68.667 -170 -74 -184h88c88.667 0 168.334 62.667 239.001 188s106 248 106 368z" />
    <glyph glyph-name="E" unicode="E" horiz-adv-x="890" 
d="M448 387c8.66699 0 16.999 0.166992 24.999 0.5s24.833 2.5 50.5 6.5s57 20 94 48s66.167 63 87.5 105h20l-147 -365h-20c2.66699 10.667 5.16699 23.5 7.5 38.5s3.5 30.167 3.5 45.5c0 33.333 -6.33301 58.5 -19 75.5s-33.667 25.5 -63 25.5l-47 1l-141 -348h36
c33.333 0 74.166 2.16699 122.499 6.5s100.333 26.666 156 66.999s101.834 79 138.501 116l88 89.5h20l-120 -299h-798v16l55 4c24.667 2.66699 42.834 10.5 54.501 23.5s28.167 44.167 49.5 93.5l57 135l68.5 172.5l63.5 163c13.333 34.333 20 57.833 20 70.5
c0 14 -5.66699 23.333 -17 28s-39 7 -83 7v16h789l-125 -310h-19l-4 70c-6 54.667 -18.833 102.834 -38.5 144.501s-44.167 64.167 -73.5 67.5s-56.5 5.5 -81.5 6.5s-47.5 1.5 -67.5 1.5h-13z" />
    <glyph glyph-name="F" unicode="F" horiz-adv-x="817" 
d="M345 125c-5.33301 -14.667 -10.5029 -30.167 -15.5029 -46.5s-7.5 -26.833 -7.5 -31.5c0 -12.667 6.83301 -21 20.5 -25s43.167 -6 88.5 -6v-16h-484v16l55 4c24.667 2.66699 42.834 10.667 54.501 24s28.167 45.5 49.5 96.5l57.5 142l57.5 150.5l52 140
c13.333 36.667 22 61.834 26 75.501s6 23.834 6 30.501c0 12.667 -6.66699 21.5 -20 26.5s-40.333 7.5 -81 7.5v16h787l-148 -371h-19l2 64c0 69.333 -9.66699 132.166 -29 188.499s-45.166 86.5 -77.499 90.5s-56.833 6.33301 -73.5 7s-33.334 1 -50.001 1h-23l-129 -327
l54 3c44.667 7.33301 85.834 24.833 123.501 52.5s67.167 62.5 88.5 104.5h20l-151 -375h-20c2.66699 11.333 5.33398 26.166 8.00098 44.499s4 33.833 4 46.5c0 34 -6.33301 59.833 -19 77.5s-33.667 26.5 -63 26.5l-53 1z" />
    <glyph glyph-name="G" unicode="G" horiz-adv-x="882" 
d="M75 299c0 116 48.502 218.497 145.502 307.497s215.5 133.5 355.5 133.5c58 0 107.667 -6.66699 149 -20l113 -45c17.333 0 33.5 6 48.5 18s27.833 27.667 38.5 47h19l-136 -339h-19c0.666992 11.333 1.33398 27.5 2.00098 48.5s1 36.167 1 45.5l-2 70
c0 52 -11.5 89.167 -34.5 111.5s-53.167 33.5 -90.5 33.5c-30 0 -60.667 -10.333 -92 -31s-59.833 -48.167 -85.5 -82.5s-48.5 -69.666 -68.5 -105.999s-38.333 -76 -55 -119s-29.834 -86.167 -39.501 -129.5s-14.5 -84.333 -14.5 -123
c0 -33.333 5.83301 -60.166 17.5 -80.499s31.167 -30.5 58.5 -30.5c28 0 52 8.5 72 25.5s33.667 34 41 51s14.5 35 21.5 54s13.167 37.5 18.5 55.5s9.66602 33.5 12.999 46.5s5 23.167 5 30.5c0 14 -7.83301 23 -23.5 27s-39.5 6 -71.5 6v16h455v-16l-30 -3
c-32.667 0 -54 -9.16699 -64 -27.5s-21.833 -44.833 -35.5 -79.5s-26 -69.167 -37 -103.5l-30.5 -95.5h-15c-4 14.667 -11.5 29.334 -22.5 44.001s-35.167 22 -72.5 22c-28 0 -66.667 -12.167 -116 -36.5s-96 -36.5 -140 -36.5c-82.667 0 -149.834 29.5 -201.501 88.5
s-77.5 133.167 -77.5 222.5z" />
    <glyph glyph-name="H" unicode="H" horiz-adv-x="1005" 
d="M436 358l-93.0039 -233c-16.667 -42 -25 -68.667 -25 -80c0 -12 6.5 -19.833 19.5 -23.5s34.167 -5.5 63.5 -5.5v-16h-459v16l55 4c24.667 2.66699 42.834 10.5 54.501 23.5s27.5 42.333 47.5 88l70.5 168.5l63.5 159l50.5 130c18.333 47.333 27.5 77 27.5 89
c0 16 -6.83301 25.833 -20.5 29.5s-40.167 5.5 -79.5 5.5v16h457v-16l-32 -2c-26.667 -2.66699 -45.667 -10.334 -57 -23.001s-25.666 -40.667 -42.999 -84l-90 -221h234l86 219c6.66699 16.667 12 31.834 16 45.501s6 24.5 6 32.5c0 15.333 -6 24.666 -18 27.999
s-33.667 5 -65 5v16h460v-16l-52 -3c-32 -2.66699 -53 -12.167 -63 -28.5s-23.667 -45.666 -41 -87.999l-59.5 -145.5l-65 -161l-60.5 -152c-19.333 -48.667 -29 -79 -29 -91c0 -11.333 6.33301 -18.833 19 -22.5s39.334 -5.5 80.001 -5.5v-16h-456v16l36 3
c24.667 2.66699 42.834 10.5 54.501 23.5s26.667 40.5 45 82.5l50.5 119l46 114h-234z" />
    <glyph glyph-name="I" unicode="I" horiz-adv-x="528" 
d="M688 713l-52.001 -3.00098c-32 -2.66699 -53 -12.167 -63 -28.5s-23.667 -45.666 -41 -87.999l-59.5 -145.5l-65 -161l-60.5 -152c-19.333 -48.667 -29 -79 -29 -91c0 -9.33301 6 -16.333 18 -21s39 -7 81 -7v-16h-475v16l55 4c24.667 2.66699 42.834 10.5 54.501 23.5
s27.5 42.333 47.5 88l70.5 168.5l63.5 159l50.5 129.5c18.333 47 27.5 76.833 27.5 89.5c0 15.333 -5.83301 25 -17.5 29s-39.167 6 -82.5 6v16h477v-16z" />
    <glyph glyph-name="J" unicode="J" horiz-adv-x="680" 
d="M316 244c52.667 122.667 91 217.498 115 284.498s37.833 106.833 41.5 119.5s5.5 22.667 5.5 30c0 13.333 -5.5 22.5 -16.5 27.5s-41.833 7.5 -92.5 7.5v16h484v-16l-49 -3c-32 -2.66699 -53 -12.167 -63 -28.5s-27.5 -56 -52.5 -119l-62 -158.5
c-16.333 -42.667 -39 -97.667 -68 -165s-76.333 -126 -142 -176s-149.167 -75 -250.5 -75c-51.333 0 -95.833 12.667 -133.5 38s-56.5 60.666 -56.5 105.999c0 36 12.167 66.833 36.5 92.5s53.833 38.5 88.5 38.5s63.167 -10.167 85.5 -30.5s33.5 -46.166 33.5 -77.499
c0 -24 -8.66699 -45.667 -26 -65s-33.833 -30.833 -49.5 -34.5l-39 -9c-10.333 -2.33301 -15.5 -8.16602 -15.5 -17.499c0 -8 4.16699 -14.167 12.5 -18.5s20.833 -6.5 37.5 -6.5c40.667 0 73.667 24.833 99 74.5s51 104.834 77 165.501z" />
    <glyph glyph-name="K" unicode="K" horiz-adv-x="897" 
d="M421 322l-78.001 -197.005c-16.667 -41.333 -25 -68.333 -25 -81c0 -11.333 6.33301 -18.833 19 -22.5s39.334 -5.5 80.001 -5.5v-16h-475v16l55 4c24.667 2.66699 42.834 10.5 54.501 23.5s27.5 42.333 47.5 88l70.5 168.5l63.5 159l50.5 129.5
c18.333 47 27.5 77.167 27.5 90.5c0 17.333 -7.33301 26.833 -22 28.5s-29.667 2.83398 -45 3.50098s-26.333 1.33398 -33 2.00098v16h477v-16l-52 -3c-32 -2.66699 -53 -12.167 -63 -28.5s-22.333 -42.166 -37 -77.499l-102 -251l3 -1l100.5 73.5l141.5 104.5l117.5 88
c24.333 18.667 40.666 33.5 48.999 44.5s12.5 20.5 12.5 28.5c0 8.66699 -4.66699 14.5 -14 17.5s-28.333 4.5 -57 4.5v16h262v-16c-7.33301 0 -18.833 -0.166992 -34.5 -0.5s-33 -4 -52 -11s-36.333 -15.5 -52 -25.5s-41.167 -28 -76.5 -54l-144 -108l86 -393
c8.66699 -35.333 16.5 -60.333 23.5 -75s17.833 -23.167 32.5 -25.5s26.5 -3.66602 35.5 -3.99902s17.167 -0.5 24.5 -0.5v-16h-425v16l46 2c12 0 19.667 3 23 9s5 14.667 5 26c0 12.667 -6.83301 51.334 -20.5 116.001l-41.5 192z" />
    <glyph glyph-name="L" unicode="L" horiz-adv-x="848" 
d="M691 729v-16l-55 -3c-32 -2.66699 -53 -12.167 -63 -28.5s-22.333 -42.166 -37 -77.499l-237 -584h17c13.333 0 29 0.333008 47 1s45.667 2.66699 83 6s87.166 29.833 149.499 79.5s114.333 96.834 156 141.501l99.5 109h22l-143 -357h-788v16l55 4
c24.667 2.66699 42.834 10.5 54.501 23.5s29.5 47 53.5 102l66.5 156.5l43 106l54.5 142c28 73.333 42 116.666 42 129.999s-6.5 22.166 -19.5 26.499s-39.833 6.5 -80.5 6.5v16h480z" />
    <glyph glyph-name="M" unicode="M" horiz-adv-x="1262" 
d="M353 235c-20.667 -54 -37.8359 -94.168 -51.5029 -120.501s-33.334 -54 -59.001 -83s-68.167 -43.5 -127.5 -43.5c-40.667 0 -75.334 12.333 -104.001 37s-43 57.334 -43 98.001c0 39.333 13 72 39 98s58.667 39 98 39c34.667 0 65 -10.667 91 -32s39 -49 39 -83
c0 -14 -1.16699 -26 -3.5 -36s-5.66602 -19.167 -9.99902 -27.5s-10 -16 -17 -23s-10.5 -12.833 -10.5 -17.5c0 -5.33301 3.33301 -8 10 -8c4.66699 0 11.5 3.5 20.5 10.5s19.333 18.833 31 35.5s23.334 38 35.001 64s31.5 75 59.5 147s54.833 146.5 80.5 223.5
s39.834 121 42.501 132s4 19.5 4 25.5c0 17.333 -7.5 28.666 -22.5 33.999s-45.5 8 -91.5 8v16h376v-451l310 451h373v-16l-52 -3c-32 -2.66699 -53 -12.167 -63 -28.5s-32.167 -66 -66.5 -149l-87 -212l-61.5 -157c-17.333 -46.333 -28.333 -76.5 -33 -90.5s-7 -23 -7 -27
c0 -13.333 7.33301 -21.666 22 -24.999s40.334 -5 77.001 -5v-16h-475v16l55 4c24.667 2.66699 42.834 10.5 54.501 23.5s27.167 41.5 46.5 85.5s41.833 98.167 67.5 162.5l85 215.5l68.5 175l-8 4l-469 -686h-68v666h-4l-60.5 -183
c-17.667 -52.667 -31.5 -92.5 -41.5 -119.5z" />
    <glyph glyph-name="N" unicode="N" horiz-adv-x="1040" 
d="M1205 729l-0.00195312 -16.0029l-50 -4c-23.333 -2.66699 -42.833 -12.334 -58.5 -29.001s-34 -50.5 -55 -101.5l-94 -232.5l-91.5 -228l-47 -118h-137l-173 648l-59 -174.5l-40.5 -116l-44.5 -117.5c-22 -57.333 -39.833 -99.166 -53.5 -125.499
s-33.334 -54 -59.001 -83s-68.167 -43.5 -127.5 -43.5c-40.667 0 -75.334 12.333 -104.001 37s-43 57.334 -43 98.001c0 39.333 13 72 39 98s58.667 39 98 39c34.667 0 65 -10.667 91 -32s39 -49 39 -83c0 -14 -1.16699 -26 -3.5 -36s-5.66602 -19.167 -9.99902 -27.5
s-10 -16 -17 -23s-10.5 -12.833 -10.5 -17.5c0 -5.33301 3.33301 -8 10 -8c5.33301 0 12 3 20 9s18.167 17.833 30.5 35.5s24.333 39.5 36 65.5s26.334 61.5 44.001 106.5s37.667 98.833 60 161.5l54 156c13.667 41.333 21.834 67.333 24.501 78s4 19.334 4 26.001
c0 16.667 -8.33301 27.834 -25 33.501s-48 8.5 -94 8.5v16h363l144 -524l35.5 86.5l48 117.5l47.5 121c16.667 43.333 27.167 72.333 31.5 87s6.5 27 6.5 37c0 22.667 -9.16699 38.167 -27.5 46.5s-50.166 12.5 -95.499 12.5v16h294z" />
    <glyph glyph-name="O" unicode="O" horiz-adv-x="855" 
d="M885 424c0 -114.667 -51 -216 -153 -304s-215.667 -132 -341 -132c-98 0 -175.167 29.833 -231.5 89.5s-84.5 133.5 -84.5 221.5c0 120 51.5 223.5 154.5 310.5s221.5 130.5 355.5 130.5c88 0 160 -30 216 -90s84 -135.333 84 -226zM677 634
c0 28 -5.16309 49.333 -15.4961 64s-28.833 22 -55.5 22c-24 0 -43.833 -5.66699 -59.5 -17s-33.334 -31 -53.001 -59s-42.334 -69.167 -68.001 -123.5s-48.167 -105.833 -67.5 -154.5s-36.5 -98.5 -51.5 -149.5s-22.5 -91.833 -22.5 -122.5c0 -28 5.16699 -49.333 15.5 -64
s28.833 -22 55.5 -22c24 0 43.833 5.66699 59.5 17s33.167 30.833 52.5 58.5s42.166 69.5 68.499 125.5s50.666 113 72.999 171s39.333 109.167 51 153.5s17.5 77.833 17.5 100.5z" />
    <glyph glyph-name="P" unicode="P" horiz-adv-x="854" 
d="M422 323c8.66699 0 20.835 0.168945 36.502 0.501953s39.667 2.16602 72 5.49902s67.666 37.166 105.999 101.499s57.5 124.833 57.5 181.5c0 28.667 -5.33301 52 -16 70s-26.334 27 -47.001 27l-50 2zM414.001 305.002l-70.999 -180c-16 -41.333 -24 -68 -24 -80
s6.66699 -19.833 20 -23.5s42.666 -5.5 87.999 -5.5v-16h-485v16l55 4c24.667 2.66699 42.834 10.5 54.501 23.5s27.5 42.333 47.5 88l70.5 168.5l63.5 159l44.5 114.5c14.333 37 23.5 62 27.5 75s6 23.5 6 31.5c0 14 -6.16699 23 -18.5 27s-39.5 6 -81.5 6v16l429 1
c50 0 94.667 -5 134 -15s70.333 -23.5 93 -40.5s39.5 -37.167 50.5 -60.5s16.5 -48 16.5 -74c0 -74 -31.833 -132.333 -95.5 -175s-140.834 -64 -231.501 -64c-40.667 0 -77 0.333008 -109 1s-60 1.66699 -84 3z" />
    <glyph glyph-name="Q" unicode="Q" horiz-adv-x="867" 
d="M284 94c8 15.333 20.167 26.999 36.5 34.999s34.5 12 54.5 12c19.333 0 37 -3.83301 53 -11.5s32.333 -18.5 49 -32.5c18.667 28.667 39.334 67.834 62.001 117.501s45.5 104 68.5 163s40.333 110.667 52 155s17.5 77.833 17.5 100.5c0 28 -5.16699 49.5 -15.5 64.5
s-28.833 22.5 -55.5 22.5c-39.333 0 -72.833 -19.833 -100.5 -59.5s-54.334 -86.667 -80.001 -141s-48 -105.5 -67 -153.5s-36.167 -97.833 -51.5 -149.5s-23 -92.5 -23 -122.5zM388 7.99902c-8 40.667 -16.168 66.834 -24.501 78.501s-19.166 17.5 -32.499 17.5
c-12 0 -21.667 -2.66699 -29 -8s-13 -13 -17 -23c0 -18.667 6 -34.334 18 -47.001s29.333 -19 52 -19zM702.999 -10.001c46 0 80.501 8.66699 103.501 26s38.833 46 47.5 86h14c0 -30 -8.83301 -68.667 -26.5 -116s-46.667 -89.5 -87 -126.5s-92.5 -55.5 -156.5 -55.5
c-64.667 0 -113.334 19.667 -146.001 59s-52.667 81 -60 125c-98.667 0 -176.167 29.667 -232.5 89s-84.5 133.333 -84.5 222c0 120 51.5 223.5 154.5 310.5s221.5 130.5 355.5 130.5c88 0 160 -30 216 -90s84 -135.333 84 -226c0 -86 -30 -166.333 -90 -241
s-135.667 -128 -227 -160c38 -22 83 -33 135 -33z" />
    <glyph glyph-name="R" unicode="R" horiz-adv-x="929" 
d="M445 380l88 3c44.667 0 83.167 27 115.5 81s48.5 110 48.5 168c0 51.333 -21 77 -63 77l-53 2zM437 362l-94 -237.001c-16.667 -41.333 -25 -68.333 -25 -81c0 -10.667 6.5 -18 19.5 -22s39.5 -6 79.5 -6v-16h-475v16l55 4c24.667 2.66699 42.834 10.5 54.501 23.5
s27.5 42.333 47.5 88l70.5 168.5l63.5 159l50.5 130c18.333 47.333 27.5 77 27.5 89c0 14.667 -6.33301 24.167 -19 28.5s-39.667 6.5 -81 6.5v16l451 1c87.333 0 155.333 -13.333 204 -40s73 -68 73 -124c0 -62 -27.5 -110.167 -82.5 -144.5s-118.5 -51.5 -190.5 -51.5
l-25 1v-6c32 -9.33301 56.167 -17.166 72.5 -23.499s33.166 -19.5 50.499 -39.5s28.833 -38 34.5 -54s8.5 -36.333 8.5 -61c0 -27.333 -3.83301 -55.666 -11.5 -84.999s-11.5 -46 -11.5 -50c0 -6 0.833008 -11.333 2.5 -16s7.16699 -7 16.5 -7c10 0 21.5 5.5 34.5 16.5
s24 22.667 33 35s16.667 24.166 23 35.499s13.5 25.333 21.5 42l13 -5c-24 -56.667 -53.167 -98.334 -87.5 -125.001s-79.5 -40 -135.5 -40c-56.667 0 -100.667 13.333 -132 40s-47 66 -47 118c0 19.333 6.33301 50.833 19 94.5s19 67.834 19 72.501
c0 14.667 -3.5 26.5 -10.5 35.5s-19.5 13.5 -37.5 13.5l-31 1z" />
    <glyph glyph-name="S" unicode="S" horiz-adv-x="710" 
d="M351 -12c-42.667 0 -85.3369 10.3311 -128.004 30.998l-127 64c-13.333 0 -30.5 -10.167 -51.5 -30.5s-37.167 -41.833 -48.5 -64.5h-17l148 364h18c-0.666992 -9.33301 -1.33398 -23.166 -2.00098 -41.499s-1 -31.5 -1 -39.5c0 -32 2.33301 -59.667 7 -83
s13.834 -50.166 27.501 -80.499s37 -54.666 70 -72.999s71.167 -27.5 114.5 -27.5c40 0 72.333 11.667 97 35s37 50 37 80c0 20 -6.66699 38.667 -20 56s-40.166 37.166 -80.499 59.499l-144.5 80.5c-65.333 46 -98 103 -98 171c0 67.333 31 126 93 176s136.333 75 223 75
c45.333 0 86 -6.66699 122 -20l99 -44c16 0 29.333 5.33301 40 16s22.334 26.667 35.001 48h19l-123 -304h-18c1.33301 8.66699 2.33301 19 3 31s1 26.333 1 43c0 26.667 -1.16699 49.5 -3.5 68.5s-8.16602 39.667 -17.499 62s-26 41.333 -50 57s-58 23.5 -102 23.5
c-34 0 -65.5 -9.5 -94.5 -28.5s-43.5 -44.5 -43.5 -76.5c0 -20.667 6.5 -40 19.5 -58s28.167 -32 45.5 -42l89 -49.5c42 -23 76 -42.667 102 -59s48.5 -39.5 67.5 -69.5s28.5 -63 28.5 -99c0 -72.667 -31.667 -132.667 -95 -180s-143.666 -71 -240.999 -71z" />
    <glyph glyph-name="T" unicode="T" horiz-adv-x="810" 
d="M476 125c-16.667 -42 -25.001 -68.999 -25.001 -80.999c0 -18.667 33 -28 99 -28v-16h-475v16l55 4c24.667 2.66699 42.834 10.5 54.501 23.5s28.167 44.167 49.5 93.5l85.5 208l88.5 222l57 144l-28 -3c-38 -3.33301 -90.833 -36.5 -158.5 -99.5
s-130.167 -129.833 -187.5 -200.5h-17l129 321h790l-129 -321h-17c0 97.333 -10.167 171.666 -30.5 222.999s-44.833 77 -73.5 77l-31 2z" />
    <glyph glyph-name="U" unicode="U" horiz-adv-x="853" 
d="M846 559c6 15.333 11.8311 32.833 17.498 52.5s8.5 34.834 8.5 45.501c0 22 -8.16699 36.833 -24.5 44.5s-45.833 11.5 -88.5 11.5v16h304v-16l-67 -5c-24.667 -2.66699 -45 -12 -61 -28s-35.167 -52 -57.5 -108l-78 -198c-29.667 -76 -55.667 -137 -78 -183
s-55.333 -91.333 -99 -136s-120.167 -67 -229.5 -67c-89.333 0 -157.166 20 -203.499 60s-69.5 88.667 -69.5 146c0 12 1.83301 24.167 5.5 36.5s14.834 42.166 33.501 89.499l114 282c14.667 38.667 22 64 22 76c0 14.667 -6.66699 24.167 -20 28.5s-40 6.5 -80 6.5v16h477
v-16l-52 -3c-32 -2.66699 -53 -12.167 -63 -28.5s-23.667 -45.666 -41 -87.999l-52 -127.5l-58.5 -145c-21.667 -54 -35 -87.833 -40 -101.5s-9.66699 -29.334 -14 -47.001s-6.5 -32.5 -6.5 -44.5c0 -32 9.83301 -57.5 29.5 -76.5s45.5 -28.5 77.5 -28.5
c41.333 0 79.5 8.33301 114.5 25s61.667 37.5 80 62.5s33.833 48.833 46.5 71.5s22.5 42.167 29.5 58.5s28.333 70.833 64 163.5z" />
    <glyph glyph-name="V" unicode="V" horiz-adv-x="915" 
d="M663 541c-21.333 -30.667 -54.5 -80.998 -99.5 -150.998l-140 -220l-109.5 -174h-115v604l-2 48c-2 21.333 -6.5 36.166 -13.5 44.499s-20.833 13.833 -41.5 16.5l-54 4v16h464v-16l-54 -3c-20.667 -2 -34.5 -6.83301 -41.5 -14.5s-11.5 -22.834 -13.5 -45.501l-2 -48
v-364l68.5 106l88.5 136c28.667 43.333 58 85.333 88 126s61.667 73.167 95 97.5s75 36.5 125 36.5c40.667 0 75.667 -11.667 105 -35s44 -55 44 -95c0 -40.667 -12.167 -74.5 -36.5 -101.5s-56.166 -40.5 -95.499 -40.5c-36 0 -67.167 10 -93.5 30s-39.5 47.333 -39.5 82
c0 14 1.5 25.5 4.5 34.5s7.16699 17.667 12.5 26s12.5 17.666 21.5 27.999s13.5 18.5 13.5 24.5c0 5.33301 -3.66699 8 -11 8s-15 -1.66699 -23 -5s-18.833 -10.666 -32.5 -21.999s-28.834 -26.5 -45.501 -45.5s-39 -48.167 -67 -87.5z" />
    <glyph glyph-name="W" unicode="W" horiz-adv-x="1346" 
d="M626 486l-319.999 -489.999h-107v604l-2 48c-2 21.333 -6.5 36.166 -13.5 44.499s-20.833 13.833 -41.5 16.5l-54 4v16h428v-16l-21 -2c-20 -2 -33.167 -6.83301 -39.5 -14.5s-10.5 -23.167 -12.5 -46.5l-2 -48v-356l185 280v74l-2 48c-2 19.333 -5 34.166 -9 44.499
s-18.333 16.833 -43 19.5l-20 1v16h427v-16l-54 -3c-20.667 -2 -34.5 -6.83301 -41.5 -14.5s-11.5 -22.834 -13.5 -45.501l-2 -48v-359l42 65.5l89 133.5c46 68.667 84.333 123.334 115 164.001s62.667 73.167 96 97.5s75.333 36.5 126 36.5
c42.667 0 78.167 -12.5 106.5 -37.5s42.5 -57.5 42.5 -97.5c0 -39.333 -13 -72 -39 -98s-58.667 -39 -98 -39c-36 0 -66.667 10.667 -92 32s-38 49.333 -38 84c0 12.667 1.5 22.834 4.5 30.501s7.16699 16.167 12.5 25.5s12.666 19 21.999 29s14 18.333 14 25
c0 6 -3.66699 9 -11 9c-6 0 -13.5 -2.16699 -22.5 -6.5s-21 -12.5 -36 -24.5s-31.167 -28.833 -48.5 -50.5s-36.5 -47.167 -57.5 -76.5s-57.167 -83.833 -108.5 -163.5l-142 -223l-102 -162.5h-117v490z" />
    <glyph glyph-name="X" unicode="X" horiz-adv-x="764" 
d="M346 309l-118.502 -108.505c-43.667 -40.333 -75.667 -70.666 -96 -90.999s-33.5 -35.166 -39.5 -44.499s-9 -17.666 -9 -24.999c0 -9.33301 6.83301 -15.666 20.5 -18.999s33.834 -5 60.501 -5v-16h-280v16l45 2c24.667 3.33301 45.334 8.5 62.001 15.5
s41.834 24.333 75.501 52s86 73.834 157 138.501l117.5 107l-70 288c-8.66699 34 -17.667 56.833 -27 68.5s-23.666 19.167 -42.999 22.5l-40 3v16h443v-16l-43 -2c-18.667 -2 -32 -5.66699 -40 -11s-12 -18 -12 -38c0 -12 5.5 -42 16.5 -90l23.5 -104l89 82.5l78.5 76
c25.667 25.667 38.5 46.5 38.5 62.5s-24.333 24 -73 24v16h263v-16l-35 -2c-25.333 -3.33301 -46.833 -8.66602 -64.5 -15.999s-40.334 -22.666 -68.001 -45.999s-65.167 -56.666 -112.5 -99.999l-111 -102l44.5 -192.5l34 -137c11 -42.333 20.667 -68.5 29 -78.5
s22.5 -16.667 42.5 -20l42 -3v-16h-445v16c7.33301 0 15.166 0.166992 23.499 0.5s22.333 1.66602 42 3.99902s29.5 19.166 29.5 50.499c0 12.667 -6.66699 47.667 -20 105s-23.333 101.666 -30 132.999z" />
    <glyph glyph-name="Y" unicode="Y" horiz-adv-x="863" 
d="M529 354l50.9971 101.5l67.5 128c27 49.667 55.667 88.167 86 115.5s71.5 41 123.5 41c40 0 74.167 -12.5 102.5 -37.5s42.5 -57.167 42.5 -96.5c0 -40 -12.667 -73 -38 -99s-58 -39 -98 -39c-35.333 0 -66 10.667 -92 32s-39 49 -39 83c0 12.667 1 22.334 3 29.001
s5 14.167 9 22.5s9.66699 17.333 17 27s11 18.167 11 25.5c0 4.66699 -3 7 -9 7c-8 0 -18 -5.66699 -30 -17s-26 -29.333 -42 -54s-37.5 -63.667 -64.5 -117l-65 -130l-36.5 -76l-70 -175c-16.667 -44 -25 -71.333 -25 -82s7.5 -17.834 22.5 -21.501s40.5 -5.5 76.5 -5.5
v-16h-475v16l55 4c24.667 2.66699 42.834 10.5 54.501 23.5s26.334 39.833 44.001 80.5l46.5 110.5l38 95.5l-24.5 77.5l-32.5 98l-37.5 105c-14.333 39 -24.833 64.167 -31.5 75.5s-17.167 18.333 -31.5 21s-26.166 4.16699 -35.499 4.5s-18 0.833008 -26 1.5v16h467v-16
c-39.333 -3.33301 -66.833 -6.5 -82.5 -9.5s-23.5 -16.833 -23.5 -41.5c0 -11.333 3 -27.333 9 -48s10.333 -36 13 -46l66 -214h4z" />
    <glyph glyph-name="Z" unicode="Z" horiz-adv-x="834" 
d="M278 20l109.001 4c49.333 0 121.666 38.167 216.999 114.5s170 147.5 224 213.5h20l-142 -352h-734v16l667 689v5l-86 -4c-52.667 0 -125 -35.333 -217 -106s-166 -139 -222 -205h-20l134 334h717v-18l-667 -686v-5z" />
    <glyph glyph-name="bracketleft" unicode="[" horiz-adv-x="468" 
d="M-79 -125l346.006 859.004c36.667 -10 72 -17.333 106 -22s71.667 -7 113 -7c32 0 60.333 3 85 9s37 18 37 36c0 11.333 -3.33301 21.333 -10 30c-2.66699 3.33301 -2.33398 6.33301 0.999023 9s6.66602 4 9.99902 4c16.667 -16.667 25 -36.334 25 -59.001
c0 -40 -12.333 -69 -37 -87s-55.334 -27 -92.001 -27c-43.333 0 -83.666 10 -120.999 30l-101 56l-324 -803c47.333 25.333 87.666 46 120.999 62s69.666 24 108.999 24c37.333 0 68.166 -8.83301 92.499 -26.5s36.5 -46.834 36.5 -87.501c0 -22.667 -8.33301 -41 -25 -55
c-2.66699 -2.66699 -5.83398 -2.83398 -9.50098 -0.500977s-4.16699 5.5 -1.5 9.5c6.66699 8.66699 10 18.667 10 30c0 17.333 -12.833 29.166 -38.5 35.499s-53.5 9.5 -83.5 9.5c-42 0 -82.667 -2.33301 -122 -7s-77.333 -12 -114 -22h-13z" />
    <glyph glyph-name="backslash" unicode="\" horiz-adv-x="361" 
d="M381 -102l-44 -9l-249 866l45 11z" />
    <glyph glyph-name="bracketright" unicode="]" horiz-adv-x="468" 
d="M604 734l-346.007 -859.004c-36.667 10 -72 17.333 -106 22s-71.667 7 -113 7c-32 0 -60.333 -3 -85 -9s-37 -18 -37 -36c0 -11.333 3.33301 -21.333 10 -30c2.66699 -3.33301 2.33398 -6.33301 -0.999023 -9s-6.66602 -4 -9.99902 -4
c-16.667 16.667 -25 36.334 -25 59.001c0 40 12.333 69 37 87s55.334 27 92.001 27c43.333 0 83.5 -10 120.5 -30l101.5 -56l324 803c-47.333 -25.333 -87.666 -46 -120.999 -62s-69.666 -24 -108.999 -24c-37.333 0 -68.166 8.83301 -92.499 26.5
s-36.5 46.834 -36.5 87.501c0 22.667 8.33301 41 25 55c2.66699 2.66699 5.83398 2.83398 9.50098 0.500977s4.16699 -5.5 1.5 -9.5c-6.66699 -8.66699 -10 -18.667 -10 -30c0 -17.333 12.833 -29.166 38.5 -35.499s53.5 -9.5 83.5 -9.5c42 0 82.667 2.33301 122 7
s77.333 12 114 22h13z" />
    <glyph glyph-name="asciicircum" unicode="^" horiz-adv-x="833" 
d="M470 613h-5l-185 -378l-74 31l225 463h72l225 -463l-74 -31z" />
    <glyph glyph-name="underscore" unicode="_" 
d="M500 -85v-78h-500v78h500z" />
    <glyph glyph-name="grave" unicode="`" 
d="M401 533l-8 -10l-135 64c-23.333 13.333 -40.833 26.166 -52.5 38.499s-17.5 26.833 -17.5 43.5c0 22.667 2 36.167 6 40.5s10.5 8 19.5 11s18.5 4.5 28.5 4.5c19.333 0 35.333 -8 48 -24c18.667 -41.333 35.667 -75.166 51 -101.499s35.333 -48.5 60 -66.5z" />
    <glyph glyph-name="a" unicode="a" horiz-adv-x="662" 
d="M671 474l-173.001 -380c-2 -4 -5.33301 -12.667 -10 -26s-7 -21.666 -7 -24.999c0 -5.33301 1.16699 -9.5 3.5 -12.5s5.83301 -4.5 10.5 -4.5c9.33301 0 22.333 6.66699 39 20s34.5 32.166 53.5 56.499s36.167 51.5 51.5 81.5l13 -6
c-18.667 -34.667 -37.834 -65.5 -57.501 -92.5s-44.167 -49.667 -73.5 -68s-64.666 -27.5 -105.999 -27.5c-33.333 0 -58.333 9.16699 -75 27.5s-25 45.833 -25 82.5c-26 -38.667 -50.833 -66.667 -74.5 -84s-54.167 -26 -91.5 -26c-40 0 -72.833 12.833 -98.5 38.5
s-38.5 59.167 -38.5 100.5c0 78.667 36.167 157.5 108.5 236.5s152.5 118.5 240.5 118.5c20.667 0 39.334 -5 56.001 -15s25 -25.667 25 -47l-3 -24l35 76h197zM428.999 420c0 10.667 -2.16895 18.502 -6.50195 23.502s-11.166 7.5 -20.499 7.5
c-12.667 0 -27.167 -10 -43.5 -30s-37.5 -55 -63.5 -105s-52 -105.333 -78 -166s-39 -100 -39 -118c0 -6 1.33301 -10.667 4 -14s6.66699 -5 12 -5c20.667 0 40.334 10.167 59.001 30.5s33 37.666 43 51.999s23.167 38.666 39.5 72.999s36 78.5 59 132.5
s34.5 93.667 34.5 119z" />
    <glyph glyph-name="b" unicode="b" horiz-adv-x="591" 
d="M410 419c0 12.667 -2.00098 21.999 -6.00098 27.999s-10.333 9 -19 9c-7.33301 0 -15.5 -2.83301 -24.5 -8.5s-19.833 -16 -32.5 -31s-27.667 -41 -45 -78s-39.666 -90 -66.999 -159s-41 -116.167 -41 -141.5c0 -21.333 10 -32 30 -32c15.333 0 30.5 10.167 45.5 30.5
s34 52.833 57 97.5s45.833 97.334 68.5 158.001s34 103 34 127zM441.999 483.999c35.333 0 66.333 -13.333 93 -40s40 -65.667 40 -117c0 -81.333 -30.833 -157.833 -92.5 -229.5s-145.167 -107.5 -250.5 -107.5c-52.667 0 -99.334 16.167 -140.001 48.5
s-61 74.833 -61 127.5c0 18 3.33301 36.333 10 55c10 23.333 18.833 44.833 26.5 64.5s20.834 51.667 39.501 96l50.5 119.5l45.5 111.5c15.333 39 23 64.167 23 75.5c0 13.333 -8.16699 20.833 -24.5 22.5s-33.833 2.5 -52.5 2.5v16h295l-129 -309
c18 20.667 35 36.5 51 47.5s41.333 16.5 76 16.5z" />
    <glyph glyph-name="c" unicode="c" horiz-adv-x="490" 
d="M378 467c-14.667 0 -30.998 -8.99902 -48.998 -26.999s-36.667 -44.667 -56 -80s-35 -74.833 -47 -118.5s-18 -82.5 -18 -116.5c0 -38.667 5.83301 -65.5 17.5 -80.5s28.167 -22.5 49.5 -22.5c16.667 0 31.667 2.83301 45 8.5s28.166 14.5 44.499 26.5s30 24.333 41 37
s22.5 27.667 34.5 45l14 -10c-38 -52.667 -75.833 -89 -113.5 -109s-77.834 -30 -120.501 -30c-50 0 -96.833 15.167 -140.5 45.5s-65.5 74.5 -65.5 132.5c0 79.333 35.167 151.833 105.5 217.5s154.5 98.5 252.5 98.5c58 0 98.5 -10.667 121.5 -32s34.5 -45 34.5 -71
c0 -28.667 -8.5 -51.834 -25.5 -69.501s-38.833 -26.5 -65.5 -26.5c-24 0 -44 7 -60 21s-24 31.333 -24 52c0 17.333 7.83301 36 23.5 56s23.5 33.667 23.5 41c0 4 -1.83301 7 -5.5 9s-9.16699 3 -16.5 3z" />
    <glyph glyph-name="d" unicode="d" horiz-adv-x="661" 
d="M418 411c0 10.667 -2.33301 18.6699 -7 24.0029s-11.667 8 -21 8c-12.667 0 -26.167 -8.66699 -40.5 -26s-33.833 -50.5 -58.5 -99.5s-50.5 -104.333 -77.5 -166s-40.5 -101.167 -40.5 -118.5c0 -6 1.5 -10.667 4.5 -14s7.16699 -5 12.5 -5c24 0 45 9.66699 63 29
s32 36.166 42 50.499s21.167 34.666 33.5 60.999s30.333 70.166 54 131.499s35.5 103 35.5 125zM501 94.0029c-5.33301 -13.333 -9.16699 -23.501 -11.5 -30.501s-3.5 -13.5 -3.5 -19.5c0 -4.66699 1.16699 -8.16699 3.5 -10.5s5.83301 -3.5 10.5 -3.5
c20.667 0 41.167 13.333 61.5 40s34.666 46.834 42.999 60.501l32.5 54.5l13 -6c-22 -40.667 -41.5 -73 -58.5 -97s-39.333 -45.333 -67 -64s-59.167 -28 -94.5 -28c-30.667 0 -56.167 9.5 -76.5 28.5s-30.5 44.5 -30.5 76.5l1 13c-26 -39.333 -51.5 -68.833 -76.5 -88.5
s-56.167 -29.5 -93.5 -29.5c-41.333 0 -74.666 14 -99.999 42s-38 66.333 -38 115c0 76.667 31.833 152 95.5 226s135.834 111 216.501 111c32.667 0 58.167 -6 76.5 -18s27.5 -31 27.5 -57l-1 -15l38.5 98l45.5 115.5c8.66699 22.333 15 39.333 19 51s6 20.5 6 26.5
c0 12.667 -5.33301 20.5 -16 23.5s-34.334 4.5 -71.001 4.5v16h305z" />
    <glyph glyph-name="e" unicode="e" horiz-adv-x="507" 
d="M222 233c46.667 5.33301 89.0029 31.501 127.003 78.501s57 88.5 57 124.5c0 10 -1.33301 17.667 -4 23s-8.66699 8 -18 8c-14.667 0 -29.334 -8 -44.001 -24s-30.334 -38.333 -47.001 -67s-30.834 -54.834 -42.501 -78.501s-21.167 -45.167 -28.5 -64.5z
M219.003 222.001c-4 -12.667 -7.66797 -29.1689 -11.001 -49.502s-5 -37.166 -5 -50.499c0 -37.333 5.16699 -63.666 15.5 -78.999s25.5 -23 45.5 -23c15.333 0 29 1.83301 41 5.5s26 10.167 42 19.5s32.833 23 50.5 41s31.834 35.667 42.501 53l14 -10
c-28 -39.333 -61 -72.333 -99 -99s-84 -40 -138 -40c-49.333 0 -95.5 14.833 -138.5 44.5s-64.5 73.167 -64.5 130.5c0 80 36.167 153.167 108.5 219.5s157.5 99.5 255.5 99.5c46 0 83.667 -10.5 113 -31.5s44 -45.167 44 -72.5c0 -52.667 -30.667 -92.167 -92 -118.5
s-136 -39.5 -224 -39.5z" />
    <glyph glyph-name="f" unicode="f" horiz-adv-x="369" 
d="M149 442h-104.999l13 32h107c16 33.333 40.667 70.5 74 111.5s73.666 77 120.999 108s97.666 46.5 150.999 46.5c38.667 0 70.167 -8.5 94.5 -25.5s36.5 -40.833 36.5 -71.5c0 -25.333 -9.16699 -46.5 -27.5 -63.5s-40.833 -25.5 -67.5 -25.5
c-20 0 -37.167 6.16699 -51.5 18.5s-21.5 28.166 -21.5 47.499c0 23.333 7.33301 43.666 22 60.999s22 28.333 22 33c0 6 -7.66699 9 -23 9c-36 0 -66 -25 -90 -75s-43 -108 -57 -174h129l-13 -32h-123c-5.33301 -27.333 -13 -62.666 -23 -105.999
s-23.5 -90.666 -40.5 -141.999s-37.167 -99.333 -60.5 -144s-51 -87.5 -83 -128.5s-71.667 -77 -119 -108s-98.333 -46.5 -153 -46.5c-37.333 0 -68.833 10.5 -94.5 31.5s-38.5 48.167 -38.5 81.5c0 23.333 9.33301 44 28 62s41 27 67 27c24 0 45 -7.16699 63 -21.5
s27 -32.833 27 -55.5c0 -27.333 -8.33301 -50 -25 -68s-25 -28.333 -25 -31c0 -6 4.66699 -9 14 -9c33.333 0 59.833 14 79.5 42s38.5 78.333 56.5 151l53.5 214c17.667 70 32.834 122 45.501 156z" />
    <glyph glyph-name="g" unicode="g" horiz-adv-x="627" 
d="M424 417c0 11.333 -2.33301 19.8359 -7 25.5029s-12 8.5 -22 8.5c-11.333 0 -24.833 -9.83301 -40.5 -29.5s-35.167 -52.334 -58.5 -98.001s-48.5 -101.334 -75.5 -167.001s-40.5 -107.167 -40.5 -124.5c0 -6 1.33301 -10.667 4 -14s6.66699 -5 12 -5
c21.333 0 41.333 10.333 60 31s32.167 37.167 40.5 49.5s21 36.666 38 72.999s36.167 80.833 57.5 133.5s32 91.667 32 117zM660 474.003l-71.499 -184.499c-25.667 -65 -58.167 -143.167 -97.5 -234.5s-91 -162 -155 -212s-147.667 -75 -251 -75
c-40.667 0 -75.167 11 -103.5 33s-42.5 48 -42.5 78c0 24 8.5 45.5 25.5 64.5s40.167 28.5 69.5 28.5c25.333 0 47 -8.33301 65 -25s27 -37 27 -61c0 -21.333 -7.33301 -39.333 -22 -54s-34 -22 -58 -22c-7.33301 0 -11 -2.66699 -11 -8
c0 -4.66699 4.16699 -8.83398 12.5 -12.501s20.5 -5.5 36.5 -5.5c35.333 0 66.666 15.167 93.999 45.5s52.833 71.333 76.5 123l68.5 152.5l-3 1c-22.667 -36.667 -47 -65.167 -73 -85.5s-57.667 -30.5 -95 -30.5c-40 0 -73.333 13 -100 39s-40 60 -40 102
c0 79.333 34.833 158 104.5 236s149.167 117 238.5 117c22.667 0 42.167 -5 58.5 -15s24.5 -27 24.5 -51l-1 -17l31 73h192z" />
    <glyph glyph-name="h" unicode="h" horiz-adv-x="633" 
d="M612 150c-30.667 -52.667 -59.002 -92.4971 -85.002 -119.497s-64 -40.5 -114 -40.5c-35.333 0 -62.166 10.667 -80.499 32s-27.5 48.666 -27.5 81.999c0 26 5.33301 52 16 78l39 76.5l52 99.5c18.667 35.333 28 62 28 80c0 7.33301 -1.5 12.666 -4.5 15.999
s-7.5 5 -13.5 5c-12 0 -23.667 -3.66699 -35 -11s-27 -22.833 -47 -46.5s-39 -57.167 -57 -100.5l-123 -301h-194l68 166l94.5 232.5l76 189.5c15 38 24.333 62.333 28 73s5.5 19.667 5.5 27c0 15.333 -11 23 -33 23l-44 2v16h295l-139 -334c26 30 47.833 52.333 65.5 67
s45.5 22 83.5 22c32.667 0 61.834 -10 87.501 -30s38.5 -50 38.5 -90c0 -22.667 -2.5 -40.667 -7.5 -54s-16.167 -38.333 -33.5 -75s-37.5 -76.667 -60.5 -120s-34.5 -70 -34.5 -80c0 -4.66699 1.5 -8.33398 4.5 -11.001s7.16699 -4 12.5 -4c18 0 36.833 11.833 56.5 35.5
s34.5 43.167 44.5 58.5s18.333 29.333 25 42z" />
    <glyph glyph-name="i" unicode="i" horiz-adv-x="368" 
d="M31 322c37.333 66.667 69.833 110.336 97.5 131.003s57.834 31 90.501 31c29.333 0 54.833 -9.83301 76.5 -29.5s32.5 -49.167 32.5 -88.5c0 -17.333 -4 -37 -12 -59s-19 -47.5 -33 -76.5s-33.333 -65.333 -58 -109s-37 -71.834 -37 -84.501c0 -6 1.5 -10.5 4.5 -13.5
s7.5 -4.5 13.5 -4.5c7.33301 0 17 4.16699 29 12.5s23.667 19.5 35 33.5s23.166 30.167 35.499 48.5s22.5 34.833 30.5 49.5l13 -7c-36 -58.667 -66.167 -101 -90.5 -127s-61.166 -39 -110.499 -39c-36 0 -63.333 10.5 -82 31.5s-28 47.5 -28 79.5
c0 21.333 3.16699 40.5 9.5 57.5s19.666 45.5 39.999 85.5l53.5 107c15.333 31.333 25.333 52.666 30 63.999s7 19.666 7 24.999c0 4.66699 -1.16699 8.16699 -3.5 10.5s-5.83301 3.5 -10.5 3.5s-12.5 -4.16699 -23.5 -12.5s-25.333 -23 -43 -44s-35.5 -48.167 -53.5 -81.5z
M235 646.002c0 27.333 9.33203 49.666 27.999 66.999s41 26 67 26c26.667 0 49.334 -8.66699 68.001 -26s28 -39.666 28 -66.999c0 -26.667 -9.5 -48.834 -28.5 -66.501s-41.5 -26.5 -67.5 -26.5c-26.667 0 -49.167 8.83301 -67.5 26.5s-27.5 39.834 -27.5 66.501z" />
    <glyph glyph-name="j" unicode="j" horiz-adv-x="347" 
d="M174 438c0 5.33301 -1.00195 9.33105 -3.00195 11.998s-5.33301 4 -10 4c-16.667 0 -33.667 -11.333 -51 -34s-31 -42.5 -41 -59.5l-31 -54.5l-14 6c32 59.333 61 102.833 87 130.5s61 41.5 105 41.5c29.333 0 54.833 -9.83301 76.5 -29.5s32.5 -49.5 32.5 -89.5
c0 -25.333 -8 -62.666 -24 -111.999s-43.167 -117.5 -81.5 -204.5s-88.666 -155.5 -150.999 -205.5s-138.166 -75 -227.499 -75c-42.667 0 -76.167 10.167 -100.5 30.5s-36.5 45.166 -36.5 74.499c0 24 8.16699 44.833 24.5 62.5s38.5 26.5 66.5 26.5
c23.333 0 43.166 -7.16699 59.499 -21.5s24.5 -32.833 24.5 -55.5c0 -17.333 -5.33301 -32.666 -16 -45.999s-22.167 -21.166 -34.5 -23.499s-21.833 -4.33301 -28.5 -6s-10 -4.83398 -10 -9.50098c0 -6 2.33301 -10.167 7 -12.5s12 -3.5 22 -3.5c30.667 0 59 14.333 85 43
s47.333 60 64 94s37.334 80.167 62.001 138.5l57.5 138l48.5 125c18.667 49.667 29.667 79.834 33 90.501s5 19 5 25zM230.998 645.998c0 27.333 9.33203 49.666 27.999 66.999s41 26 67 26c26.667 0 49.334 -8.66699 68.001 -26s28 -39.666 28 -66.999
c0 -26.667 -9.5 -48.834 -28.5 -66.501s-41.5 -26.5 -67.5 -26.5c-26.667 0 -49.167 8.83301 -67.5 26.5s-27.5 39.834 -27.5 66.501z" />
    <glyph glyph-name="k" unicode="k" horiz-adv-x="622" 
d="M262 253l-102.001 -252.997h-194l68 166l94.5 232.5l76 189.5c15 38 24.333 62.333 28 73s5.5 19.667 5.5 27c0 15.333 -11 23 -33 23l-44 2v16h295l-189 -463c35.333 4 62 17 80 39c17.333 30.667 33.166 57.167 47.499 79.5s35.833 44.5 64.5 66.5s59 33 91 33
c29.333 0 52.5 -7.5 69.5 -22.5s25.5 -35.167 25.5 -60.5c0 -26.667 -9 -49 -27 -67s-39.667 -27 -65 -27c-22.667 0 -41.667 7 -57 21s-23 32 -23 54c0 16 4.66699 31 14 45l31 33c-2.66699 1.33301 -5 2 -7 2c-17.333 0 -33.666 -12.333 -48.999 -37l-33 -62
c-12.667 -20.667 -24.667 -35.667 -36 -45s-31 -23 -59 -41c23.333 -1.33301 46.666 -6.5 69.999 -15.5s40.833 -19.667 52.5 -32s19 -24.333 22 -36s4.5 -23.834 4.5 -36.501c0 -16 -2.16699 -33 -6.5 -51l-13.5 -55c0 -6.66699 1.33301 -11.834 4 -15.501
s6.66699 -5.5 12 -5.5c14.667 0 30.667 10.333 48 31s30.333 37.167 39 49.5s18.334 27.5 29.001 45.5l12 -7c-31.333 -56.667 -62.166 -97.334 -92.499 -122.001s-70.833 -37 -121.5 -37c-32 0 -59.833 10 -83.5 30s-35.5 46.667 -35.5 80c0 10.667 5.33301 32.5 16 65.5
s16 52.167 16 57.5c0 14 -2.83301 22.5 -8.5 25.5s-17.5 4.5 -35.5 4.5z" />
    <glyph glyph-name="l" unicode="l" horiz-adv-x="349" 
d="M205 619c8 20 13.499 34.667 16.499 44s4.5 17.666 4.5 24.999c0 10.667 -5.5 17.5 -16.5 20.5s-31.167 4.5 -60.5 4.5v16h295l-83 -203.5l-118 -290c-46 -113 -70.167 -172.833 -72.5 -179.5s-3.5 -13.667 -3.5 -21c0 -6 1.33301 -10.333 4 -13s6 -4 10 -4
c18 0 36.167 11 54.5 33s34 42.667 47 62l35.5 55l14 -7c-36 -59.333 -67.167 -102.666 -93.5 -129.999s-60.166 -41 -101.499 -41c-36 0 -65.667 12 -89 36s-35 51.333 -35 82c0 15.333 1.66699 29.333 5 42s8.33301 27 15 43z" />
    <glyph glyph-name="m" unicode="m" horiz-adv-x="965" 
d="M958 157c-34.667 -54.667 -66.1631 -96.1699 -94.4961 -124.503s-67.833 -42.5 -118.5 -42.5c-34.667 0 -60.834 11 -78.501 33s-26.5 48 -26.5 78c0 22 2.66699 41 8 57s12.5 33.5 21.5 52.5s27.833 56.667 56.5 113s43 92.833 43 109.5
c0 7.33301 -1.5 12.666 -4.5 15.999s-7.83301 5 -14.5 5c-8 0 -17.667 -4.66699 -29 -14s-25.333 -25.166 -42 -47.499s-32.667 -49.333 -48 -81l-61 -129.5l-56 -121l-28 -61h-195l45.5 101.5l80 178l44.5 98.5c3.33301 7.33301 6.83301 16.333 10.5 27s5.5 20 5.5 28
c0 7.33301 -1.5 12.833 -4.5 16.5s-7.5 5.5 -13.5 5.5c-8.66699 0 -18.667 -4.66699 -30 -14s-22.833 -21.666 -34.5 -36.999s-23.167 -32.333 -34.5 -51s-20.666 -36 -27.999 -52l-147 -301h-195l173 380l9.5 23.5c5 12.333 7.5 23.166 7.5 32.499
c0 6.66699 -1.33301 11.5 -4 14.5s-6.66699 4.5 -12 4.5c-6.66699 0 -16.167 -4.33301 -28.5 -13s-24.666 -20 -36.999 -34s-24.5 -30 -36.5 -48s-25 -39.667 -39 -65l-12 6c35.333 70.667 69.166 118.834 101.499 144.501s65.833 38.5 100.5 38.5
c31.333 0 57.666 -11 78.999 -33s32 -48.667 32 -80c0 -14.667 -0.666992 -27 -2 -37s-3.33301 -19.667 -6 -29l3 -1c37.333 73.333 70.166 121.666 98.499 144.999s59.5 35 93.5 35c34.667 0 63.167 -9.5 85.5 -28.5s33.5 -44.167 33.5 -75.5
c0 -14.667 -1.66699 -28 -5 -40c-5.33301 -14 -9 -24 -11 -30c34 62.667 63.167 107.334 87.5 134.001s61.166 40 110.499 40c32.667 0 59.667 -9.66699 81 -29s32 -49.333 32 -90c0 -22.667 -3.5 -42.667 -10.5 -60s-18 -41.666 -33 -72.999s-34.333 -69.333 -58 -114
s-35.5 -72 -35.5 -82c0 -6 1.33301 -10.667 4 -14s6.33398 -5 11.001 -5c19.333 0 39.666 11.833 60.999 35.5s37.666 43.834 48.999 60.501s22.333 33.667 33 51z" />
    <glyph glyph-name="n" unicode="n" horiz-adv-x="672" 
d="M517 484c31.333 0 58.166 -9.83301 80.499 -29.5s33.5 -49.167 33.5 -88.5c0 -18 -3.66699 -37.167 -11 -57.5s-16.333 -42.166 -27 -65.499s-29.667 -61.333 -57 -114s-41 -83.667 -41 -93c0 -5.33301 1.33301 -9.33301 4 -12s6.66699 -4 12 -4
c6.66699 0 15.667 4 27 12s26.833 23 46.5 45s40.5 55 62.5 99l13 -7c-30.667 -54.667 -60.167 -98.167 -88.5 -130.5s-68.166 -48.5 -119.499 -48.5c-35.333 0 -62 10.667 -80 32s-27 47.666 -27 78.999c0 21.333 2.33301 38.666 7 51.999s18.834 44 42.501 92l58.5 118
c15.333 30.667 23 54.667 23 72c0 6.66699 -1.33301 11.5 -4 14.5s-7 4.5 -13 4.5c-8 0 -18.167 -5 -30.5 -15s-26.833 -26 -43.5 -48s-34 -52 -52 -90l-145 -301h-195l170 380l14 33.5c5.33301 12.333 8 21.166 8 26.499c0 4.66699 -1 8 -3 10s-5 3 -9 3
c-9.33301 0 -20 -4.16699 -32 -12.5s-23.833 -19.166 -35.5 -32.499s-24.334 -30.166 -38.001 -50.499s-27.167 -41.5 -40.5 -63.5l-13 6c32 56 63.5 100.667 94.5 134s69.167 50 114.5 50c32 0 57.167 -9.83301 75.5 -29.5s27.5 -47.167 27.5 -82.5
c0 -16 -1.5 -30.5 -4.5 -43.5l-7.5 -31.5c30 60 58.833 106.167 86.5 138.5s66.5 48.5 116.5 48.5z" />
    <glyph glyph-name="o" unicode="o" horiz-adv-x="553" 
d="M536 286c0 -75.333 -32.1641 -143.5 -96.4971 -204.5s-142.833 -91.5 -235.5 -91.5c-28 0 -53.333 5.33301 -76 16s-46.834 29.667 -72.501 57s-38.5 69 -38.5 125c0 74 31.833 141.833 95.5 203.5s142.5 92.5 236.5 92.5c29.333 0 54.666 -5.16699 75.999 -15.5
s41.666 -25.833 60.999 -46.5s32.5 -42.5 39.5 -65.5s10.5 -46.5 10.5 -70.5zM398.003 433c0 10.667 -2.5 18.9961 -7.5 24.9961s-13.167 9 -24.5 9c-12 0 -25 -8.16699 -39 -24.5s-34.167 -50.666 -60.5 -102.999s-51.5 -108.666 -75.5 -168.999s-36 -102.833 -36 -127.5
c0 -12.667 2.66699 -22.167 8 -28.5s13.333 -9.5 24 -9.5c11.333 0 23.333 7.33301 36 22s31.167 45.334 55.5 92.001s50.333 103.834 78 171.501s41.5 115.167 41.5 142.5z" />
    <glyph glyph-name="p" unicode="p" horiz-adv-x="631" 
d="M619 317c0 -73.333 -29.168 -146.167 -87.501 -218.5s-128.833 -108.5 -211.5 -108.5c-30 0 -54.333 6 -73 18s-28 35.333 -28 70l-49.5 -116.5c-17 -41 -28.167 -68.5 -33.5 -82.5l-15.5 -42c-5 -14 -7.5 -23.667 -7.5 -29c0 -10.667 5.16699 -17.167 15.5 -19.5
s33.833 -3.5 70.5 -3.5v-16h-383v16c4 0 9.33301 0.333008 16 1s17.167 2 31.5 4s27.166 7.83301 38.499 17.5s27.666 39.167 48.999 88.5l204 484c4.66699 10.667 8.33398 20.5 11.001 29.5s4 16.833 4 23.5c0 6 -1 10.5 -3 13.5s-5.33301 4.5 -10 4.5
c-8.66699 0 -18.167 -4 -28.5 -12s-21.833 -19.5 -34.5 -34.5s-26.167 -33.333 -40.5 -55s-26.166 -42.167 -35.499 -61.5l-13 6c25.333 52.667 54.333 97.5 87 134.5s70.667 55.5 114 55.5c34.667 0 61.5 -10.5 80.5 -31.5s28.5 -50.833 28.5 -89.5l-2 -25
c26 48.667 49.5 85.167 70.5 109.5s51.5 36.5 91.5 36.5c38.667 0 72.334 -14.833 101.001 -44.5s43 -70.5 43 -122.5zM455.999 423.999c0 12 -1.83301 20.8311 -5.5 26.498s-9.16699 8.5 -16.5 8.5c-15.333 0 -32.333 -11.333 -51 -34s-36.667 -52.5 -54 -89.5
s-37.5 -85.667 -60.5 -146s-34.5 -102.5 -34.5 -126.5c0 -13.333 2.5 -23.5 7.5 -30.5s12.5 -10.5 22.5 -10.5c16 0 30.167 10.167 42.5 30.5s28.5 49.833 48.5 88.5s41.833 89.334 65.5 152.001s35.5 106.334 35.5 131.001z" />
    <glyph glyph-name="q" unicode="q" horiz-adv-x="617" 
d="M427 434c0 11.333 -2.49902 19.6641 -7.49902 24.9971s-12.5 8 -22.5 8c-12.667 0 -26.334 -9.5 -41.001 -28.5s-35 -53.833 -61 -104.5s-52 -107.167 -78 -169.5s-39 -104.166 -39 -125.499c0 -8 1.66699 -14.167 5 -18.5s8.33301 -6.5 15 -6.5
c20 0 39.667 10.333 59 31s39 50.834 59 90.501s43.5 93.334 70.5 161.001s40.5 113.5 40.5 137.5zM654.001 473.998l-246 -594.999c-15.333 -36.667 -23 -60.667 -23 -72c0 -9.33301 4.83301 -15.333 14.5 -18s30.167 -4 61.5 -4v-16h-384v16
c6.66699 0 13.167 0.166992 19.5 0.5s18 1.66602 35 3.99902s31.5 8.66602 43.5 18.999s27.667 39.5 47 87.5l65 160c-22 -23.333 -41 -40.166 -57 -50.499s-38 -15.5 -66 -15.5c-42 0 -77.167 14.167 -105.5 42.5s-42.5 66.5 -42.5 114.5c0 80.667 33.667 157 101 229
s153 108 257 108c36 0 66.833 -6.33301 92.5 -19s46.167 -35.667 61.5 -69l116 82z" />
    <glyph glyph-name="r" unicode="r" horiz-adv-x="553" 
d="M590 392c0 -29.333 -8.99805 -54.3359 -26.998 -75.0029s-40.667 -31 -68 -31c-24 0 -44.833 6.83301 -62.5 20.5s-26.5 32.834 -26.5 57.501c0 12 2.83301 23 8.5 33l18.5 32c0 6 -3.33301 9 -10 9c-10 0 -23.5 -12.833 -40.5 -38.5s-34.833 -58.5 -53.5 -98.5
l-145 -301h-195l172 380c3.33301 6.66699 6.33301 14.5 9 23.5s4 17.167 4 24.5c0 6 -1 10.333 -3 13s-5.33301 4 -10 4c-8 0 -17.333 -4.33301 -28 -13s-20.834 -19.167 -30.501 -31.5s-21.834 -30.166 -36.501 -53.499s-26.334 -43.333 -35.001 -60l-13 5
c42 80.667 78.333 132.834 109 156.501s65 35.5 103 35.5c32 0 55.833 -10 71.5 -30s23.5 -47.333 23.5 -82c0 -13.333 -1.66699 -26.666 -5 -39.999s-6.33301 -23.333 -9 -30l3 -1c30.667 63.333 57.834 109.666 81.501 138.999s57.167 44 100.5 44
c31.333 0 54.833 -9.66699 70.5 -29s23.5 -40.333 23.5 -63z" />
    <glyph glyph-name="s" unicode="s" horiz-adv-x="450" 
d="M310 484c42 0 77.834 -10.5049 107.501 -31.5049s44.5 -47.167 44.5 -78.5c0 -23.333 -7.16699 -43.166 -21.5 -59.499s-32.5 -24.5 -54.5 -24.5c-19.333 0 -37.333 7.66699 -54 23s-25 33.666 -25 54.999c0 12 3.16699 22.833 9.5 32.5s13.333 16.5 21 20.5
s17.334 7.16699 29.001 9.5s17.5 6.83301 17.5 13.5c0 6 -5.5 11.667 -16.5 17s-26.167 8 -45.5 8c-26.667 0 -48.667 -6.5 -66 -19.5s-26 -29.833 -26 -50.5c0 -16 3 -28.667 9 -38s16.667 -21 32 -35l80 -70c18 -16.667 31.333 -33.667 40 -51s13 -37.333 13 -60
c0 -49.333 -23 -87.666 -69 -114.999s-97 -41 -153 -41c-50 0 -95.167 12.833 -135.5 38.5s-60.5 59.167 -60.5 100.5c0 22 7.5 40.833 22.5 56.5s34.167 23.5 57.5 23.5c19.333 0 37.333 -8 54 -24s25 -34.667 25 -56c0 -15.333 -4.33301 -28.666 -13 -39.999
s-18.334 -18.166 -29.001 -20.499s-19.5 -4.33301 -26.5 -6s-10.5 -5.5 -10.5 -11.5c0 -9.33301 9.16699 -19.166 27.5 -29.499s40.166 -15.5 65.499 -15.5c22.667 0 42.334 6.33301 59.001 19s25 29 25 49c0 17.333 -3 30.666 -9 39.999s-15.167 19.5 -27.5 30.5l-46 40.5
c-18.333 16 -32.333 29.833 -42 41.5s-17.167 23.334 -22.5 35.001s-8 26.834 -8 45.501c0 44.667 20.167 85.5 60.5 122.5s94.166 55.5 161.499 55.5z" />
    <glyph glyph-name="t" unicode="t" horiz-adv-x="361" 
d="M458 474l-13.0049 -32.002h-112l-151 -365c-4.66699 -11.333 -7.66699 -19.666 -9 -24.999s-2 -10.666 -2 -15.999c0 -6 1.33301 -10.5 4 -13.5s6.33398 -4.5 11.001 -4.5c8.66699 0 18.834 3.83301 30.501 11.5s23.834 18 36.501 31s25.834 29.167 39.501 48.5
s24.834 37.333 33.501 54l13 -7c-32.667 -54.667 -64.167 -96 -94.5 -124s-67.833 -42 -112.5 -42c-38.667 0 -67.667 11.5 -87 34.5s-29 50.5 -29 82.5c0 14.667 1.66699 27.5 5 38.5s9 26.833 17 47.5l104 249h-86l13 32h86l80 193h193l-81 -193h111z" />
    <glyph glyph-name="u" unicode="u" horiz-adv-x="672" 
d="M154 -10c-31.333 0 -58.1689 9.66797 -80.502 29.001s-33.5 48.666 -33.5 87.999c0 18 4 38 12 60s18.833 47.667 32.5 77s32.5 66.5 56.5 111.5s36 71.833 36 80.5c0 6 -1.16699 10.333 -3.5 13s-6.16602 4 -11.499 4c-6.66699 0 -15.5 -4 -26.5 -12s-22 -18 -33 -30
s-23.667 -28.667 -38 -50s-26.833 -42 -37.5 -62l-13 6c32.667 56.667 62.834 100.667 90.501 132s66.167 47 115.5 47c34.667 0 61 -10.833 79 -32.5s27 -47.834 27 -78.501c0 -26.667 -5.33301 -52.667 -16 -78l-29.5 -63c-9.66699 -21.333 -26.5 -54.333 -50.5 -99
s-36 -75.667 -36 -93c0 -6.66699 1.5 -11.667 4.5 -15s7.16699 -5 12.5 -5c16 0 33 11.167 51 33.5s33 43 45 62s22.667 38.167 32 57.5l145 301h195l-170 -380l-12 -31c-4.66699 -12 -7 -20.667 -7 -26c0 -4.66699 1 -8.16699 3 -10.5s5 -3.5 9 -3.5
c19.333 0 37.166 9.33301 53.499 28s31.833 38.834 46.5 60.501s30.334 47.167 47.001 76.5l12 -7c-36.667 -62 -69.334 -109.333 -98.001 -142s-66.667 -49 -114 -49c-32 0 -57.167 9.83301 -75.5 29.5s-27.5 47.167 -27.5 82.5c0 14.667 1.66699 29 5 43s6 24.667 8 32
c-36.667 -63.333 -68.167 -110.333 -94.5 -141s-63.166 -46 -110.499 -46z" />
    <glyph glyph-name="v" unicode="v" horiz-adv-x="530" 
d="M203 -10c-44.667 0 -83 10.668 -115 32.001s-48 52.666 -48 93.999c0 18 3.16699 35.333 9.5 52s16.666 39.834 30.999 69.501s34 67.667 59 114s37.5 74.5 37.5 84.5c0 6 -1.33301 10.333 -4 13s-6.66699 4 -12 4c-8 0 -18 -4.33301 -30 -13s-26.5 -23 -43.5 -43
s-36.167 -49.667 -57.5 -89l-14 6c30 51.333 59.5 92.5 88.5 123.5s67.5 46.5 115.5 46.5c38 0 65.167 -10.5 81.5 -31.5s24.5 -47.5 24.5 -79.5c0 -23.333 -2.66699 -42.333 -8 -57s-15.666 -38 -30.999 -70c-18.667 -33.333 -36.5 -67.5 -53.5 -102.5
s-25.5 -61.833 -25.5 -80.5c0 -14.667 3 -25.667 9 -33s16.667 -11 32 -11c45.333 0 94 26.667 146 80s78 100.333 78 141c0 22.667 -17.833 47 -53.5 73s-53.5 56 -53.5 90c0 23.333 8 42.666 24 57.999s34.667 23 56 23c30.667 0 53.167 -9.33301 67.5 -28
s21.5 -44 21.5 -76c0 -86 -32.667 -172.5 -98 -259.5s-143.333 -130.5 -234 -130.5z" />
    <glyph glyph-name="w" unicode="w" horiz-adv-x="849" 
d="M154 -10c-31.333 0 -58.1631 9.66309 -80.4961 28.9961s-33.5 48.666 -33.5 87.999c0 18 4.33301 38.833 13 62.5s18.167 46.167 28.5 67.5l55.5 109.5c26.667 51.667 40 81.5 40 89.5c0 6 -1.33301 10.333 -4 13s-6.66699 4 -12 4c-8 0 -19.333 -6.16699 -34 -18.5
s-27 -24.166 -37 -35.499s-20 -25.166 -30 -41.499s-21.333 -35.833 -34 -58.5l-13 6c30 53.333 59.833 96.5 89.5 129.5s68.834 49.5 117.501 49.5c35.333 0 61.833 -10.667 79.5 -32s26.5 -47.666 26.5 -78.999c0 -23.333 -2.33301 -41.666 -7 -54.999
s-15.334 -37.333 -32.001 -72l-76 -153c-4.66699 -9.33301 -8.66699 -18.666 -12 -27.999s-5 -18 -5 -26c0 -6.66699 1.66699 -11.667 5 -15s8 -5 14 -5c16 0 35.667 14.833 59 44.5s45.666 66.167 66.999 109.5l141 301h195l-107 -228c-22 -47.333 -39 -85.833 -51 -115.5
s-18 -53.5 -18 -71.5c0 -15.333 4.16699 -25.666 12.5 -30.999s20.166 -8 35.499 -8c45.333 0 96.666 27.333 153.999 82s86 103 86 145c0 21.333 -16.667 43.333 -50 66s-50 52 -50 88c0 24.667 8.33301 44.667 25 60s35.667 23 57 23c28.667 0 50.167 -8.83301 64.5 -26.5
s21.5 -41.834 21.5 -72.501c0 -83.333 -37.167 -170 -111.5 -260s-156.5 -135 -246.5 -135c-46.667 0 -85.667 11.333 -117 34s-47 57.667 -47 105c-25.333 -46 -50.833 -80.667 -76.5 -104s-59.834 -35 -102.501 -35z" />
    <glyph glyph-name="x" unicode="x" horiz-adv-x="668" 
d="M710 400c0 -22 -8.00293 -40.9961 -24.0029 -56.9961s-34.667 -24 -56 -24c-17.333 0 -32 5.66699 -44 17s-18 25.666 -18 42.999c0 14.667 3.33301 26.834 10 36.501s13.834 16.167 21.501 19.5l22 9.5c7 3 10.5 7.16699 10.5 12.5s-1.33301 9.16602 -4 11.499
s-7 3.5 -13 3.5c-21.333 0 -44.333 -13.833 -69 -41.5s-47.334 -60.834 -68.001 -99.501s-41.667 -85.334 -63 -140.001s-32 -95.334 -32 -122.001c0 -15.333 3.66699 -27 11 -35s18 -12 32 -12c21.333 0 41.666 4.5 60.999 13.5s38.333 22.167 57 39.5s36 37.333 52 60
s31.667 47.334 47 74.001l15 -6c-35.333 -66.667 -76.166 -118.834 -122.499 -156.501s-100.166 -56.5 -161.499 -56.5c-43.333 0 -79.5 11.5 -108.5 34.5s-43.5 52.5 -43.5 88.5c-21.333 -31.333 -47.333 -59.666 -78 -84.999s-60.667 -38 -90 -38
s-52.666 7.66699 -69.999 23s-26 37 -26 65c0 22 7.83301 41.5 23.5 58.5s34.5 25.5 56.5 25.5c20 0 36.167 -5.83301 48.5 -17.5s18.5 -27.5 18.5 -47.5c0 -16 -4.5 -28.833 -13.5 -38.5s-18 -16.167 -27 -19.5s-17.167 -6.5 -24.5 -9.5s-11 -7.16699 -11 -12.5
c0 -4.66699 1.66699 -8.33398 5 -11.001s8 -4 14 -4c33.333 0 60.166 15 80.499 45s40.333 62.667 60 98s40.334 80.5 62.001 135.5s32.5 94.5 32.5 118.5c0 16.667 -3.66699 29.667 -11 39s-18.666 14 -33.999 14c-21.333 0 -42.166 -5.83301 -62.499 -17.5
s-38.666 -26 -54.999 -43s-30.333 -33.5 -42 -49.5s-23.834 -34.667 -36.501 -56l-14 7c33.333 61.333 71.666 108.5 114.999 141.5s94.333 49.5 153 49.5c44 0 79 -9.5 105 -28.5s43 -47.833 51 -86.5c24 32 50 59.167 78 81.5s57.667 33.5 89 33.5
c29.333 0 51.833 -7.5 67.5 -22.5s23.5 -35.5 23.5 -61.5z" />
    <glyph glyph-name="y" unicode="y" horiz-adv-x="635" 
d="M97 -232c-42 0 -76.998 11.3359 -104.998 34.0029s-42 49.334 -42 80.001c0 24 9 45.333 27 64s42.333 28 73 28c25.333 0 47.166 -8.16699 65.499 -24.5s27.5 -36.5 27.5 -60.5c0 -36 -17.333 -59 -52 -69c-17.333 -2.66699 -29.666 -4.5 -36.999 -5.5
s-11 -5.16699 -11 -12.5c0 -6 3.5 -10.5 10.5 -13.5s17.5 -4.5 31.5 -4.5c34.667 0 66.334 15.333 95.001 46s53.167 66 73.5 106s47.166 98.667 80.499 176l-3 1c-25.333 -39.333 -51.833 -69.5 -79.5 -90.5s-60.834 -31.5 -99.501 -31.5
c-30.667 0 -57.334 9.5 -80.001 28.5s-34 48.167 -34 87.5c0 18 4.33301 38.667 13 62s18.5 46.666 29.5 69.999s29.833 59.666 56.5 108.999s40 78.666 40 87.999c0 5.33301 -1.33301 9.33301 -4 12s-6.66699 4 -12 4c-16.667 0 -34.167 -11.333 -52.5 -34
s-34.5 -44.834 -48.5 -66.501l-33 -52.5l-13 6c37.333 61.333 69 106.5 95 135.5s63 43.5 111 43.5c34.667 0 61 -10.833 79 -32.5s27 -47.834 27 -78.501c0 -23.333 -2.66699 -42.333 -8 -57s-14.666 -36 -27.999 -64s-32.833 -66.5 -58.5 -115.5
s-38.5 -81.167 -38.5 -96.5c0 -6.66699 1.5 -11.667 4.5 -15s7.5 -5 13.5 -5c7.33301 0 16 3 26 9s20.833 14.833 32.5 26.5s24.167 27 37.5 46s27.166 43.333 41.499 73s35.166 75.834 62.499 138.501s43.833 101.5 49.5 116.5l17.5 44.5h195l-40.5 -100l-54.5 -133
c-18.667 -44.667 -47.167 -109.5 -85.5 -194.5s-90.166 -152.667 -155.499 -203s-145.333 -75.5 -240 -75.5z" />
    <glyph glyph-name="z" unicode="z" horiz-adv-x="538" 
d="M398 283l-1 5.00195c-3.33301 -1.33301 -11 -2.66602 -23 -3.99902s-20 -2 -24 -2c-27.333 0 -60.666 7.66699 -99.999 23s-71 23 -95 23c-30.667 0 -52.167 -7.16699 -64.5 -21.5s-21.166 -34.833 -26.499 -61.5h-11c0 66.667 17.5 123.167 52.5 169.5
s85.833 69.5 152.5 69.5c42 0 88 -18.333 138 -55s86.667 -55 110 -55c10.667 0 20.5 3.33301 29.5 10s13.5 15.334 13.5 26.001c0 3.33301 -0.333008 5.66602 -1 6.99902s-2 2.33301 -4 3c-2 0 -6.33301 -1 -13 -3s-13.334 -3 -20.001 -3c-8 0 -15.5 3.5 -22.5 10.5
s-10.5 15.167 -10.5 24.5c0 10.667 4.16699 19.167 12.5 25.5s17.166 9.5 26.499 9.5c16 0 27.667 -5 35 -15s11 -23.333 11 -40c0 -26 -11.333 -51.167 -34 -75.5s-50.667 -42.833 -84 -55.5c-14.667 -8.66699 -35 -17.834 -61 -27.501s-48.667 -16.834 -68 -21.501
l-97 -22c-14.667 -3.33301 -31 -6.83301 -49 -10.5s-35 -8.83398 -51 -15.501l2 -5c6 2.66699 15.167 5 27.5 7s22.833 3 31.5 3c18.667 0 51.334 -7.5 98.001 -22.5s80.667 -22.5 102 -22.5c36.667 0 65.167 7 85.5 21s34.5 38.667 42.5 74h11
c0 -72.667 -19.833 -135.167 -59.5 -187.5s-94.834 -78.5 -165.501 -78.5c-32.667 0 -77.5 21.167 -134.5 63.5s-94.167 63.5 -111.5 63.5s-31.666 -4.5 -42.999 -13.5s-17 -22.833 -17 -41.5c0 -8.66699 2 -16.5 6 -23.5s9.33301 -10.5 16 -10.5c13.333 27.333 28 41 44 41
c13.333 0 22.666 -3.83301 27.999 -11.5s8 -15.834 8 -24.501c0 -14 -5 -24.667 -15 -32s-21.333 -11 -34 -11c-18 0 -33.167 6.5 -45.5 19.5s-18.5 31.167 -18.5 54.5c0 26 9.83301 50.833 29.5 74.5s44.167 40.834 73.5 51.501c12.667 8 34.667 18 66 30s58.333 21 81 27
s44.667 10.667 66 14s39.833 6.5 55.5 9.5s32.167 7.16699 49.5 12.5z" />
    <glyph glyph-name="braceleft" unicode="{" horiz-adv-x="401" 
d="M574 711c-50 0 -88.999 -7.66699 -116.999 -23s-48 -39.5 -60 -72.5s-21.667 -63.667 -29 -92s-18.333 -61.333 -33 -99s-40 -67 -76 -88s-76.333 -33.5 -121 -37.5v-6c25.333 -2.66699 47.166 -12.334 65.499 -29.001s27.5 -40.334 27.5 -71.001
c0 -23.333 -17.167 -68.833 -51.5 -136.5s-51.5 -118.167 -51.5 -151.5c0 -29.333 8 -50.666 24 -63.999s42.667 -20 80 -20v-18c-58.667 0 -108.667 9.33301 -150 28s-62 56.667 -62 114c0 42.667 24.333 94.334 73 155.001s73 104.667 73 132c0 18 -7.66699 32 -23 42
s-42.333 15 -81 15v18c84 0 135.5 16.167 154.5 48.5s28.5 72.833 28.5 121.5c0 46.667 4.83301 82.5 14.5 107.5s25.334 49.167 47.001 72.5s50.667 41.5 87 54.5s80.166 19.5 131.499 19.5l49 -2v-18z" />
    <glyph glyph-name="bar" unicode="|" horiz-adv-x="445" 
d="M231 754h77v-1000h-77v1000z" />
    <glyph glyph-name="braceright" unicode="}" horiz-adv-x="401" 
d="M409 587c0 -42.667 -24.334 -94.334 -73.001 -155.001s-73 -104.667 -73 -132c0 -18 7.66699 -32 23 -42s42.333 -15 81 -15v-18c-76 0 -125.5 -14.167 -148.5 -42.5s-34.5 -63.5 -34.5 -105.5v-22c0 -46.667 -4.83301 -82.5 -14.5 -107.5s-25.334 -49.167 -47.001 -72.5
s-50.667 -41.5 -87 -54.5s-80.166 -19.5 -131.499 -19.5l-49 2v18c50 0 89 7.66699 117 23s52 50.333 72 105l39 132c22 55.333 51 93.5 87 114.5s76.333 33.5 121 37.5v6c-25.333 2.66699 -47.166 12.334 -65.499 29.001s-27.5 40.334 -27.5 71.001
c0 23.333 17.167 68.833 51.5 136.5s51.5 118.167 51.5 151.5c0 29.333 -8 50.666 -24 63.999s-42.667 20 -80 20v18c58.667 0 108.667 -9.33301 150 -28s62 -56.667 62 -114z" />
    <glyph glyph-name="asciitilde" unicode="~" horiz-adv-x="833" 
d="M759 442c0 -61.333 -14.1699 -112.5 -42.5029 -153.5s-69.166 -61.5 -122.499 -61.5c-20 0 -38.167 3 -54.5 9s-33.5 15.333 -51.5 28l-79 57c-12.667 10 -25 17.667 -37 23s-24.667 8 -38 8c-28 0 -50 -13.167 -66 -39.5s-24 -58.833 -24 -97.5h-71
c0 56.667 14.333 106.5 43 149.5s69.334 64.5 122.001 64.5c18 0 36 -3.33301 54 -10s32.167 -13.5 42.5 -20.5l48.5 -34.5c22 -16 37.5 -27 46.5 -33s19.667 -12 32 -18s24.5 -9 36.5 -9c28.667 0 50.834 13 66.501 39s23.5 59 23.5 99h71z" />
    <glyph glyph-name="nonbreakingspace" unicode="&#xa0;" horiz-adv-x="240" 
 />
    <glyph glyph-name="exclamdown" unicode="&#xa1;" horiz-adv-x="468" 
d="M160 259c48.667 48 84.667 85.666 108 112.999s49.333 72 78 134l14 -5c-12 -34 -20.833 -67.667 -26.5 -101s-8.5 -62.333 -8.5 -87l3 -138c0 -50.667 -17 -94.5 -51 -131.5s-69 -55.5 -105 -55.5c-22.667 0 -41.5 12.167 -56.5 36.5s-22.5 53.5 -22.5 87.5
c0 28 6.33301 54.333 19 79s28.667 47.334 48 68.001zM504 642.999c0 -26.667 -9.66699 -49.332 -29 -67.999s-42.666 -28 -69.999 -28s-50.833 9.16699 -70.5 27.5s-29.5 41.166 -29.5 68.499s9.66699 50.333 29 69s43 28 71 28c27.333 0 50.666 -9.33301 69.999 -28
s29 -41.667 29 -69z" />
    <glyph glyph-name="cent" unicode="&#xa2;" horiz-adv-x="510" 
d="M385 315l-117.001 -288.998c8.66699 -2.66699 19 -4 31 -4c38 0 71.833 12.5 101.5 37.5s56.167 55.5 79.5 91.5l14 -10c-33.333 -47.333 -66.166 -84.333 -98.499 -111s-79.833 -40 -142.5 -40l-66 -165l-20 8l63 158c-49.333 0 -95 15.833 -137 47.5
s-63 77.167 -63 136.5c0 77.333 35.333 148.166 106 212.499s155.667 96.5 255 96.5l37 -2l59 146l21 -6l-58 -143c35.333 -7.33301 59.833 -20.5 73.5 -39.5s20.5 -38.5 20.5 -58.5c0 -28.667 -8.5 -51.834 -25.5 -69.501s-38.833 -26.5 -65.5 -26.5
c-14 0 -26.833 2.5 -38.5 7.5s-21.5 12.5 -29.5 22.5zM248.999 38.002l122.001 302l-2 18c0 14 8 32.833 24 56.5s24 37.5 24 41.5c-0.666992 7.33301 -8.33398 11 -23.001 11c-33.333 0 -65 -28 -95 -84s-50 -103.5 -60 -142.5s-15 -77.167 -15 -114.5
c0 -22 2.16699 -40.167 6.5 -54.5s10.5 -25.5 18.5 -33.5z" />
    <glyph glyph-name="sterling" unicode="&#xa3;" horiz-adv-x="770" 
d="M43 167c-24 0 -45.5 -8.16699 -64.5 -24.5s-28.5 -36.833 -28.5 -61.5c0 -20 8.16699 -36.167 24.5 -48.5s36.166 -18.5 59.499 -18.5c35.333 0 67 6.33301 95 19s55.333 30.667 82 54c-25.333 22.667 -51.666 41.667 -78.999 57s-57 23 -89 23zM834 598
c0 -27.333 -9.66406 -51.334 -28.9971 -72.001s-42.333 -31 -69 -31c-29.333 0 -53.833 8.33301 -73.5 25s-29.5 40 -29.5 70c0 19.333 4.5 36 13.5 50s18.333 23.5 28 28.5s21.167 9.33301 34.5 13s20 8.5 20 14.5c0 6.66699 -3.5 12.334 -10.5 17.001s-19.833 7 -38.5 7
c-36 0 -66 -12 -90 -36s-36 -59 -36 -105c0 -10 1 -26.333 3 -49s3 -41.334 3 -56.001c0 -13.333 -0.333008 -24.833 -1 -34.5s-3 -21.5 -7 -35.5h157l-11 -28h-156c-16.667 -41.333 -39.834 -73.666 -69.501 -96.999l-72.5 -56c22 -3.33301 49.333 -6.66602 82 -9.99902
s59.334 -5 80.001 -5c70.667 0 119 10.333 145 31s46.333 49.667 61 87h13c-16 -108 -51.333 -191.333 -106 -250s-129.667 -88 -225 -88c-49.333 0 -88.833 7 -118.5 21s-61.834 33.667 -96.501 59c-32.667 -22.667 -65.834 -40.334 -99.501 -53.001
s-66.834 -19 -99.501 -19c-28.667 0 -53.167 7.83301 -73.5 23.5s-30.5 36.167 -30.5 61.5c0 50 31.5 89.5 94.5 118.5s128.167 43.5 195.5 43.5c31.333 0 65 -2.66699 101 -8c0 18 -7 41.5 -21 70.5s-22 52.5 -24 70.5h-149l11 28h134c0 48.667 8.66699 93 26 133
s53.5 83.833 108.5 131.5s132.833 71.5 233.5 71.5c56 0 102 -12 138 -36s54 -59.333 54 -106z" />
    <glyph glyph-name="currency" unicode="&#xa4;" horiz-adv-x="882" 
d="M650 301c0 -23.333 -3.50195 -45.001 -10.502 -65.001s-17.5 -40 -31.5 -60l38 -40l-45 -44l-39 38c-38 -30 -83.333 -45 -136 -45c-22.667 0 -44.5 3.83301 -65.5 11.5s-41.167 18.834 -60.5 33.501l-40 -38l-46 44l39 40c-14 21.333 -24.5 42.166 -31.5 62.499
s-10.5 42.5 -10.5 66.5c0 48 14 92.667 42 134l-39 36l46 49l40 -40c18.667 14.667 39.334 25.334 62.001 32.001s46.667 10 72 10c48.667 0 91.334 -14 128.001 -42l39 40l45 -49l-38 -36c28 -42 42 -88 42 -138zM555.998 304.999c0 34.667 -12.167 65.167 -36.5 91.5
s-53.5 39.5 -87.5 39.5c-36 0 -66.667 -12.667 -92 -38s-38 -56.333 -38 -93c0 -33.333 12.667 -62.333 38 -87s55 -37 89 -37c36 0 66.167 11.833 90.5 35.5s36.5 53.167 36.5 88.5z" />
    <glyph glyph-name="yen" unicode="&#xa5;" horiz-adv-x="736" 
d="M255 421c-13.333 48 -26.502 92.333 -39.502 133l-27.5 87c-8 22 -16 38 -24 48s-18 16.167 -30 18.5s-22.667 3.66602 -32 3.99902s-18 0.833008 -26 1.5v16h467v-16c-40.667 0 -68.667 -3.66699 -84 -11s-23 -20.666 -23 -39.999c0 -14 4 -37 12 -69l30.5 -118
l38.5 -139l55.5 70.5l89.5 115c38 49 60.5 78.333 67.5 88s13 20.667 18 33s7.5 22.5 7.5 30.5c0 14 -6.5 24.167 -19.5 30.5s-37.167 9.5 -72.5 9.5v16h275v-16c-8 -1.33301 -16.167 -2.33301 -24.5 -3s-21.333 -3 -39 -7s-33.167 -11.167 -46.5 -21.5
s-29.666 -26.333 -48.999 -48s-44.833 -52.667 -76.5 -93l-94.5 -119.5h152l-11 -28h-163l-68 -86l-7 -16h183l-11 -28h-183l-55 -138c-16.667 -41.333 -25 -68.333 -25 -81c0 -10 5.66699 -17.167 17 -21.5s38.666 -6.5 81.999 -6.5v-16h-475v16l55 4
c24.667 2.66699 42.834 10.5 54.501 23.5s26.834 40.833 45.501 83.5l56 136h-208l11 28h208l16 39l-18 63h-151l11 28h131z" />
    <glyph glyph-name="brokenbar" unicode="&#xa6;" horiz-adv-x="445" 
d="M262 280h-78l-1 494h79v-494zM262 -306h-79l1 486h78v-486z" />
    <glyph glyph-name="section" unicode="&#xa7;" horiz-adv-x="598" 
d="M303 413c-22.667 26.667 -39.502 51.332 -50.502 73.999s-16.5 45.667 -16.5 69c0 47.333 20.833 89.833 62.5 127.5s95.834 56.5 162.501 56.5c54 0 97.833 -12.167 131.5 -36.5s50.5 -55.5 50.5 -93.5c0 -25.333 -8.66699 -46.666 -26 -63.999s-38.666 -26 -63.999 -26
c-20 0 -39.333 6.66699 -58 20s-28 32 -28 56c0 21.333 7 40.333 21 57s31 25 51 25c11.333 0 17 4 17 12c0 7.33301 -7.16699 14.5 -21.5 21.5s-33.166 10.5 -56.499 10.5c-28.667 0 -53.167 -8.83301 -73.5 -26.5s-30.5 -39.834 -30.5 -66.501
c0 -16 3.66699 -31.5 11 -46.5s15.333 -28 24 -39s28.5 -33 59.5 -66s52.167 -56.333 63.5 -70s20.666 -29.5 27.999 -47.5s11 -37 11 -57c0 -49.333 -19.333 -89.333 -58 -120s-87.667 -46 -147 -46h-16c31.333 -41.333 50.833 -70.333 58.5 -87s11.5 -33.667 11.5 -51
c0 -56 -23.167 -102.167 -69.5 -138.5s-103.833 -54.5 -172.5 -54.5c-46 0 -85.5 11.5 -118.5 34.5s-49.5 51.833 -49.5 86.5c0 27.333 8.33301 50.333 25 69s39.334 28 68.001 28c22.667 0 42.5 -7.16699 59.5 -21.5s25.5 -33.166 25.5 -56.499
c0 -18.667 -6.83301 -36.167 -20.5 -52.5s-31.167 -25.5 -52.5 -27.5c-11.333 0 -17 -3.66699 -17 -11c0 -6.66699 7 -13.667 21 -21s31.667 -11 53 -11c31.333 0 57.5 9.16699 78.5 27.5s31.5 41.833 31.5 70.5c0 13.333 -2.33301 26.5 -7 39.5s-12.667 26.167 -24 39.5
l-64 73.5c-31.333 35.667 -51.333 59.5 -60 71.5s-16.834 27 -24.501 45s-11.5 36.667 -11.5 56c0 49.333 21 89.5 63 120.5s91.667 46.5 149 46.5zM341.998 142.998c22 5.33301 40 18 54 38s21 41 21 63c0 26 -13 55 -39 87l-68 75c-19.333 -4 -36 -16 -50 -36
s-21 -43.333 -21 -70c0 -15.333 3 -29.5 9 -42.5s17.333 -28.833 34 -47.5z" />
    <glyph glyph-name="dieresis" unicode="&#xa8;" 
d="M195 617c0 16.667 6.66699 31.667 20 45s29 20 47 20s33.333 -6.33301 46 -19s19 -28 19 -46c0 -19.333 -6 -35.333 -18 -48s-27.667 -19 -47 -19c-18 0 -33.667 6.66699 -47 20s-20 29 -20 47zM415 617c0 16.667 6.66797 31.667 20.001 45s28.666 20 45.999 20
c18 0 33.5 -6.5 46.5 -19.5s19.5 -28.167 19.5 -45.5c0 -19.333 -6.33301 -35.333 -19 -48s-28.334 -19 -47.001 -19c-17.333 0 -32.666 6.66699 -45.999 20s-20 29 -20 47z" />
    <glyph glyph-name="copyright" unicode="&#xa9;" horiz-adv-x="1000" 
d="M942 344c0 -108 -38.333 -200.667 -115 -278s-169.667 -116 -279 -116c-108.667 0 -201.5 38.5 -278.5 115.5s-115.5 169.833 -115.5 278.5s38.333 201.667 115 279s169.667 116 279 116s202.333 -38.667 279 -116s115 -170.333 115 -279zM910 344
c0 100.667 -35 186.336 -105 257.003s-155.667 106 -257 106s-187 -35.333 -257 -106s-105 -156.334 -105 -257.001s35 -186.334 105 -257.001s155.667 -106 257 -106c100.667 0 186.167 35.167 256.5 105.5s105.5 156.166 105.5 257.499zM561 108.002
c-74.667 0 -135.333 22.334 -182 67.001s-70 101.667 -70 171c0 70.667 23.333 128 70 172s107 66 181 66c34 0 62 -5 84 -15l64 -38c12 0 20.5 4.33301 25.5 13s7.5 20 7.5 34h18v-199h-16c-23.333 64.667 -43.666 110.5 -60.999 137.5s-46 40.5 -86 40.5
c-38 0 -65.667 -19.833 -83 -59.5s-26 -87.167 -26 -142.5c0 -58.667 10.833 -109.167 32.5 -151.5s53.167 -63.5 94.5 -63.5c36.667 0 66.5 13.167 89.5 39.5s38.833 62.166 47.5 107.499l17 -3c-6 -51.333 -25.333 -93.5 -58 -126.5s-82.334 -49.5 -149.001 -49.5z" />
    <glyph glyph-name="ordfeminine" unicode="&#xaa;" horiz-adv-x="630" 
d="M688 731l-128.998 -269.001l-9 -20.5c-3.33301 -7.66699 -5 -13.5 -5 -17.5c0 -3.33301 1.16699 -6 3.5 -8s5.5 -3 9.5 -3c17.333 0 37 11 59 33s39.667 47.333 53 76l15 -8c-24.667 -41.333 -50.334 -74.166 -77.001 -98.499s-65.334 -36.5 -116.001 -36.5
c-26.667 0 -48.167 6.16699 -64.5 18.5s-24.5 29.833 -24.5 52.5l-4 1c-20.667 -26 -40 -44.5 -58 -55.5s-42.667 -16.5 -74 -16.5c-33.333 0 -61 10 -83 30s-33 45.333 -33 76c0 60 27.5 117.5 82.5 172.5s119.5 82.5 193.5 82.5c20 0 37.167 -4.16699 51.5 -12.5
s21.5 -21.5 21.5 -39.5l22 43h166zM484.002 688.999c0 7.33301 -2.16992 12.834 -6.50293 16.501s-10.833 5.5 -19.5 5.5c-9.33301 0 -20.166 -7.16699 -32.499 -21.5s-28.666 -40 -48.999 -77s-39.166 -75.333 -56.499 -115s-26 -66.834 -26 -81.501
c0 -4 1.16699 -7.16699 3.5 -9.5s5.83301 -3.5 10.5 -3.5c12.667 0 29.167 9 49.5 27s38.5 42.5 54.5 73.5s32 64.5 48 100.5s24 64.333 24 85zM165.999 244h322l-11 -28h-322zM117.999 124h321l-11 -28h-321z" />
    <glyph glyph-name="guillemotleft" unicode="&#xab;" horiz-adv-x="498" 
d="M220 70l-11 -6l-172 167l10 28l294 166l7 -13l-81 -79c-30 -30 -59.333 -61.333 -88 -94c4.66699 -37.333 10.667 -69.5 18 -96.5s15 -51.167 23 -72.5zM383 85l-11 -7l-148 151l9 25l258 151l7 -12l-70 -73c-26.667 -28 -52 -56 -76 -84
c4 -31.333 8.83301 -59.5 14.5 -84.5s11.167 -47.167 16.5 -66.5z" />
    <glyph glyph-name="logicalnot" unicode="&#xac;" horiz-adv-x="833" 
d="M750 369v-242h-84v164h-483v78h567z" />
    <glyph glyph-name="registered" unicode="&#xae;" horiz-adv-x="1000" 
d="M943 345c0 -109.333 -38.333 -202.333 -115 -279s-169.667 -115 -279 -115s-202.333 38.333 -279 115s-115 169.667 -115 279s38.333 202.333 115 279s169.667 115 279 115s202.333 -38.333 279 -115s115 -169.667 115 -279zM519 344v-141l1 -27
c0 -23.333 12.333 -37 37 -41l32 -2v-14h-284v14l28 2c13.333 2 22.333 5.66699 27 11s8 14.666 10 27.999l1 27v290l-1 29c-2 12.667 -5.5 21.834 -10.5 27.501s-13.833 9.16699 -26.5 10.5l-27 3v14h266c38.667 0 69.834 -1.5 93.501 -4.5s43 -9.66699 58 -20
s26.833 -22.833 35.5 -37.5s13 -32 13 -52c0 -15.333 -2.5 -30 -7.5 -44s-14.5 -27.333 -28.5 -40s-28.833 -20.834 -44.5 -24.501s-37.5 -5.5 -65.5 -5.5c30 -9.33301 49.667 -15.666 59 -18.999s19.5 -8.66602 30.5 -15.999s21.333 -18.833 31 -34.5
s17.334 -32.834 23.001 -51.501s10.334 -31.167 14.001 -37.5s10.167 -9.5 19.5 -9.5c11.333 0 18.5 5.66699 21.5 17s4.5 27.333 4.5 48h14c0 -22.667 -1 -39.334 -3 -50.001s-7.33301 -22.667 -16 -36c-24.667 -30 -59.334 -45 -104.001 -45
c-68 0 -106.167 25.333 -114.5 76s-13.833 86.667 -16.5 108c-4.66699 22.667 -10.334 35.834 -17.001 39.501s-20.334 6.16699 -41.001 7.5h-12zM570 361c16 2.66699 28.334 13.999 37.001 33.999s13 42.333 13 67c0 20 -4.33301 39.333 -13 58
s-19.334 29.834 -32.001 33.501s-23.167 5.66699 -31.5 6s-16.5 0.5 -24.5 0.5v-200h28c11.333 0 19 0.333008 23 1zM911.001 345.999c0 100 -34.999 185.333 -104.999 256s-155.333 106 -256 106s-186.334 -35.333 -257.001 -106s-106 -156 -106 -256
c0 -101.333 35 -187.333 105 -258s156 -106 258 -106c100.667 0 186 35.333 256 106s105 156.667 105 258z" />
    <glyph glyph-name="degree" unicode="&#xb0;" horiz-adv-x="329" 
d="M246 739c40 0 74.499 -14.168 103.499 -42.501s43.5 -62.166 43.5 -101.499s-14.333 -73 -43 -101s-63.667 -42 -105 -42c-40.667 0 -75.167 13.833 -103.5 41.5s-42.5 61.5 -42.5 101.5s14.333 74 43 102s63.334 42 104.001 42zM335.999 595.999
c0 25.333 -8.66699 46.666 -26 63.999s-38.666 26 -63.999 26c-24.667 0 -46 -8.66699 -64 -26s-27 -38.666 -27 -63.999s8.83301 -46.833 26.5 -64.5s39.167 -26.5 64.5 -26.5s46.666 9 63.999 27s26 39.333 26 64z" />
    <glyph glyph-name="plusminus" unicode="&#xb1;" horiz-adv-x="833" 
d="M427 162v204h-247v78h247v223h79v-223h247v-78h-247v-204h247v-78h-573v78h247z" />
    <glyph glyph-name="acute" unicode="&#xb4;" 
d="M453 582c-19.333 -9.33301 -44.333 -18.834 -75 -28.501l-88 -27.5l-6 10c29.333 16.667 55 38 77 64l72 98c7.33301 8 14 13.333 20 16s13.667 4 23 4c12 0 23.167 -2.16699 33.5 -6.5s16.833 -9 19.5 -14s4 -13.5 4 -25.5c0 -23.333 -5.5 -40.666 -16.5 -51.999
s-32.167 -24 -63.5 -38z" />
    <glyph glyph-name="mu" unicode="&#xb5;" horiz-adv-x="668" 
d="M673 225c-4.66699 -40 -12.6699 -76.501 -24.0029 -109.501s-25.5 -58.5 -42.5 -76.5s-32 -30.5 -45 -37.5s-28.833 -10.5 -47.5 -10.5c-23.333 0 -40.333 7.16699 -51 21.5s-16 33.5 -16 57.5c0 12 0.833008 23.667 2.5 35s3.83398 22 6.50098 32l-4 2
c-25.333 -40.667 -57.333 -75.667 -96 -105s-77.334 -44 -116.001 -44c-34 0 -59.5 10.167 -76.5 30.5s-25.5 50.5 -25.5 90.5v30c2 10 3.33301 17.333 4 22h-4c-18 -40.667 -33 -81.667 -45 -123s-18 -71.666 -18 -90.999c16.667 -56.667 25 -91.334 25 -104.001
c0 -23.333 -6.83301 -41.833 -20.5 -55.5s-29.167 -20.5 -46.5 -20.5c-18 0 -31.667 5.16699 -41 15.5s-14 22.833 -14 37.5c0 26.667 14.833 73.334 44.5 140.001l75 165c20.333 43.333 31.5 67.666 33.5 72.999l43 170c9.33301 34 20.666 61.5 33.999 82.5
s35.333 31.5 66 31.5c16.667 0 29 -4.33301 37 -13s12 -20 12 -34c0 -25.333 -13.333 -58.666 -40 -99.999l-76 -117l-1 -14c0 -23.333 6.5 -42.166 19.5 -56.499s33.167 -21.5 60.5 -21.5c34.667 0 65.834 8.83301 93.501 26.5s50.167 42.167 67.5 73.5
c0 18.667 2.33301 41.5 7 68.5s11.334 55.833 20.001 86.5s19.667 55.167 33 73.5s34.333 27.5 63 27.5c17.333 0 30 -4.33301 38 -13s12 -19.667 12 -33c0 -41.333 -18.333 -88.833 -55 -142.5l-85 -123.5c6 -14.667 14.667 -26.834 26 -36.501s27 -14.5 47 -14.5
c26.667 0 48.334 8 65.001 24s30.334 42.667 41.001 80h14z" />
    <glyph glyph-name="paragraph" unicode="&#xb6;" horiz-adv-x="587" 
d="M420 78c-23.333 -68 -44.832 -119.334 -64.499 -154.001s-42.167 -59.5 -67.5 -74.5s-46.333 -25 -63 -30s-34 -7.5 -52 -7.5c-35.333 0 -65.833 10.333 -91.5 31s-38.5 49 -38.5 85c0 34.667 11.5 64.5 34.5 89.5s53.167 37.5 90.5 37.5
c29.333 0 52.333 -7.66699 69 -23s25 -35 25 -59c0 -22 -6.33301 -39.5 -19 -52.5s-29 -19.5 -49 -19.5c-20.667 0 -36.834 5.83301 -48.501 17.5s-17.5 26.5 -17.5 44.5c0 8 3.16699 17.333 9.5 28s9.5 17 9.5 19c-4 3.33301 -7.33301 5 -10 5
c-22 0 -39.667 -7.66699 -53 -23s-20 -34.666 -20 -57.999c0 -30.667 10.5 -55.5 31.5 -74.5s48.5 -28.5 82.5 -28.5c43.333 0 78.5 12.833 105.5 38.5s47.333 52.167 61 79.5s28.834 66.333 45.501 117l37 108c-100.667 10.667 -177 36 -229 76s-78 94.667 -78 164
c0 58.667 16.5 112.667 49.5 162s72.5 84.166 118.5 104.499s88.667 33.666 128 39.999s98.666 9.5 177.999 9.5l155 -1v-16l-52 -3c-26.667 -2.66699 -45.667 -10.667 -57 -24s-23.5 -35.666 -36.5 -66.999s-29.5 -76.666 -49.5 -135.999l-67 -201.5z" />
    <glyph glyph-name="cedilla" unicode="&#xb8;" 
d="M160 0l-53.999 -59.002c3.33301 0.666992 8.83301 1.33398 16.5 2.00098s14.5 1 20.5 1c38.667 0 65.5 -8 80.5 -24s22.5 -34 22.5 -54c0 -38 -17 -65.833 -51 -83.5s-68.667 -26.5 -104 -26.5c-21.333 0 -39.166 4.5 -53.499 13.5s-21.5 20.833 -21.5 35.5
c0 8 3.16699 15.833 9.5 23.5s14.833 11.5 25.5 11.5c12.667 0 21.667 -3.5 27 -10.5s8 -15.167 8 -24.5c0 -6 -3.66699 -15.667 -11 -29c0 -2.66699 7.33301 -5 22 -7c14 0 27 7.5 39 22.5s18 34.5 18 58.5c0 18 -4.83301 31.333 -14.5 40s-24.5 13 -44.5 13
c-12.667 0 -22.334 -1.16699 -29.001 -3.5s-11.334 -4.16602 -14.001 -5.49902l-4 7l91 99h21z" />
    <glyph glyph-name="ordmasculine" unicode="&#xba;" horiz-adv-x="530" 
d="M113 244h322l-11 -28h-322zM65 124h321l-11 -28h-321zM578 590c0 -56.667 -24.4961 -106.002 -73.4961 -148.002s-112.167 -63 -189.5 -63c-22 0 -43.167 4 -63.5 12s-38.833 18.667 -55.5 32c-14.667 14 -26.334 30 -35.001 48s-13 37 -13 57
c0 58 24.667 107.833 74 149.5s112.666 62.5 189.999 62.5c25.333 0 46.666 -3.66699 63.999 -11s35.666 -18.666 54.999 -33.999c16.667 -15.333 28.667 -32.166 36 -50.499s11 -36.5 11 -54.5zM454.004 691.998c0 10.667 -2.33105 18.498 -6.99805 23.498s-12 7.5 -22 7.5
c-15.333 0 -28.833 -9.16699 -40.5 -27.5s-26 -45.166 -43 -80.499s-32.5 -70.666 -46.5 -105.999s-21 -62 -21 -80c0 -11.333 2.5 -19.833 7.5 -25.5s12.167 -8.5 21.5 -8.5c15.333 0 28.166 8.66699 38.499 26s24.166 43 41.499 77s33.5 70.5 48.5 109.5
s22.5 67.167 22.5 84.5z" />
    <glyph glyph-name="guillemotright" unicode="&#xbb;" horiz-adv-x="491" 
d="M276 419l11 6l172 -167l-10 -28l-294 -166l-7 13l81 79c30 30 59.333 61.333 88 94c-4.66699 37.333 -10.667 69.5 -18 96.5s-15 51.167 -23 72.5zM264 236l-258.001 -151l-7 12l54 53c24.667 24.667 55 57.667 91 99c-4 33.333 -8.66699 62.833 -14 88.5
s-10.666 48.5 -15.999 68.5l11 6l148 -151z" />
    <glyph glyph-name="questiondown" unicode="&#xbf;" horiz-adv-x="517" 
d="M538 643c0 -26.667 -9.66699 -49.332 -29 -67.999s-42.666 -28 -69.999 -28s-50.833 9.16699 -70.5 27.5s-29.5 41.166 -29.5 68.499s9.66699 50.333 29 69s43 28 71 28c27.333 0 50.666 -9.33301 69.999 -28s29 -41.667 29 -69zM184 448.002
c18.667 16.667 39.333 28.8281 62 36.4951s46 11.5 70 11.5c45.333 0 81.833 -14.167 109.5 -42.5s41.5 -63.833 41.5 -106.5c0 -27.333 -7.33301 -51.666 -22 -72.999s-36.667 -41.666 -66 -60.999l-161 -91c-12.667 -8.66699 -22.667 -17.667 -30 -27
c-8 -9.33301 -12 -20.333 -12 -33c0 -18.667 8.16699 -33 24.5 -43s36.833 -15 61.5 -15c30.667 0 56.5 5.16699 77.5 15.5s31.5 21.833 31.5 34.5c0 5.33301 -9.33301 12 -28 20s-28 21.333 -28 40c0 16 5.5 28.833 16.5 38.5s24.833 14.5 41.5 14.5
c15.333 0 27.666 -5.66699 36.999 -17s14 -24.666 14 -39.999c0 -30 -15.333 -57.833 -46 -83.5s-69.334 -38.5 -116.001 -38.5c-55.333 0 -100.666 16.333 -135.999 49s-53 75.667 -53 129c0 32.667 7.33301 61.5 22 86.5s32.5 44.833 53.5 59.5s39.5 25.834 55.5 33.501
s43.333 19.167 82 34.5s63.5 26.333 74.5 33s16.5 16.334 16.5 29.001c0 13.333 -6.66699 23.166 -20 29.499s-27.666 9.5 -42.999 9.5c-21.333 0 -41.833 -4.16699 -61.5 -12.5s-38.5 -21.166 -56.5 -38.499c-10.667 -3.33301 -16 -0.666016 -16 8.00098
c0 3.33301 1.33301 6.66602 4 9.99902z" />
    <glyph glyph-name="Agrave" unicode="&#xc0;" horiz-adv-x="974" 
d="M641 358l136.999 341c-34.667 -7.33301 -69.334 -23.333 -104.001 -48s-64.167 -52 -88.5 -82s-47.166 -62 -68.499 -96s-43.666 -72.333 -66.999 -115h191zM436.999 335l-34.0029 -66.001c-19.333 -37.333 -43.5 -80.666 -72.5 -129.999s-59.5 -86.833 -91.5 -112.5
s-73.333 -38.5 -124 -38.5c-41.333 0 -76.166 12.167 -104.499 36.5s-42.5 57.5 -42.5 99.5c0 38 13.167 70.167 39.5 96.5s59.166 39.5 98.499 39.5c36 0 66.5 -10.833 91.5 -32.5s37.5 -51.167 37.5 -88.5c0 -16 -2.66699 -30.667 -8 -44s-11.5 -23.166 -18.5 -29.499
s-17.333 -13.833 -31 -22.5s-20.5 -16.334 -20.5 -23.001c4.66699 -4 8.33398 -6 11.001 -6c14 0 31.833 7.66699 53.5 23s43.5 39.5 65.5 72.5s45.5 73.333 70.5 121s57.333 106 97 175s71.334 121 95.001 156s65.5 72.5 125.5 112.5s134.333 60 223 60
c35.333 0 63 -0.666992 83 -2s37.667 -3 53 -5l-242 -602c-16.667 -42 -25 -68.667 -25 -80c0 -16 9.66699 -24.833 29 -26.5s45 -2.5 77 -2.5v-16h-484v16c8 0 17.5 0.5 28.5 1.5s24.667 2.33301 41 4s30.333 9 42 22s26.834 40.833 45.501 83.5l86 208h-195z
M947.996 782.999l-8 -10l-135 64c-23.333 13.333 -40.833 26.166 -52.5 38.499s-17.5 26.833 -17.5 43.5c0 22.667 2 36.167 6 40.5s10.5 8 19.5 11s18.5 4.5 28.5 4.5c19.333 0 35.333 -8 48 -24c18.667 -41.333 35.667 -75.166 51 -101.499s35.333 -48.5 60 -66.5z" />
    <glyph glyph-name="Aacute" unicode="&#xc1;" horiz-adv-x="974" 
d="M641 358l136.999 341c-34.667 -7.33301 -69.334 -23.333 -104.001 -48s-64.167 -52 -88.5 -82s-47.166 -62 -68.499 -96s-43.666 -72.333 -66.999 -115h191zM436.999 335l-34.0029 -66.001c-19.333 -37.333 -43.5 -80.666 -72.5 -129.999s-59.5 -86.833 -91.5 -112.5
s-73.333 -38.5 -124 -38.5c-41.333 0 -76.166 12.167 -104.499 36.5s-42.5 57.5 -42.5 99.5c0 38 13.167 70.167 39.5 96.5s59.166 39.5 98.499 39.5c36 0 66.5 -10.833 91.5 -32.5s37.5 -51.167 37.5 -88.5c0 -16 -2.66699 -30.667 -8 -44s-11.5 -23.166 -18.5 -29.499
s-17.333 -13.833 -31 -22.5s-20.5 -16.334 -20.5 -23.001c4.66699 -4 8.33398 -6 11.001 -6c14 0 31.833 7.66699 53.5 23s43.5 39.5 65.5 72.5s45.5 73.333 70.5 121s57.333 106 97 175s71.334 121 95.001 156s65.5 72.5 125.5 112.5s134.333 60 223 60
c35.333 0 63 -0.666992 83 -2s37.667 -3 53 -5l-242 -602c-16.667 -42 -25 -68.667 -25 -80c0 -16 9.66699 -24.833 29 -26.5s45 -2.5 77 -2.5v-16h-484v16c8 0 17.5 0.5 28.5 1.5s24.667 2.33301 41 4s30.333 9 42 22s26.834 40.833 45.501 83.5l86 208h-195z
M929.996 831.999c-19.333 -9.33301 -44.333 -18.834 -75 -28.501l-88 -27.5l-6 10c29.333 16.667 55 38 77 64l72 98c7.33301 8 14 13.333 20 16s13.667 4 23 4c12 0 23.167 -2.16699 33.5 -6.5s16.833 -9 19.5 -14s4 -13.5 4 -25.5c0 -23.333 -5.5 -40.666 -16.5 -51.999
s-32.167 -24 -63.5 -38z" />
    <glyph glyph-name="Acircumflex" unicode="&#xc2;" horiz-adv-x="974" 
d="M641 358l136.999 341c-34.667 -7.33301 -69.334 -23.333 -104.001 -48s-64.167 -52 -88.5 -82s-47.166 -62 -68.499 -96s-43.666 -72.333 -66.999 -115h191zM436.999 335l-34.0029 -66.001c-19.333 -37.333 -43.5 -80.666 -72.5 -129.999s-59.5 -86.833 -91.5 -112.5
s-73.333 -38.5 -124 -38.5c-41.333 0 -76.166 12.167 -104.499 36.5s-42.5 57.5 -42.5 99.5c0 38 13.167 70.167 39.5 96.5s59.166 39.5 98.499 39.5c36 0 66.5 -10.833 91.5 -32.5s37.5 -51.167 37.5 -88.5c0 -16 -2.66699 -30.667 -8 -44s-11.5 -23.166 -18.5 -29.499
s-17.333 -13.833 -31 -22.5s-20.5 -16.334 -20.5 -23.001c4.66699 -4 8.33398 -6 11.001 -6c14 0 31.833 7.66699 53.5 23s43.5 39.5 65.5 72.5s45.5 73.333 70.5 121s57.333 106 97 175s71.334 121 95.001 156s65.5 72.5 125.5 112.5s134.333 60 223 60
c35.333 0 63 -0.666992 83 -2s37.667 -3 53 -5l-242 -602c-16.667 -42 -25 -68.667 -25 -80c0 -16 9.66699 -24.833 29 -26.5s45 -2.5 77 -2.5v-16h-484v16c8 0 17.5 0.5 28.5 1.5s24.667 2.33301 41 4s30.333 9 42 22s26.834 40.833 45.501 83.5l86 208h-195z
M983.996 767.999l-11 -4l-53.5 65.5c-18.333 22.333 -31.5 35.833 -39.5 40.5c-16 -4.66699 -42.667 -17.667 -80 -39l-108 -63l-9 8l175 181h86z" />
    <glyph glyph-name="Atilde" unicode="&#xc3;" horiz-adv-x="974" 
d="M641 358l136.999 341c-34.667 -7.33301 -69.334 -23.333 -104.001 -48s-64.167 -52 -88.5 -82s-47.166 -62 -68.499 -96s-43.666 -72.333 -66.999 -115h191zM436.999 335l-34.0029 -66.001c-19.333 -37.333 -43.5 -80.666 -72.5 -129.999s-59.5 -86.833 -91.5 -112.5
s-73.333 -38.5 -124 -38.5c-41.333 0 -76.166 12.167 -104.499 36.5s-42.5 57.5 -42.5 99.5c0 38 13.167 70.167 39.5 96.5s59.166 39.5 98.499 39.5c36 0 66.5 -10.833 91.5 -32.5s37.5 -51.167 37.5 -88.5c0 -16 -2.66699 -30.667 -8 -44s-11.5 -23.166 -18.5 -29.499
s-17.333 -13.833 -31 -22.5s-20.5 -16.334 -20.5 -23.001c4.66699 -4 8.33398 -6 11.001 -6c14 0 31.833 7.66699 53.5 23s43.5 39.5 65.5 72.5s45.5 73.333 70.5 121s57.333 106 97 175s71.334 121 95.001 156s65.5 72.5 125.5 112.5s134.333 60 223 60
c35.333 0 63 -0.666992 83 -2s37.667 -3 53 -5l-242 -602c-16.667 -42 -25 -68.667 -25 -80c0 -16 9.66699 -24.833 29 -26.5s45 -2.5 77 -2.5v-16h-484v16c8 0 17.5 0.5 28.5 1.5s24.667 2.33301 41 4s30.333 9 42 22s26.834 40.833 45.501 83.5l86 208h-195z
M775.996 844.999c-16 0 -27.666 -2.66797 -34.999 -8.00098s-18.333 -17.666 -33 -36.999h-18c26.667 45.333 51.5 77.5 74.5 96.5s49.167 28.5 78.5 28.5c19.333 0 43.333 -6 72 -18s50.667 -18 66 -18s27.666 3.33301 36.999 10s20.333 18.667 33 36h18
c-26.667 -46 -51.5 -78.5 -74.5 -97.5s-49.5 -28.5 -79.5 -28.5c-16.667 0 -41.5 6 -74.5 18s-54.5 18 -64.5 18z" />
    <glyph glyph-name="Adieresis" unicode="&#xc4;" horiz-adv-x="974" 
d="M641 358l136.999 341c-34.667 -7.33301 -69.334 -23.333 -104.001 -48s-64.167 -52 -88.5 -82s-47.166 -62 -68.499 -96s-43.666 -72.333 -66.999 -115h191zM436.999 335l-34.0029 -66.001c-19.333 -37.333 -43.5 -80.666 -72.5 -129.999s-59.5 -86.833 -91.5 -112.5
s-73.333 -38.5 -124 -38.5c-41.333 0 -76.166 12.167 -104.499 36.5s-42.5 57.5 -42.5 99.5c0 38 13.167 70.167 39.5 96.5s59.166 39.5 98.499 39.5c36 0 66.5 -10.833 91.5 -32.5s37.5 -51.167 37.5 -88.5c0 -16 -2.66699 -30.667 -8 -44s-11.5 -23.166 -18.5 -29.499
s-17.333 -13.833 -31 -22.5s-20.5 -16.334 -20.5 -23.001c4.66699 -4 8.33398 -6 11.001 -6c14 0 31.833 7.66699 53.5 23s43.5 39.5 65.5 72.5s45.5 73.333 70.5 121s57.333 106 97 175s71.334 121 95.001 156s65.5 72.5 125.5 112.5s134.333 60 223 60
c35.333 0 63 -0.666992 83 -2s37.667 -3 53 -5l-242 -602c-16.667 -42 -25 -68.667 -25 -80c0 -16 9.66699 -24.833 29 -26.5s45 -2.5 77 -2.5v-16h-484v16c8 0 17.5 0.5 28.5 1.5s24.667 2.33301 41 4s30.333 9 42 22s26.834 40.833 45.501 83.5l86 208h-195z
M721.996 866.999c0 16.667 6.66699 31.667 20 45s29 20 47 20s33.333 -6.33301 46 -19s19 -28 19 -46c0 -19.333 -6 -35.333 -18 -48s-27.667 -19 -47 -19c-18 0 -33.667 6.66699 -47 20s-20 29 -20 47zM941.996 866.999c0 16.667 6.66797 31.667 20.001 45
s28.666 20 45.999 20c18 0 33.5 -6.5 46.5 -19.5s19.5 -28.167 19.5 -45.5c0 -19.333 -6.33301 -35.333 -19 -48s-28.334 -19 -47.001 -19c-17.333 0 -32.666 6.66699 -45.999 20s-20 29 -20 47z" />
    <glyph glyph-name="Aring" unicode="&#xc5;" horiz-adv-x="974" 
d="M641 358l136.999 341c-34.667 -7.33301 -69.334 -23.333 -104.001 -48s-64.167 -52 -88.5 -82s-47.166 -62 -68.499 -96s-43.666 -72.333 -66.999 -115h191zM436.999 335l-34.0029 -66.001c-19.333 -37.333 -43.5 -80.666 -72.5 -129.999s-59.5 -86.833 -91.5 -112.5
s-73.333 -38.5 -124 -38.5c-41.333 0 -76.166 12.167 -104.499 36.5s-42.5 57.5 -42.5 99.5c0 38 13.167 70.167 39.5 96.5s59.166 39.5 98.499 39.5c36 0 66.5 -10.833 91.5 -32.5s37.5 -51.167 37.5 -88.5c0 -16 -2.66699 -30.667 -8 -44s-11.5 -23.166 -18.5 -29.499
s-17.333 -13.833 -31 -22.5s-20.5 -16.334 -20.5 -23.001c4.66699 -4 8.33398 -6 11.001 -6c14 0 31.833 7.66699 53.5 23s43.5 39.5 65.5 72.5s45.5 73.333 70.5 121s57.333 106 97 175s71.334 121 95.001 156s65.5 72.5 125.5 112.5s134.333 60 223 60
c35.333 0 63 -0.666992 83 -2s37.667 -3 53 -5l-242 -602c-16.667 -42 -25 -68.667 -25 -80c0 -16 9.66699 -24.833 29 -26.5s45 -2.5 77 -2.5v-16h-484v16c8 0 17.5 0.5 28.5 1.5s24.667 2.33301 41 4s30.333 9 42 22s26.834 40.833 45.501 83.5l86 208h-195z
M829.996 879.999c0 -18.667 6 -34 18 -46s27.333 -18 46 -18s34.167 5.83301 46.5 17.5s18.5 27.167 18.5 46.5c0 18.667 -6.16699 34.167 -18.5 46.5s-27.833 18.5 -46.5 18.5s-34 -6 -46 -18s-18 -27.667 -18 -47zM788.996 879.999c0 30 10.333 54.667 31 74
s45.667 29 75 29s54.5 -9.5 75.5 -28.5s31.5 -43.833 31.5 -74.5c0 -29.333 -10.5 -53.833 -31.5 -73.5s-46.167 -29.5 -75.5 -29.5c-28.667 0 -53.5 9.83301 -74.5 29.5s-31.5 44.167 -31.5 73.5z" />
    <glyph glyph-name="AE" unicode="&#xc6;" horiz-adv-x="1318" 
d="M340 156c-35.333 -60.667 -69.001 -103.832 -101.001 -129.499s-73.333 -38.5 -124 -38.5c-41.333 0 -76.166 12.167 -104.499 36.5s-42.5 57.5 -42.5 99.5c0 38 13.167 70.167 39.5 96.5s59.166 39.5 98.499 39.5c36 0 66.5 -10.833 91.5 -32.5s37.5 -51.167 37.5 -88.5
c0 -16 -2.66699 -30.667 -8 -44s-11.5 -23.166 -18.5 -29.499s-17.333 -13.833 -31 -22.5s-20.5 -16.334 -20.5 -23.001c4.66699 -4 8.33398 -6 11.001 -6c14 0 31.833 7.66699 53.5 23s43.5 39.5 65.5 72.5s45.5 73.333 70.5 121l75.5 139.5l86 150
c43.333 64 94.333 115 153 153s133.334 57 224.001 57l528 -1l-125 -310h-19l-4 70c-6 54.667 -18.833 102.834 -38.5 144.501s-46.5 64.5 -80.5 68.5s-60.667 6.16699 -80 6.5s-36 0.5 -50 0.5l-134 -331l32 3c44 6.66699 83.333 24.334 118 53.001s63 64.667 85 108h20
l-147 -365h-20c2.66699 10 5.16699 22 7.5 36s3.5 28.667 3.5 44c0 34 -5.5 59.333 -16.5 76s-30.5 25 -58.5 25l-32 1l-135 -339h35c32 0 72.167 2.16699 120.5 6.5s98.666 26.666 150.999 66.999s95.166 79 128.499 116l80 89.5h20l-120 -299h-775v16l55 4
c26 3.33301 45.333 11.666 58 24.999s27.334 40.666 44.001 81.999l91 227h-191l-48 -93c-13.333 -26 -33 -61 -59 -105zM458.999 375.002l187.999 -0.00195312l130 321c-36 -7.33301 -70.667 -22.5 -104 -45.5s-62.166 -49.667 -86.499 -80s-46.5 -61.166 -66.5 -92.499
s-40.333 -65.666 -61 -102.999z" />
    <glyph glyph-name="Ccedilla" unicode="&#xc7;" horiz-adv-x="749" 
d="M391 -12c-90.667 0 -166 29.667 -226 89s-90 133.333 -90 222c0 116 47.5 218.5 142.5 307.5s211.167 133.5 348.5 133.5c48 0 88.667 -6.83301 122 -20.5l102 -41.5c16 0 31.833 6.16699 47.5 18.5s27.834 26.833 36.501 43.5h18l-142 -354h-19
c0 11.333 0.5 36.166 1.5 74.499s1.5 59.833 1.5 64.5c0 68.667 -5.16699 116.5 -15.5 143.5s-35.5 40.5 -75.5 40.5c-26 0 -52.333 -9.16699 -79 -27.5s-52.5 -44.166 -77.5 -77.499s-47.667 -69 -68 -107s-37 -74.333 -50 -109s-23.667 -70.5 -32 -107.5
s-12.5 -69.833 -12.5 -98.5c0 -52 8.5 -91.667 25.5 -119s47.5 -41 91.5 -41c32 0 59.833 5.66699 83.5 17s45.667 26 66 44s36.833 36.833 49.5 56.5s24.667 41.167 36 64.5l18 -8c-28 -64.667 -68.333 -115.5 -121 -152.5s-113.334 -55.5 -182.001 -55.5zM285 0
l-53.999 -59.002c3.33301 0.666992 8.83301 1.33398 16.5 2.00098s14.5 1 20.5 1c38.667 0 65.5 -8 80.5 -24s22.5 -34 22.5 -54c0 -38 -17 -65.833 -51 -83.5s-68.667 -26.5 -104 -26.5c-21.333 0 -39.166 4.5 -53.499 13.5s-21.5 20.833 -21.5 35.5
c0 8 3.16699 15.833 9.5 23.5s14.833 11.5 25.5 11.5c12.667 0 21.667 -3.5 27 -10.5s8 -15.167 8 -24.5c0 -6 -3.66699 -15.667 -11 -29c0 -2.66699 7.33301 -5 22 -7c14 0 27 7.5 39 22.5s18 34.5 18 58.5c0 18 -4.83301 31.333 -14.5 40s-24.5 13 -44.5 13
c-12.667 0 -22.334 -1.16699 -29.001 -3.5s-11.334 -4.16602 -14.001 -5.49902l-4 7l91 99h21z" />
    <glyph glyph-name="Egrave" unicode="&#xc8;" horiz-adv-x="890" 
d="M448 387c8.66699 0 16.999 0.166992 24.999 0.5s24.833 2.5 50.5 6.5s57 20 94 48s66.167 63 87.5 105h20l-147 -365h-20c2.66699 10.667 5.16699 23.5 7.5 38.5s3.5 30.167 3.5 45.5c0 33.333 -6.33301 58.5 -19 75.5s-33.667 25.5 -63 25.5l-47 1l-141 -348h36
c33.333 0 74.166 2.16699 122.499 6.5s100.333 26.666 156 66.999s101.834 79 138.501 116l88 89.5h20l-120 -299h-798v16l55 4c24.667 2.66699 42.834 10.5 54.501 23.5s28.167 44.167 49.5 93.5l57 135l68.5 172.5l63.5 163c13.333 34.333 20 57.833 20 70.5
c0 14 -5.66699 23.333 -17 28s-39 7 -83 7v16h789l-125 -310h-19l-4 70c-6 54.667 -18.833 102.834 -38.5 144.501s-44.167 64.167 -73.5 67.5s-56.5 5.5 -81.5 6.5s-47.5 1.5 -67.5 1.5h-13zM695.999 783l-8 -10l-135 64c-23.333 13.333 -40.833 26.166 -52.5 38.499
s-17.5 26.833 -17.5 43.5c0 22.667 2 36.167 6 40.5s10.5 8 19.5 11s18.5 4.5 28.5 4.5c19.333 0 35.333 -8 48 -24c18.667 -41.333 35.667 -75.166 51 -101.499s35.333 -48.5 60 -66.5z" />
    <glyph glyph-name="Eacute" unicode="&#xc9;" horiz-adv-x="890" 
d="M448 387c8.66699 0 16.999 0.166992 24.999 0.5s24.833 2.5 50.5 6.5s57 20 94 48s66.167 63 87.5 105h20l-147 -365h-20c2.66699 10.667 5.16699 23.5 7.5 38.5s3.5 30.167 3.5 45.5c0 33.333 -6.33301 58.5 -19 75.5s-33.667 25.5 -63 25.5l-47 1l-141 -348h36
c33.333 0 74.166 2.16699 122.499 6.5s100.333 26.666 156 66.999s101.834 79 138.501 116l88 89.5h20l-120 -299h-798v16l55 4c24.667 2.66699 42.834 10.5 54.501 23.5s28.167 44.167 49.5 93.5l57 135l68.5 172.5l63.5 163c13.333 34.333 20 57.833 20 70.5
c0 14 -5.66699 23.333 -17 28s-39 7 -83 7v16h789l-125 -310h-19l-4 70c-6 54.667 -18.833 102.834 -38.5 144.501s-44.167 64.167 -73.5 67.5s-56.5 5.5 -81.5 6.5s-47.5 1.5 -67.5 1.5h-13zM647.999 832c-19.333 -9.33301 -44.333 -18.834 -75 -28.501l-88 -27.5l-6 10
c29.333 16.667 55 38 77 64l72 98c7.33301 8 14 13.333 20 16s13.667 4 23 4c12 0 23.167 -2.16699 33.5 -6.5s16.833 -9 19.5 -14s4 -13.5 4 -25.5c0 -23.333 -5.5 -40.666 -16.5 -51.999s-32.167 -24 -63.5 -38z" />
    <glyph glyph-name="Ecircumflex" unicode="&#xca;" horiz-adv-x="890" 
d="M448 387c8.66699 0 16.999 0.166992 24.999 0.5s24.833 2.5 50.5 6.5s57 20 94 48s66.167 63 87.5 105h20l-147 -365h-20c2.66699 10.667 5.16699 23.5 7.5 38.5s3.5 30.167 3.5 45.5c0 33.333 -6.33301 58.5 -19 75.5s-33.667 25.5 -63 25.5l-47 1l-141 -348h36
c33.333 0 74.166 2.16699 122.499 6.5s100.333 26.666 156 66.999s101.834 79 138.501 116l88 89.5h20l-120 -299h-798v16l55 4c24.667 2.66699 42.834 10.5 54.501 23.5s28.167 44.167 49.5 93.5l57 135l68.5 172.5l63.5 163c13.333 34.333 20 57.833 20 70.5
c0 14 -5.66699 23.333 -17 28s-39 7 -83 7v16h789l-125 -310h-19l-4 70c-6 54.667 -18.833 102.834 -38.5 144.501s-44.167 64.167 -73.5 67.5s-56.5 5.5 -81.5 6.5s-47.5 1.5 -67.5 1.5h-13zM801.999 768l-11 -4l-53.5 65.5c-18.333 22.333 -31.5 35.833 -39.5 40.5
c-16 -4.66699 -42.667 -17.667 -80 -39l-108 -63l-9 8l175 181h86z" />
    <glyph glyph-name="Edieresis" unicode="&#xcb;" horiz-adv-x="890" 
d="M448 387c8.66699 0 16.999 0.166992 24.999 0.5s24.833 2.5 50.5 6.5s57 20 94 48s66.167 63 87.5 105h20l-147 -365h-20c2.66699 10.667 5.16699 23.5 7.5 38.5s3.5 30.167 3.5 45.5c0 33.333 -6.33301 58.5 -19 75.5s-33.667 25.5 -63 25.5l-47 1l-141 -348h36
c33.333 0 74.166 2.16699 122.499 6.5s100.333 26.666 156 66.999s101.834 79 138.501 116l88 89.5h20l-120 -299h-798v16l55 4c24.667 2.66699 42.834 10.5 54.501 23.5s28.167 44.167 49.5 93.5l57 135l68.5 172.5l63.5 163c13.333 34.333 20 57.833 20 70.5
c0 14 -5.66699 23.333 -17 28s-39 7 -83 7v16h789l-125 -310h-19l-4 70c-6 54.667 -18.833 102.834 -38.5 144.501s-44.167 64.167 -73.5 67.5s-56.5 5.5 -81.5 6.5s-47.5 1.5 -67.5 1.5h-13zM449.999 867c0 16.667 6.66699 31.667 20 45s29 20 47 20
s33.333 -6.33301 46 -19s19 -28 19 -46c0 -19.333 -6 -35.333 -18 -48s-27.667 -19 -47 -19c-18 0 -33.667 6.66699 -47 20s-20 29 -20 47zM669.999 867c0 16.667 6.66797 31.667 20.001 45s28.666 20 45.999 20c18 0 33.5 -6.5 46.5 -19.5s19.5 -28.167 19.5 -45.5
c0 -19.333 -6.33301 -35.333 -19 -48s-28.334 -19 -47.001 -19c-17.333 0 -32.666 6.66699 -45.999 20s-20 29 -20 47z" />
    <glyph glyph-name="Igrave" unicode="&#xcc;" horiz-adv-x="528" 
d="M688 713l-52.001 -3.00098c-32 -2.66699 -53 -12.167 -63 -28.5s-23.667 -45.666 -41 -87.999l-59.5 -145.5l-65 -161l-60.5 -152c-19.333 -48.667 -29 -79 -29 -91c0 -9.33301 6 -16.333 18 -21s39 -7 81 -7v-16h-475v16l55 4c24.667 2.66699 42.834 10.5 54.501 23.5
s27.5 42.333 47.5 88l70.5 168.5l63.5 159l50.5 129.5c18.333 47 27.5 76.833 27.5 89.5c0 15.333 -5.83301 25 -17.5 29s-39.167 6 -82.5 6v16h477v-16zM530.999 782.999l-8 -10l-135 64c-23.333 13.333 -40.833 26.166 -52.5 38.499s-17.5 26.833 -17.5 43.5
c0 22.667 2 36.167 6 40.5s10.5 8 19.5 11s18.5 4.5 28.5 4.5c19.333 0 35.333 -8 48 -24c18.667 -41.333 35.667 -75.166 51 -101.499s35.333 -48.5 60 -66.5z" />
    <glyph glyph-name="Iacute" unicode="&#xcd;" horiz-adv-x="528" 
d="M688 713l-52.001 -3.00098c-32 -2.66699 -53 -12.167 -63 -28.5s-23.667 -45.666 -41 -87.999l-59.5 -145.5l-65 -161l-60.5 -152c-19.333 -48.667 -29 -79 -29 -91c0 -9.33301 6 -16.333 18 -21s39 -7 81 -7v-16h-475v16l55 4c24.667 2.66699 42.834 10.5 54.501 23.5
s27.5 42.333 47.5 88l70.5 168.5l63.5 159l50.5 129.5c18.333 47 27.5 76.833 27.5 89.5c0 15.333 -5.83301 25 -17.5 29s-39.167 6 -82.5 6v16h477v-16zM552.999 831.999c-19.333 -9.33301 -44.333 -18.834 -75 -28.501l-88 -27.5l-6 10c29.333 16.667 55 38 77 64l72 98
c7.33301 8 14 13.333 20 16s13.667 4 23 4c12 0 23.167 -2.16699 33.5 -6.5s16.833 -9 19.5 -14s4 -13.5 4 -25.5c0 -23.333 -5.5 -40.666 -16.5 -51.999s-32.167 -24 -63.5 -38z" />
    <glyph glyph-name="Icircumflex" unicode="&#xce;" horiz-adv-x="528" 
d="M688 713l-52.001 -3.00098c-32 -2.66699 -53 -12.167 -63 -28.5s-23.667 -45.666 -41 -87.999l-59.5 -145.5l-65 -161l-60.5 -152c-19.333 -48.667 -29 -79 -29 -91c0 -9.33301 6 -16.333 18 -21s39 -7 81 -7v-16h-475v16l55 4c24.667 2.66699 42.834 10.5 54.501 23.5
s27.5 42.333 47.5 88l70.5 168.5l63.5 159l50.5 129.5c18.333 47 27.5 76.833 27.5 89.5c0 15.333 -5.83301 25 -17.5 29s-39.167 6 -82.5 6v16h477v-16zM606.999 767.999l-11 -4l-53.5 65.5c-18.333 22.333 -31.5 35.833 -39.5 40.5c-16 -4.66699 -42.667 -17.667 -80 -39
l-108 -63l-9 8l175 181h86z" />
    <glyph glyph-name="Idieresis" unicode="&#xcf;" horiz-adv-x="528" 
d="M688 713l-52.001 -3.00098c-32 -2.66699 -53 -12.167 -63 -28.5s-23.667 -45.666 -41 -87.999l-59.5 -145.5l-65 -161l-60.5 -152c-19.333 -48.667 -29 -79 -29 -91c0 -9.33301 6 -16.333 18 -21s39 -7 81 -7v-16h-475v16l55 4c24.667 2.66699 42.834 10.5 54.501 23.5
s27.5 42.333 47.5 88l70.5 168.5l63.5 159l50.5 129.5c18.333 47 27.5 76.833 27.5 89.5c0 15.333 -5.83301 25 -17.5 29s-39.167 6 -82.5 6v16h477v-16zM314.999 866.999c0 16.667 6.66699 31.667 20 45s29 20 47 20s33.333 -6.33301 46 -19s19 -28 19 -46
c0 -19.333 -6 -35.333 -18 -48s-27.667 -19 -47 -19c-18 0 -33.667 6.66699 -47 20s-20 29 -20 47zM534.999 866.999c0 16.667 6.66797 31.667 20.001 45s28.666 20 45.999 20c18 0 33.5 -6.5 46.5 -19.5s19.5 -28.167 19.5 -45.5c0 -19.333 -6.33301 -35.333 -19 -48
s-28.334 -19 -47.001 -19c-17.333 0 -32.666 6.66699 -45.999 20s-20 29 -20 47z" />
    <glyph glyph-name="Eth" unicode="&#xd0;" horiz-adv-x="939" 
d="M448 394l131.999 0.00195312l-11 -27h-132l-141 -350h88c88.667 0 168.334 62.667 239.001 188s106 248 106 368c0 36.667 -8.5 67.667 -25.5 93s-35 39.166 -54 41.499s-33.167 3.66602 -42.5 3.99902s-18.333 0.5 -27 0.5zM193.999 367.002h-129.004l11 27h128l82 208
c14.667 38 22 63.333 22 76c0 14.667 -7.33301 24.167 -22 28.5s-44 6.5 -88 6.5v16l389 2c131.333 0 226.5 -30.667 285.5 -92s88.5 -132.666 88.5 -213.999c0 -70.667 -15.333 -134.334 -46 -191.001s-72.667 -102.667 -126 -138s-113.666 -60.5 -180.999 -75.5
s-144.666 -22.5 -231.999 -22.5l-437 2v16l55 4c24.667 2.66699 42.834 10.5 54.501 23.5s26.834 40.833 45.501 83.5z" />
    <glyph glyph-name="Ntilde" unicode="&#xd1;" horiz-adv-x="1040" 
d="M1205 729l-0.00195312 -16.0029l-50 -4c-23.333 -2.66699 -42.833 -12.334 -58.5 -29.001s-34 -50.5 -55 -101.5l-94 -232.5l-91.5 -228l-47 -118h-137l-173 648l-59 -174.5l-40.5 -116l-44.5 -117.5c-22 -57.333 -39.833 -99.166 -53.5 -125.499
s-33.334 -54 -59.001 -83s-68.167 -43.5 -127.5 -43.5c-40.667 0 -75.334 12.333 -104.001 37s-43 57.334 -43 98.001c0 39.333 13 72 39 98s58.667 39 98 39c34.667 0 65 -10.667 91 -32s39 -49 39 -83c0 -14 -1.16699 -26 -3.5 -36s-5.66602 -19.167 -9.99902 -27.5
s-10 -16 -17 -23s-10.5 -12.833 -10.5 -17.5c0 -5.33301 3.33301 -8 10 -8c5.33301 0 12 3 20 9s18.167 17.833 30.5 35.5s24.333 39.5 36 65.5s26.334 61.5 44.001 106.5s37.667 98.833 60 161.5l54 156c13.667 41.333 21.834 67.333 24.501 78s4 19.334 4 26.001
c0 16.667 -8.33301 27.834 -25 33.501s-48 8.5 -94 8.5v16h363l144 -524l35.5 86.5l48 117.5l47.5 121c16.667 43.333 27.167 72.333 31.5 87s6.5 27 6.5 37c0 22.667 -9.16699 38.167 -27.5 46.5s-50.166 12.5 -95.499 12.5v16h294zM748.998 844.997
c-16 0 -27.666 -2.66797 -34.999 -8.00098s-18.333 -17.666 -33 -36.999h-18c26.667 45.333 51.5 77.5 74.5 96.5s49.167 28.5 78.5 28.5c19.333 0 43.333 -6 72 -18s50.667 -18 66 -18s27.666 3.33301 36.999 10s20.333 18.667 33 36h18
c-26.667 -46 -51.5 -78.5 -74.5 -97.5s-49.5 -28.5 -79.5 -28.5c-16.667 0 -41.5 6 -74.5 18s-54.5 18 -64.5 18z" />
    <glyph glyph-name="Ograve" unicode="&#xd2;" horiz-adv-x="855" 
d="M885 424c0 -114.667 -51 -216 -153 -304s-215.667 -132 -341 -132c-98 0 -175.167 29.833 -231.5 89.5s-84.5 133.5 -84.5 221.5c0 120 51.5 223.5 154.5 310.5s221.5 130.5 355.5 130.5c88 0 160 -30 216 -90s84 -135.333 84 -226zM677 634
c0 28 -5.16309 49.333 -15.4961 64s-28.833 22 -55.5 22c-24 0 -43.833 -5.66699 -59.5 -17s-33.334 -31 -53.001 -59s-42.334 -69.167 -68.001 -123.5s-48.167 -105.833 -67.5 -154.5s-36.5 -98.5 -51.5 -149.5s-22.5 -91.833 -22.5 -122.5c0 -28 5.16699 -49.333 15.5 -64
s28.833 -22 55.5 -22c24 0 43.833 5.66699 59.5 17s33.167 30.833 52.5 58.5s42.166 69.5 68.499 125.5s50.666 113 72.999 171s39.333 109.167 51 153.5s17.5 77.833 17.5 100.5zM669.004 783l-8 -10l-135 64c-23.333 13.333 -40.833 26.166 -52.5 38.499
s-17.5 26.833 -17.5 43.5c0 22.667 2 36.167 6 40.5s10.5 8 19.5 11s18.5 4.5 28.5 4.5c19.333 0 35.333 -8 48 -24c18.667 -41.333 35.667 -75.166 51 -101.499s35.333 -48.5 60 -66.5z" />
    <glyph glyph-name="Oacute" unicode="&#xd3;" horiz-adv-x="855" 
d="M885 424c0 -114.667 -51 -216 -153 -304s-215.667 -132 -341 -132c-98 0 -175.167 29.833 -231.5 89.5s-84.5 133.5 -84.5 221.5c0 120 51.5 223.5 154.5 310.5s221.5 130.5 355.5 130.5c88 0 160 -30 216 -90s84 -135.333 84 -226zM677 634
c0 28 -5.16309 49.333 -15.4961 64s-28.833 22 -55.5 22c-24 0 -43.833 -5.66699 -59.5 -17s-33.334 -31 -53.001 -59s-42.334 -69.167 -68.001 -123.5s-48.167 -105.833 -67.5 -154.5s-36.5 -98.5 -51.5 -149.5s-22.5 -91.833 -22.5 -122.5c0 -28 5.16699 -49.333 15.5 -64
s28.833 -22 55.5 -22c24 0 43.833 5.66699 59.5 17s33.167 30.833 52.5 58.5s42.166 69.5 68.499 125.5s50.666 113 72.999 171s39.333 109.167 51 153.5s17.5 77.833 17.5 100.5zM681.004 832c-19.333 -9.33301 -44.333 -18.834 -75 -28.501l-88 -27.5l-6 10
c29.333 16.667 55 38 77 64l72 98c7.33301 8 14 13.333 20 16s13.667 4 23 4c12 0 23.167 -2.16699 33.5 -6.5s16.833 -9 19.5 -14s4 -13.5 4 -25.5c0 -23.333 -5.5 -40.666 -16.5 -51.999s-32.167 -24 -63.5 -38z" />
    <glyph glyph-name="Ocircumflex" unicode="&#xd4;" horiz-adv-x="855" 
d="M885 424c0 -114.667 -51 -216 -153 -304s-215.667 -132 -341 -132c-98 0 -175.167 29.833 -231.5 89.5s-84.5 133.5 -84.5 221.5c0 120 51.5 223.5 154.5 310.5s221.5 130.5 355.5 130.5c88 0 160 -30 216 -90s84 -135.333 84 -226zM677 634
c0 28 -5.16309 49.333 -15.4961 64s-28.833 22 -55.5 22c-24 0 -43.833 -5.66699 -59.5 -17s-33.334 -31 -53.001 -59s-42.334 -69.167 -68.001 -123.5s-48.167 -105.833 -67.5 -154.5s-36.5 -98.5 -51.5 -149.5s-22.5 -91.833 -22.5 -122.5c0 -28 5.16699 -49.333 15.5 -64
s28.833 -22 55.5 -22c24 0 43.833 5.66699 59.5 17s33.167 30.833 52.5 58.5s42.166 69.5 68.499 125.5s50.666 113 72.999 171s39.333 109.167 51 153.5s17.5 77.833 17.5 100.5zM745.004 768l-11 -4l-53.5 65.5c-18.333 22.333 -31.5 35.833 -39.5 40.5
c-16 -4.66699 -42.667 -17.667 -80 -39l-108 -63l-9 8l175 181h86z" />
    <glyph glyph-name="Otilde" unicode="&#xd5;" horiz-adv-x="855" 
d="M885 424c0 -114.667 -51 -216 -153 -304s-215.667 -132 -341 -132c-98 0 -175.167 29.833 -231.5 89.5s-84.5 133.5 -84.5 221.5c0 120 51.5 223.5 154.5 310.5s221.5 130.5 355.5 130.5c88 0 160 -30 216 -90s84 -135.333 84 -226zM677 634
c0 28 -5.16309 49.333 -15.4961 64s-28.833 22 -55.5 22c-24 0 -43.833 -5.66699 -59.5 -17s-33.334 -31 -53.001 -59s-42.334 -69.167 -68.001 -123.5s-48.167 -105.833 -67.5 -154.5s-36.5 -98.5 -51.5 -149.5s-22.5 -91.833 -22.5 -122.5c0 -28 5.16699 -49.333 15.5 -64
s28.833 -22 55.5 -22c24 0 43.833 5.66699 59.5 17s33.167 30.833 52.5 58.5s42.166 69.5 68.499 125.5s50.666 113 72.999 171s39.333 109.167 51 153.5s17.5 77.833 17.5 100.5zM537.004 845c-16 0 -27.666 -2.66797 -34.999 -8.00098s-18.333 -17.666 -33 -36.999h-18
c26.667 45.333 51.5 77.5 74.5 96.5s49.167 28.5 78.5 28.5c19.333 0 43.333 -6 72 -18s50.667 -18 66 -18s27.666 3.33301 36.999 10s20.333 18.667 33 36h18c-26.667 -46 -51.5 -78.5 -74.5 -97.5s-49.5 -28.5 -79.5 -28.5c-16.667 0 -41.5 6 -74.5 18s-54.5 18 -64.5 18z
" />
    <glyph glyph-name="Odieresis" unicode="&#xd6;" horiz-adv-x="855" 
d="M885 424c0 -114.667 -51 -216 -153 -304s-215.667 -132 -341 -132c-98 0 -175.167 29.833 -231.5 89.5s-84.5 133.5 -84.5 221.5c0 120 51.5 223.5 154.5 310.5s221.5 130.5 355.5 130.5c88 0 160 -30 216 -90s84 -135.333 84 -226zM677 634
c0 28 -5.16309 49.333 -15.4961 64s-28.833 22 -55.5 22c-24 0 -43.833 -5.66699 -59.5 -17s-33.334 -31 -53.001 -59s-42.334 -69.167 -68.001 -123.5s-48.167 -105.833 -67.5 -154.5s-36.5 -98.5 -51.5 -149.5s-22.5 -91.833 -22.5 -122.5c0 -28 5.16699 -49.333 15.5 -64
s28.833 -22 55.5 -22c24 0 43.833 5.66699 59.5 17s33.167 30.833 52.5 58.5s42.166 69.5 68.499 125.5s50.666 113 72.999 171s39.333 109.167 51 153.5s17.5 77.833 17.5 100.5zM463.004 867c0 16.667 6.66699 31.667 20 45s29 20 47 20s33.333 -6.33301 46 -19
s19 -28 19 -46c0 -19.333 -6 -35.333 -18 -48s-27.667 -19 -47 -19c-18 0 -33.667 6.66699 -47 20s-20 29 -20 47zM683.004 867c0 16.667 6.66797 31.667 20.001 45s28.666 20 45.999 20c18 0 33.5 -6.5 46.5 -19.5s19.5 -28.167 19.5 -45.5
c0 -19.333 -6.33301 -35.333 -19 -48s-28.334 -19 -47.001 -19c-17.333 0 -32.666 6.66699 -45.999 20s-20 29 -20 47z" />
    <glyph glyph-name="multiply" unicode="&#xd7;" horiz-adv-x="833" 
d="M471 385l226 225l56 -56l-225 -226l225 -226l-56 -55l-226 226l-225 -225l-55 55l225 225l-226 226l56 55z" />
    <glyph glyph-name="Oslash" unicode="&#xd8;" horiz-adv-x="855" 
d="M290 151c-4 -22 -6.00098 -41 -6.00098 -57c0 -28 5.16699 -49.333 15.5 -64s28.833 -22 55.5 -22c23.333 0 43.333 5.83301 60 17.5s34.834 31.5 54.501 59.5s42 68.667 67 122s46 102.5 63 147.5s30.5 82.167 40.5 111.5s17 51.333 21 66zM668.999 573
c5.33301 24.667 8 44.999 8 60.999c0 28 -5.16699 49.333 -15.5 64s-28.833 22 -55.5 22c-23.333 0 -43.333 -5.83301 -60 -17.5s-34.5 -31.167 -53.5 -58.5s-42.167 -69.666 -69.5 -126.999s-47.5 -102.333 -60.5 -135s-25.833 -68 -38.5 -106s-21.667 -67 -27 -87z
M175.999 61.999c-32.667 28 -57.666 62.668 -74.999 104.001s-26 85.666 -26 132.999c0 120 51.5 223.5 154.5 310.5s221.5 130.5 355.5 130.5c36 0 69.5 -5.33301 100.5 -16s59.167 -26 84.5 -46l65 67l15 -15l-64 -66c31.333 -28.667 55.666 -63.667 72.999 -105
s26 -86.333 26 -135c0 -114.667 -51 -216 -153 -304s-215.667 -132 -341 -132c-40 0 -76.5 5.16699 -109.5 15.5s-62.833 25.5 -89.5 45.5l-69 -72l-14 15z" />
    <glyph glyph-name="Ugrave" unicode="&#xd9;" horiz-adv-x="853" 
d="M846 559c6 15.333 11.8311 32.833 17.498 52.5s8.5 34.834 8.5 45.501c0 22 -8.16699 36.833 -24.5 44.5s-45.833 11.5 -88.5 11.5v16h304v-16l-67 -5c-24.667 -2.66699 -45 -12 -61 -28s-35.167 -52 -57.5 -108l-78 -198c-29.667 -76 -55.667 -137 -78 -183
s-55.333 -91.333 -99 -136s-120.167 -67 -229.5 -67c-89.333 0 -157.166 20 -203.499 60s-69.5 88.667 -69.5 146c0 12 1.83301 24.167 5.5 36.5s14.834 42.166 33.501 89.499l114 282c14.667 38.667 22 64 22 76c0 14.667 -6.66699 24.167 -20 28.5s-40 6.5 -80 6.5v16h477
v-16l-52 -3c-32 -2.66699 -53 -12.167 -63 -28.5s-23.667 -45.666 -41 -87.999l-52 -127.5l-58.5 -145c-21.667 -54 -35 -87.833 -40 -101.5s-9.66699 -29.334 -14 -47.001s-6.5 -32.5 -6.5 -44.5c0 -32 9.83301 -57.5 29.5 -76.5s45.5 -28.5 77.5 -28.5
c41.333 0 79.5 8.33301 114.5 25s61.667 37.5 80 62.5s33.833 48.833 46.5 71.5s22.5 42.167 29.5 58.5s28.333 70.833 64 163.5zM687.998 783l-8 -10l-135 64c-23.333 13.333 -40.833 26.166 -52.5 38.499s-17.5 26.833 -17.5 43.5c0 22.667 2 36.167 6 40.5
s10.5 8 19.5 11s18.5 4.5 28.5 4.5c19.333 0 35.333 -8 48 -24c18.667 -41.333 35.667 -75.166 51 -101.499s35.333 -48.5 60 -66.5z" />
    <glyph glyph-name="Uacute" unicode="&#xda;" horiz-adv-x="853" 
d="M846 559c6 15.333 11.8311 32.833 17.498 52.5s8.5 34.834 8.5 45.501c0 22 -8.16699 36.833 -24.5 44.5s-45.833 11.5 -88.5 11.5v16h304v-16l-67 -5c-24.667 -2.66699 -45 -12 -61 -28s-35.167 -52 -57.5 -108l-78 -198c-29.667 -76 -55.667 -137 -78 -183
s-55.333 -91.333 -99 -136s-120.167 -67 -229.5 -67c-89.333 0 -157.166 20 -203.499 60s-69.5 88.667 -69.5 146c0 12 1.83301 24.167 5.5 36.5s14.834 42.166 33.501 89.499l114 282c14.667 38.667 22 64 22 76c0 14.667 -6.66699 24.167 -20 28.5s-40 6.5 -80 6.5v16h477
v-16l-52 -3c-32 -2.66699 -53 -12.167 -63 -28.5s-23.667 -45.666 -41 -87.999l-52 -127.5l-58.5 -145c-21.667 -54 -35 -87.833 -40 -101.5s-9.66699 -29.334 -14 -47.001s-6.5 -32.5 -6.5 -44.5c0 -32 9.83301 -57.5 29.5 -76.5s45.5 -28.5 77.5 -28.5
c41.333 0 79.5 8.33301 114.5 25s61.667 37.5 80 62.5s33.833 48.833 46.5 71.5s22.5 42.167 29.5 58.5s28.333 70.833 64 163.5zM709.998 832c-19.333 -9.33301 -44.333 -18.834 -75 -28.501l-88 -27.5l-6 10c29.333 16.667 55 38 77 64l72 98c7.33301 8 14 13.333 20 16
s13.667 4 23 4c12 0 23.167 -2.16699 33.5 -6.5s16.833 -9 19.5 -14s4 -13.5 4 -25.5c0 -23.333 -5.5 -40.666 -16.5 -51.999s-32.167 -24 -63.5 -38z" />
    <glyph glyph-name="Ucircumflex" unicode="&#xdb;" horiz-adv-x="853" 
d="M846 559c6 15.333 11.8311 32.833 17.498 52.5s8.5 34.834 8.5 45.501c0 22 -8.16699 36.833 -24.5 44.5s-45.833 11.5 -88.5 11.5v16h304v-16l-67 -5c-24.667 -2.66699 -45 -12 -61 -28s-35.167 -52 -57.5 -108l-78 -198c-29.667 -76 -55.667 -137 -78 -183
s-55.333 -91.333 -99 -136s-120.167 -67 -229.5 -67c-89.333 0 -157.166 20 -203.499 60s-69.5 88.667 -69.5 146c0 12 1.83301 24.167 5.5 36.5s14.834 42.166 33.501 89.499l114 282c14.667 38.667 22 64 22 76c0 14.667 -6.66699 24.167 -20 28.5s-40 6.5 -80 6.5v16h477
v-16l-52 -3c-32 -2.66699 -53 -12.167 -63 -28.5s-23.667 -45.666 -41 -87.999l-52 -127.5l-58.5 -145c-21.667 -54 -35 -87.833 -40 -101.5s-9.66699 -29.334 -14 -47.001s-6.5 -32.5 -6.5 -44.5c0 -32 9.83301 -57.5 29.5 -76.5s45.5 -28.5 77.5 -28.5
c41.333 0 79.5 8.33301 114.5 25s61.667 37.5 80 62.5s33.833 48.833 46.5 71.5s22.5 42.167 29.5 58.5s28.333 70.833 64 163.5zM763.998 768l-11 -4l-53.5 65.5c-18.333 22.333 -31.5 35.833 -39.5 40.5c-16 -4.66699 -42.667 -17.667 -80 -39l-108 -63l-9 8l175 181h86z
" />
    <glyph glyph-name="Udieresis" unicode="&#xdc;" horiz-adv-x="853" 
d="M846 559c6 15.333 11.8311 32.833 17.498 52.5s8.5 34.834 8.5 45.501c0 22 -8.16699 36.833 -24.5 44.5s-45.833 11.5 -88.5 11.5v16h304v-16l-67 -5c-24.667 -2.66699 -45 -12 -61 -28s-35.167 -52 -57.5 -108l-78 -198c-29.667 -76 -55.667 -137 -78 -183
s-55.333 -91.333 -99 -136s-120.167 -67 -229.5 -67c-89.333 0 -157.166 20 -203.499 60s-69.5 88.667 -69.5 146c0 12 1.83301 24.167 5.5 36.5s14.834 42.166 33.501 89.499l114 282c14.667 38.667 22 64 22 76c0 14.667 -6.66699 24.167 -20 28.5s-40 6.5 -80 6.5v16h477
v-16l-52 -3c-32 -2.66699 -53 -12.167 -63 -28.5s-23.667 -45.666 -41 -87.999l-52 -127.5l-58.5 -145c-21.667 -54 -35 -87.833 -40 -101.5s-9.66699 -29.334 -14 -47.001s-6.5 -32.5 -6.5 -44.5c0 -32 9.83301 -57.5 29.5 -76.5s45.5 -28.5 77.5 -28.5
c41.333 0 79.5 8.33301 114.5 25s61.667 37.5 80 62.5s33.833 48.833 46.5 71.5s22.5 42.167 29.5 58.5s28.333 70.833 64 163.5zM521.998 867c0 16.667 6.66699 31.667 20 45s29 20 47 20s33.333 -6.33301 46 -19s19 -28 19 -46c0 -19.333 -6 -35.333 -18 -48
s-27.667 -19 -47 -19c-18 0 -33.667 6.66699 -47 20s-20 29 -20 47zM741.998 867c0 16.667 6.66797 31.667 20.001 45s28.666 20 45.999 20c18 0 33.5 -6.5 46.5 -19.5s19.5 -28.167 19.5 -45.5c0 -19.333 -6.33301 -35.333 -19 -48s-28.334 -19 -47.001 -19
c-17.333 0 -32.666 6.66699 -45.999 20s-20 29 -20 47z" />
    <glyph glyph-name="Yacute" unicode="&#xdd;" horiz-adv-x="863" 
d="M529 354l50.9971 101.5l67.5 128c27 49.667 55.667 88.167 86 115.5s71.5 41 123.5 41c40 0 74.167 -12.5 102.5 -37.5s42.5 -57.167 42.5 -96.5c0 -40 -12.667 -73 -38 -99s-58 -39 -98 -39c-35.333 0 -66 10.667 -92 32s-39 49 -39 83c0 12.667 1 22.334 3 29.001
s5 14.167 9 22.5s9.66699 17.333 17 27s11 18.167 11 25.5c0 4.66699 -3 7 -9 7c-8 0 -18 -5.66699 -30 -17s-26 -29.333 -42 -54s-37.5 -63.667 -64.5 -117l-65 -130l-36.5 -76l-70 -175c-16.667 -44 -25 -71.333 -25 -82s7.5 -17.834 22.5 -21.501s40.5 -5.5 76.5 -5.5
v-16h-475v16l55 4c24.667 2.66699 42.834 10.5 54.501 23.5s26.334 39.833 44.001 80.5l46.5 110.5l38 95.5l-24.5 77.5l-32.5 98l-37.5 105c-14.333 39 -24.833 64.167 -31.5 75.5s-17.167 18.333 -31.5 21s-26.166 4.16699 -35.499 4.5s-18 0.833008 -26 1.5v16h467v-16
c-39.333 -3.33301 -66.833 -6.5 -82.5 -9.5s-23.5 -16.833 -23.5 -41.5c0 -11.333 3 -27.333 9 -48s10.333 -36 13 -46l66 -214h4zM634.997 832c-19.333 -9.33301 -44.333 -18.834 -75 -28.501l-88 -27.5l-6 10c29.333 16.667 55 38 77 64l72 98c7.33301 8 14 13.333 20 16
s13.667 4 23 4c12 0 23.167 -2.16699 33.5 -6.5s16.833 -9 19.5 -14s4 -13.5 4 -25.5c0 -23.333 -5.5 -40.666 -16.5 -51.999s-32.167 -24 -63.5 -38z" />
    <glyph glyph-name="Thorn" unicode="&#xde;" horiz-adv-x="840" 
d="M528 593l50.9971 0.00292969c52 0 96.833 -4.5 134.5 -13.5s68.334 -22.333 92.001 -40s40.834 -38.334 51.501 -62.001s16 -48.5 16 -74.5c0 -74 -31.833 -132.333 -95.5 -175s-140.834 -64 -231.501 -64c-44.667 0 -80.667 0.166992 -108 0.5
s-54.666 1.16602 -81.999 2.49902l-16 -42c-16 -41.333 -24 -68 -24 -80s6.66699 -19.833 20 -23.5s42.666 -5.5 87.999 -5.5v-16h-485v16l55 4c24.667 2.66699 42.834 10.5 54.501 23.5s28 43.5 49 91.5l62 148l61.5 155.5l52.5 135c14.333 37 23.5 62 27.5 75
s6 23.5 6 31.5c0 14 -6.16699 23 -18.5 27s-39.5 6 -81.5 6v16h478v-16l-52 -3c-31.333 0 -52.166 -9.33301 -62.499 -28s-24.5 -48.334 -42.5 -89.001zM363.997 186.003l86.002 4c45.333 4.66699 87.166 39.167 125.499 103.5s57.5 124.833 57.5 181.5
c0 28.667 -5.33301 52 -16 70s-26.334 27 -47.001 27l-49 2l-24 -57l-60.5 -150z" />
    <glyph glyph-name="germandbls" unicode="&#xdf;" horiz-adv-x="649" 
d="M569 639c0 29.333 -6.33008 50.6709 -18.9971 64.0039s-30 20 -52 20c-38 0 -72 -20.5 -102 -61.5s-54.667 -109.167 -74 -204.5s-38 -173 -56 -233s-40.5 -115.667 -67.5 -167s-55.833 -96.833 -86.5 -136.5s-69.667 -75.167 -117 -106.5s-98.333 -47 -153 -47
c-37.333 0 -68.833 10.5 -94.5 31.5s-38.5 48.167 -38.5 81.5c0 23.333 9.33301 44 28 62s41 27 67 27c23.333 0 44.166 -7.83301 62.499 -23.5s27.5 -35.167 27.5 -58.5c0 -27.333 -16.667 -58.333 -50 -93c0 -6.66699 5.66699 -10 17 -10c30.667 0 56.167 14.333 76.5 43
s39.5 79 57.5 151l56.5 222.5c19.667 76.333 33.667 126.166 42 149.499s24.5 62.833 48.5 118.5s68.833 114.834 134.5 177.501s141.5 94 227.5 94c52 0 90.833 -9.5 116.5 -28.5s38.5 -43.167 38.5 -72.5c0 -31.333 -10.167 -57.5 -30.5 -78.5s-51.5 -39.167 -93.5 -54.5
c-6.66699 -4.66699 -11.5 -10.667 -14.5 -18s-4.5 -14 -4.5 -20c0 -16.667 2.5 -32.167 7.5 -46.5s12.833 -29.833 23.5 -46.5l29.5 -48c9 -15.333 17.833 -31.833 26.5 -49.5s15.167 -35.167 19.5 -52.5s6.5 -35 6.5 -53c0 -50 -20.333 -92.833 -61 -128.5
s-91 -53.5 -151 -53.5c-38 0 -72.833 8.66699 -104.5 26s-47.5 43.666 -47.5 78.999c0 22 7 40.333 21 55s32.333 22 55 22c18 0 34.5 -5.66699 49.5 -17s22.5 -27.333 22.5 -48c0 -25.333 -8 -44.333 -24 -57s-24 -21 -24 -25c0 -6 3.5 -10.667 10.5 -14s17.167 -5 30.5 -5
c19.333 0 34.833 7.83301 46.5 23.5s17.5 35.5 17.5 59.5c0 17.333 -2.33301 32.833 -7 46.5s-12.334 30.167 -23.001 49.5l-48 81c-10 17.333 -17.5 32.666 -22.5 45.999s-7.5 28.333 -7.5 45c0 33.333 18.667 62.5 56 87.5l86.5 57.5
c20.333 13.333 36.166 33.166 47.499 59.499s17 52.166 17 77.499z" />
    <glyph glyph-name="agrave" unicode="&#xe0;" horiz-adv-x="662" 
d="M671 474l-173.001 -380c-2 -4 -5.33301 -12.667 -10 -26s-7 -21.666 -7 -24.999c0 -5.33301 1.16699 -9.5 3.5 -12.5s5.83301 -4.5 10.5 -4.5c9.33301 0 22.333 6.66699 39 20s34.5 32.166 53.5 56.499s36.167 51.5 51.5 81.5l13 -6
c-18.667 -34.667 -37.834 -65.5 -57.501 -92.5s-44.167 -49.667 -73.5 -68s-64.666 -27.5 -105.999 -27.5c-33.333 0 -58.333 9.16699 -75 27.5s-25 45.833 -25 82.5c-26 -38.667 -50.833 -66.667 -74.5 -84s-54.167 -26 -91.5 -26c-40 0 -72.833 12.833 -98.5 38.5
s-38.5 59.167 -38.5 100.5c0 78.667 36.167 157.5 108.5 236.5s152.5 118.5 240.5 118.5c20.667 0 39.334 -5 56.001 -15s25 -25.667 25 -47l-3 -24l35 76h197zM428.999 420c0 10.667 -2.16895 18.502 -6.50195 23.502s-11.166 7.5 -20.499 7.5
c-12.667 0 -27.167 -10 -43.5 -30s-37.5 -55 -63.5 -105s-52 -105.333 -78 -166s-39 -100 -39 -118c0 -6 1.33301 -10.667 4 -14s6.66699 -5 12 -5c20.667 0 40.334 10.167 59.001 30.5s33 37.666 43 51.999s23.167 38.666 39.5 72.999s36 78.5 59 132.5
s34.5 93.667 34.5 119zM561.997 533.002l-8 -10l-135 64c-23.333 13.333 -40.833 26.166 -52.5 38.499s-17.5 26.833 -17.5 43.5c0 22.667 2 36.167 6 40.5s10.5 8 19.5 11s18.5 4.5 28.5 4.5c19.333 0 35.333 -8 48 -24c18.667 -41.333 35.667 -75.166 51 -101.499
s35.333 -48.5 60 -66.5z" />
    <glyph glyph-name="aacute" unicode="&#xe1;" horiz-adv-x="662" 
d="M671 474l-173.001 -380c-2 -4 -5.33301 -12.667 -10 -26s-7 -21.666 -7 -24.999c0 -5.33301 1.16699 -9.5 3.5 -12.5s5.83301 -4.5 10.5 -4.5c9.33301 0 22.333 6.66699 39 20s34.5 32.166 53.5 56.499s36.167 51.5 51.5 81.5l13 -6
c-18.667 -34.667 -37.834 -65.5 -57.501 -92.5s-44.167 -49.667 -73.5 -68s-64.666 -27.5 -105.999 -27.5c-33.333 0 -58.333 9.16699 -75 27.5s-25 45.833 -25 82.5c-26 -38.667 -50.833 -66.667 -74.5 -84s-54.167 -26 -91.5 -26c-40 0 -72.833 12.833 -98.5 38.5
s-38.5 59.167 -38.5 100.5c0 78.667 36.167 157.5 108.5 236.5s152.5 118.5 240.5 118.5c20.667 0 39.334 -5 56.001 -15s25 -25.667 25 -47l-3 -24l35 76h197zM428.999 420c0 10.667 -2.16895 18.502 -6.50195 23.502s-11.166 7.5 -20.499 7.5
c-12.667 0 -27.167 -10 -43.5 -30s-37.5 -55 -63.5 -105s-52 -105.333 -78 -166s-39 -100 -39 -118c0 -6 1.33301 -10.667 4 -14s6.66699 -5 12 -5c20.667 0 40.334 10.167 59.001 30.5s33 37.666 43 51.999s23.167 38.666 39.5 72.999s36 78.5 59 132.5
s34.5 93.667 34.5 119zM533.997 582.002c-19.333 -9.33301 -44.333 -18.834 -75 -28.501l-88 -27.5l-6 10c29.333 16.667 55 38 77 64l72 98c7.33301 8 14 13.333 20 16s13.667 4 23 4c12 0 23.167 -2.16699 33.5 -6.5s16.833 -9 19.5 -14s4 -13.5 4 -25.5
c0 -23.333 -5.5 -40.666 -16.5 -51.999s-32.167 -24 -63.5 -38z" />
    <glyph glyph-name="acircumflex" unicode="&#xe2;" horiz-adv-x="662" 
d="M671 474l-173.001 -380c-2 -4 -5.33301 -12.667 -10 -26s-7 -21.666 -7 -24.999c0 -5.33301 1.16699 -9.5 3.5 -12.5s5.83301 -4.5 10.5 -4.5c9.33301 0 22.333 6.66699 39 20s34.5 32.166 53.5 56.499s36.167 51.5 51.5 81.5l13 -6
c-18.667 -34.667 -37.834 -65.5 -57.501 -92.5s-44.167 -49.667 -73.5 -68s-64.666 -27.5 -105.999 -27.5c-33.333 0 -58.333 9.16699 -75 27.5s-25 45.833 -25 82.5c-26 -38.667 -50.833 -66.667 -74.5 -84s-54.167 -26 -91.5 -26c-40 0 -72.833 12.833 -98.5 38.5
s-38.5 59.167 -38.5 100.5c0 78.667 36.167 157.5 108.5 236.5s152.5 118.5 240.5 118.5c20.667 0 39.334 -5 56.001 -15s25 -25.667 25 -47l-3 -24l35 76h197zM428.999 420c0 10.667 -2.16895 18.502 -6.50195 23.502s-11.166 7.5 -20.499 7.5
c-12.667 0 -27.167 -10 -43.5 -30s-37.5 -55 -63.5 -105s-52 -105.333 -78 -166s-39 -100 -39 -118c0 -6 1.33301 -10.667 4 -14s6.66699 -5 12 -5c20.667 0 40.334 10.167 59.001 30.5s33 37.666 43 51.999s23.167 38.666 39.5 72.999s36 78.5 59 132.5
s34.5 93.667 34.5 119zM607.997 518.002l-11 -4l-53.5 65.5c-18.333 22.333 -31.5 35.833 -39.5 40.5c-16 -4.66699 -42.667 -17.667 -80 -39l-108 -63l-9 8l175 181h86z" />
    <glyph glyph-name="atilde" unicode="&#xe3;" horiz-adv-x="662" 
d="M671 474l-173.001 -380c-2 -4 -5.33301 -12.667 -10 -26s-7 -21.666 -7 -24.999c0 -5.33301 1.16699 -9.5 3.5 -12.5s5.83301 -4.5 10.5 -4.5c9.33301 0 22.333 6.66699 39 20s34.5 32.166 53.5 56.499s36.167 51.5 51.5 81.5l13 -6
c-18.667 -34.667 -37.834 -65.5 -57.501 -92.5s-44.167 -49.667 -73.5 -68s-64.666 -27.5 -105.999 -27.5c-33.333 0 -58.333 9.16699 -75 27.5s-25 45.833 -25 82.5c-26 -38.667 -50.833 -66.667 -74.5 -84s-54.167 -26 -91.5 -26c-40 0 -72.833 12.833 -98.5 38.5
s-38.5 59.167 -38.5 100.5c0 78.667 36.167 157.5 108.5 236.5s152.5 118.5 240.5 118.5c20.667 0 39.334 -5 56.001 -15s25 -25.667 25 -47l-3 -24l35 76h197zM428.999 420c0 10.667 -2.16895 18.502 -6.50195 23.502s-11.166 7.5 -20.499 7.5
c-12.667 0 -27.167 -10 -43.5 -30s-37.5 -55 -63.5 -105s-52 -105.333 -78 -166s-39 -100 -39 -118c0 -6 1.33301 -10.667 4 -14s6.66699 -5 12 -5c20.667 0 40.334 10.167 59.001 30.5s33 37.666 43 51.999s23.167 38.666 39.5 72.999s36 78.5 59 132.5
s34.5 93.667 34.5 119zM389.997 595.002c-16 0 -27.666 -2.66797 -34.999 -8.00098s-18.333 -17.666 -33 -36.999h-18c26.667 45.333 51.5 77.5 74.5 96.5s49.167 28.5 78.5 28.5c19.333 0 43.333 -6 72 -18s50.667 -18 66 -18s27.666 3.33301 36.999 10
s20.333 18.667 33 36h18c-26.667 -46 -51.5 -78.5 -74.5 -97.5s-49.5 -28.5 -79.5 -28.5c-16.667 0 -41.5 6 -74.5 18s-54.5 18 -64.5 18z" />
    <glyph glyph-name="adieresis" unicode="&#xe4;" horiz-adv-x="662" 
d="M671 474l-173.001 -380c-2 -4 -5.33301 -12.667 -10 -26s-7 -21.666 -7 -24.999c0 -5.33301 1.16699 -9.5 3.5 -12.5s5.83301 -4.5 10.5 -4.5c9.33301 0 22.333 6.66699 39 20s34.5 32.166 53.5 56.499s36.167 51.5 51.5 81.5l13 -6
c-18.667 -34.667 -37.834 -65.5 -57.501 -92.5s-44.167 -49.667 -73.5 -68s-64.666 -27.5 -105.999 -27.5c-33.333 0 -58.333 9.16699 -75 27.5s-25 45.833 -25 82.5c-26 -38.667 -50.833 -66.667 -74.5 -84s-54.167 -26 -91.5 -26c-40 0 -72.833 12.833 -98.5 38.5
s-38.5 59.167 -38.5 100.5c0 78.667 36.167 157.5 108.5 236.5s152.5 118.5 240.5 118.5c20.667 0 39.334 -5 56.001 -15s25 -25.667 25 -47l-3 -24l35 76h197zM428.999 420c0 10.667 -2.16895 18.502 -6.50195 23.502s-11.166 7.5 -20.499 7.5
c-12.667 0 -27.167 -10 -43.5 -30s-37.5 -55 -63.5 -105s-52 -105.333 -78 -166s-39 -100 -39 -118c0 -6 1.33301 -10.667 4 -14s6.66699 -5 12 -5c20.667 0 40.334 10.167 59.001 30.5s33 37.666 43 51.999s23.167 38.666 39.5 72.999s36 78.5 59 132.5
s34.5 93.667 34.5 119zM295.997 617.002c0 16.667 6.66699 31.667 20 45s29 20 47 20s33.333 -6.33301 46 -19s19 -28 19 -46c0 -19.333 -6 -35.333 -18 -48s-27.667 -19 -47 -19c-18 0 -33.667 6.66699 -47 20s-20 29 -20 47zM515.997 617.002
c0 16.667 6.66797 31.667 20.001 45s28.666 20 45.999 20c18 0 33.5 -6.5 46.5 -19.5s19.5 -28.167 19.5 -45.5c0 -19.333 -6.33301 -35.333 -19 -48s-28.334 -19 -47.001 -19c-17.333 0 -32.666 6.66699 -45.999 20s-20 29 -20 47z" />
    <glyph glyph-name="aring" unicode="&#xe5;" horiz-adv-x="662" 
d="M671 474l-173.001 -380c-2 -4 -5.33301 -12.667 -10 -26s-7 -21.666 -7 -24.999c0 -5.33301 1.16699 -9.5 3.5 -12.5s5.83301 -4.5 10.5 -4.5c9.33301 0 22.333 6.66699 39 20s34.5 32.166 53.5 56.499s36.167 51.5 51.5 81.5l13 -6
c-18.667 -34.667 -37.834 -65.5 -57.501 -92.5s-44.167 -49.667 -73.5 -68s-64.666 -27.5 -105.999 -27.5c-33.333 0 -58.333 9.16699 -75 27.5s-25 45.833 -25 82.5c-26 -38.667 -50.833 -66.667 -74.5 -84s-54.167 -26 -91.5 -26c-40 0 -72.833 12.833 -98.5 38.5
s-38.5 59.167 -38.5 100.5c0 78.667 36.167 157.5 108.5 236.5s152.5 118.5 240.5 118.5c20.667 0 39.334 -5 56.001 -15s25 -25.667 25 -47l-3 -24l35 76h197zM428.999 420c0 10.667 -2.16895 18.502 -6.50195 23.502s-11.166 7.5 -20.499 7.5
c-12.667 0 -27.167 -10 -43.5 -30s-37.5 -55 -63.5 -105s-52 -105.333 -78 -166s-39 -100 -39 -118c0 -6 1.33301 -10.667 4 -14s6.66699 -5 12 -5c20.667 0 40.334 10.167 59.001 30.5s33 37.666 43 51.999s23.167 38.666 39.5 72.999s36 78.5 59 132.5
s34.5 93.667 34.5 119zM393.997 630.002c0 -18.667 6 -34 18 -46s27.333 -18 46 -18s34.167 5.83301 46.5 17.5s18.5 27.167 18.5 46.5c0 18.667 -6.16699 34.167 -18.5 46.5s-27.833 18.5 -46.5 18.5s-34 -6 -46 -18s-18 -27.667 -18 -47zM352.997 630.002
c0 30 10.333 54.667 31 74s45.667 29 75 29s54.5 -9.5 75.5 -28.5s31.5 -43.833 31.5 -74.5c0 -29.333 -10.5 -53.833 -31.5 -73.5s-46.167 -29.5 -75.5 -29.5c-28.667 0 -53.5 9.83301 -74.5 29.5s-31.5 44.167 -31.5 73.5z" />
    <glyph glyph-name="ae" unicode="&#xe6;" horiz-adv-x="842" 
d="M428 420c0 10.667 -2.16699 18.5 -6.5 23.5s-10.833 7.5 -19.5 7.5c-13.333 0 -27.833 -9.66699 -43.5 -29s-36.5 -54 -62.5 -104s-52.167 -105.5 -78.5 -166.5s-39.5 -99.833 -39.5 -116.5c0 -6.66699 1.5 -11.667 4.5 -15s7.5 -5 13.5 -5c20 0 41.167 12.167 63.5 36.5
s47 62 74 113s49.5 100.333 67.5 148s27 83.5 27 107.5zM791 129c-26.667 -40.667 -59.166 -74 -97.499 -100s-84.833 -39 -139.5 -39c-49.333 0 -95.166 14.333 -137.499 43s-63.5 73.667 -63.5 135c-36 -69.333 -67.833 -116.333 -95.5 -141s-63.834 -37 -108.501 -37
c-40 0 -72.833 12.833 -98.5 38.5s-38.5 59.167 -38.5 100.5c0 78.667 36.167 157.5 108.5 236.5s152.5 118.5 240.5 118.5c29.333 0 50.166 -5.83301 62.499 -17.5s18.5 -26.834 18.5 -45.501l-2 -19l32 72h171c42 5.33301 68.333 8 79 8
c45.333 0 81.666 -9.33301 108.999 -28s41 -42.334 41 -71.001c0 -53.333 -30.833 -93.5 -92.5 -120.5s-136.167 -40.5 -223.5 -40.5c-4 -12.667 -7.66699 -29.167 -11 -49.5s-5 -37.166 -5 -50.499c0 -37.333 5.16699 -63.666 15.5 -78.999s25.5 -23 45.5 -23
c15.333 0 29 1.83301 41 5.5s26 10.167 42 19.5s32.833 23 50.5 41s31.834 35.667 42.501 53zM559.001 233c46.667 5.33301 89.0029 31.501 127.003 78.501s57 88.5 57 124.5c0 10 -1.33301 17.667 -4 23s-8.66699 8 -18 8c-14.667 0 -29.334 -8 -44.001 -24
s-30.334 -38.333 -47.001 -67s-30.834 -54.834 -42.501 -78.501s-21.167 -45.167 -28.5 -64.5z" />
    <glyph glyph-name="ccedilla" unicode="&#xe7;" horiz-adv-x="490" 
d="M378 467c-14.667 0 -30.998 -8.99902 -48.998 -26.999s-36.667 -44.667 -56 -80s-35 -74.833 -47 -118.5s-18 -82.5 -18 -116.5c0 -38.667 5.83301 -65.5 17.5 -80.5s28.167 -22.5 49.5 -22.5c16.667 0 31.667 2.83301 45 8.5s28.166 14.5 44.499 26.5s30 24.333 41 37
s22.5 27.667 34.5 45l14 -10c-38 -52.667 -75.833 -89 -113.5 -109s-77.834 -30 -120.501 -30c-50 0 -96.833 15.167 -140.5 45.5s-65.5 74.5 -65.5 132.5c0 79.333 35.167 151.833 105.5 217.5s154.5 98.5 252.5 98.5c58 0 98.5 -10.667 121.5 -32s34.5 -45 34.5 -71
c0 -28.667 -8.5 -51.834 -25.5 -69.501s-38.833 -26.5 -65.5 -26.5c-24 0 -44 7 -60 21s-24 31.333 -24 52c0 17.333 7.83301 36 23.5 56s23.5 33.667 23.5 41c0 4 -1.83301 7 -5.5 9s-9.16699 3 -16.5 3zM155.002 0.000976562l-53.999 -59.002
c3.33301 0.666992 8.83301 1.33398 16.5 2.00098s14.5 1 20.5 1c38.667 0 65.5 -8 80.5 -24s22.5 -34 22.5 -54c0 -38 -17 -65.833 -51 -83.5s-68.667 -26.5 -104 -26.5c-21.333 0 -39.166 4.5 -53.499 13.5s-21.5 20.833 -21.5 35.5c0 8 3.16699 15.833 9.5 23.5
s14.833 11.5 25.5 11.5c12.667 0 21.667 -3.5 27 -10.5s8 -15.167 8 -24.5c0 -6 -3.66699 -15.667 -11 -29c0 -2.66699 7.33301 -5 22 -7c14 0 27 7.5 39 22.5s18 34.5 18 58.5c0 18 -4.83301 31.333 -14.5 40s-24.5 13 -44.5 13c-12.667 0 -22.334 -1.16699 -29.001 -3.5
s-11.334 -4.16602 -14.001 -5.49902l-4 7l91 99h21z" />
    <glyph glyph-name="egrave" unicode="&#xe8;" horiz-adv-x="507" 
d="M222 233c46.667 5.33301 89.0029 31.501 127.003 78.501s57 88.5 57 124.5c0 10 -1.33301 17.667 -4 23s-8.66699 8 -18 8c-14.667 0 -29.334 -8 -44.001 -24s-30.334 -38.333 -47.001 -67s-30.834 -54.834 -42.501 -78.501s-21.167 -45.167 -28.5 -64.5z
M219.003 222.001c-4 -12.667 -7.66797 -29.1689 -11.001 -49.502s-5 -37.166 -5 -50.499c0 -37.333 5.16699 -63.666 15.5 -78.999s25.5 -23 45.5 -23c15.333 0 29 1.83301 41 5.5s26 10.167 42 19.5s32.833 23 50.5 41s31.834 35.667 42.501 53l14 -10
c-28 -39.333 -61 -72.333 -99 -99s-84 -40 -138 -40c-49.333 0 -95.5 14.833 -138.5 44.5s-64.5 73.167 -64.5 130.5c0 80 36.167 153.167 108.5 219.5s157.5 99.5 255.5 99.5c46 0 83.667 -10.5 113 -31.5s44 -45.167 44 -72.5c0 -52.667 -30.667 -92.167 -92 -118.5
s-136 -39.5 -224 -39.5zM405.002 532.999l-8 -10l-135 64c-23.333 13.333 -40.833 26.166 -52.5 38.499s-17.5 26.833 -17.5 43.5c0 22.667 2 36.167 6 40.5s10.5 8 19.5 11s18.5 4.5 28.5 4.5c19.333 0 35.333 -8 48 -24c18.667 -41.333 35.667 -75.166 51 -101.499
s35.333 -48.5 60 -66.5z" />
    <glyph glyph-name="eacute" unicode="&#xe9;" horiz-adv-x="507" 
d="M222 233c46.667 5.33301 89.0029 31.501 127.003 78.501s57 88.5 57 124.5c0 10 -1.33301 17.667 -4 23s-8.66699 8 -18 8c-14.667 0 -29.334 -8 -44.001 -24s-30.334 -38.333 -47.001 -67s-30.834 -54.834 -42.501 -78.501s-21.167 -45.167 -28.5 -64.5z
M219.003 222.001c-4 -12.667 -7.66797 -29.1689 -11.001 -49.502s-5 -37.166 -5 -50.499c0 -37.333 5.16699 -63.666 15.5 -78.999s25.5 -23 45.5 -23c15.333 0 29 1.83301 41 5.5s26 10.167 42 19.5s32.833 23 50.5 41s31.834 35.667 42.501 53l14 -10
c-28 -39.333 -61 -72.333 -99 -99s-84 -40 -138 -40c-49.333 0 -95.5 14.833 -138.5 44.5s-64.5 73.167 -64.5 130.5c0 80 36.167 153.167 108.5 219.5s157.5 99.5 255.5 99.5c46 0 83.667 -10.5 113 -31.5s44 -45.167 44 -72.5c0 -52.667 -30.667 -92.167 -92 -118.5
s-136 -39.5 -224 -39.5zM457.002 581.999c-19.333 -9.33301 -44.333 -18.834 -75 -28.501l-88 -27.5l-6 10c29.333 16.667 55 38 77 64l72 98c7.33301 8 14 13.333 20 16s13.667 4 23 4c12 0 23.167 -2.16699 33.5 -6.5s16.833 -9 19.5 -14s4 -13.5 4 -25.5
c0 -23.333 -5.5 -40.666 -16.5 -51.999s-32.167 -24 -63.5 -38z" />
    <glyph glyph-name="ecircumflex" unicode="&#xea;" horiz-adv-x="507" 
d="M222 233c46.667 5.33301 89.0029 31.501 127.003 78.501s57 88.5 57 124.5c0 10 -1.33301 17.667 -4 23s-8.66699 8 -18 8c-14.667 0 -29.334 -8 -44.001 -24s-30.334 -38.333 -47.001 -67s-30.834 -54.834 -42.501 -78.501s-21.167 -45.167 -28.5 -64.5z
M219.003 222.001c-4 -12.667 -7.66797 -29.1689 -11.001 -49.502s-5 -37.166 -5 -50.499c0 -37.333 5.16699 -63.666 15.5 -78.999s25.5 -23 45.5 -23c15.333 0 29 1.83301 41 5.5s26 10.167 42 19.5s32.833 23 50.5 41s31.834 35.667 42.501 53l14 -10
c-28 -39.333 -61 -72.333 -99 -99s-84 -40 -138 -40c-49.333 0 -95.5 14.833 -138.5 44.5s-64.5 73.167 -64.5 130.5c0 80 36.167 153.167 108.5 219.5s157.5 99.5 255.5 99.5c46 0 83.667 -10.5 113 -31.5s44 -45.167 44 -72.5c0 -52.667 -30.667 -92.167 -92 -118.5
s-136 -39.5 -224 -39.5zM491.002 517.999l-11 -4l-53.5 65.5c-18.333 22.333 -31.5 35.833 -39.5 40.5c-16 -4.66699 -42.667 -17.667 -80 -39l-108 -63l-9 8l175 181h86z" />
    <glyph glyph-name="edieresis" unicode="&#xeb;" horiz-adv-x="507" 
d="M222 233c46.667 5.33301 89.0029 31.501 127.003 78.501s57 88.5 57 124.5c0 10 -1.33301 17.667 -4 23s-8.66699 8 -18 8c-14.667 0 -29.334 -8 -44.001 -24s-30.334 -38.333 -47.001 -67s-30.834 -54.834 -42.501 -78.501s-21.167 -45.167 -28.5 -64.5z
M219.003 222.001c-4 -12.667 -7.66797 -29.1689 -11.001 -49.502s-5 -37.166 -5 -50.499c0 -37.333 5.16699 -63.666 15.5 -78.999s25.5 -23 45.5 -23c15.333 0 29 1.83301 41 5.5s26 10.167 42 19.5s32.833 23 50.5 41s31.834 35.667 42.501 53l14 -10
c-28 -39.333 -61 -72.333 -99 -99s-84 -40 -138 -40c-49.333 0 -95.5 14.833 -138.5 44.5s-64.5 73.167 -64.5 130.5c0 80 36.167 153.167 108.5 219.5s157.5 99.5 255.5 99.5c46 0 83.667 -10.5 113 -31.5s44 -45.167 44 -72.5c0 -52.667 -30.667 -92.167 -92 -118.5
s-136 -39.5 -224 -39.5zM199.002 616.999c0 16.667 6.66699 31.667 20 45s29 20 47 20s33.333 -6.33301 46 -19s19 -28 19 -46c0 -19.333 -6 -35.333 -18 -48s-27.667 -19 -47 -19c-18 0 -33.667 6.66699 -47 20s-20 29 -20 47zM419.002 616.999
c0 16.667 6.66797 31.667 20.001 45s28.666 20 45.999 20c18 0 33.5 -6.5 46.5 -19.5s19.5 -28.167 19.5 -45.5c0 -19.333 -6.33301 -35.333 -19 -48s-28.334 -19 -47.001 -19c-17.333 0 -32.666 6.66699 -45.999 20s-20 29 -20 47z" />
    <glyph glyph-name="igrave" unicode="&#xec;" horiz-adv-x="368" 
d="M31 322c37.333 66.667 69.833 110.336 97.5 131.003s57.834 31 90.501 31c29.333 0 54.833 -9.83301 76.5 -29.5s32.5 -49.167 32.5 -88.5c0 -17.333 -4 -37 -12 -59s-19 -47.5 -33 -76.5s-33.333 -65.333 -58 -109s-37 -71.834 -37 -84.501c0 -6 1.5 -10.5 4.5 -13.5
s7.5 -4.5 13.5 -4.5c7.33301 0 17 4.16699 29 12.5s23.667 19.5 35 33.5s23.166 30.167 35.499 48.5s22.5 34.833 30.5 49.5l13 -7c-36 -58.667 -66.167 -101 -90.5 -127s-61.166 -39 -110.499 -39c-36 0 -63.333 10.5 -82 31.5s-28 47.5 -28 79.5
c0 21.333 3.16699 40.5 9.5 57.5s19.666 45.5 39.999 85.5l53.5 107c15.333 31.333 25.333 52.666 30 63.999s7 19.666 7 24.999c0 4.66699 -1.16699 8.16699 -3.5 10.5s-5.83301 3.5 -10.5 3.5s-12.5 -4.16699 -23.5 -12.5s-25.333 -23 -43 -44s-35.5 -48.167 -53.5 -81.5z
M335 533.002l-8 -10l-135 64c-23.333 13.333 -40.833 26.166 -52.5 38.499s-17.5 26.833 -17.5 43.5c0 22.667 2 36.167 6 40.5s10.5 8 19.5 11s18.5 4.5 28.5 4.5c19.333 0 35.333 -8 48 -24c18.667 -41.333 35.667 -75.166 51 -101.499s35.333 -48.5 60 -66.5z" />
    <glyph glyph-name="iacute" unicode="&#xed;" horiz-adv-x="368" 
d="M31 322c37.333 66.667 69.833 110.336 97.5 131.003s57.834 31 90.501 31c29.333 0 54.833 -9.83301 76.5 -29.5s32.5 -49.167 32.5 -88.5c0 -17.333 -4 -37 -12 -59s-19 -47.5 -33 -76.5s-33.333 -65.333 -58 -109s-37 -71.834 -37 -84.501c0 -6 1.5 -10.5 4.5 -13.5
s7.5 -4.5 13.5 -4.5c7.33301 0 17 4.16699 29 12.5s23.667 19.5 35 33.5s23.166 30.167 35.499 48.5s22.5 34.833 30.5 49.5l13 -7c-36 -58.667 -66.167 -101 -90.5 -127s-61.166 -39 -110.499 -39c-36 0 -63.333 10.5 -82 31.5s-28 47.5 -28 79.5
c0 21.333 3.16699 40.5 9.5 57.5s19.666 45.5 39.999 85.5l53.5 107c15.333 31.333 25.333 52.666 30 63.999s7 19.666 7 24.999c0 4.66699 -1.16699 8.16699 -3.5 10.5s-5.83301 3.5 -10.5 3.5s-12.5 -4.16699 -23.5 -12.5s-25.333 -23 -43 -44s-35.5 -48.167 -53.5 -81.5z
M387 582.002c-19.333 -9.33301 -44.333 -18.834 -75 -28.501l-88 -27.5l-6 10c29.333 16.667 55 38 77 64l72 98c7.33301 8 14 13.333 20 16s13.667 4 23 4c12 0 23.167 -2.16699 33.5 -6.5s16.833 -9 19.5 -14s4 -13.5 4 -25.5c0 -23.333 -5.5 -40.666 -16.5 -51.999
s-32.167 -24 -63.5 -38z" />
    <glyph glyph-name="icircumflex" unicode="&#xee;" horiz-adv-x="368" 
d="M31 322c37.333 66.667 69.833 110.336 97.5 131.003s57.834 31 90.501 31c29.333 0 54.833 -9.83301 76.5 -29.5s32.5 -49.167 32.5 -88.5c0 -17.333 -4 -37 -12 -59s-19 -47.5 -33 -76.5s-33.333 -65.333 -58 -109s-37 -71.834 -37 -84.501c0 -6 1.5 -10.5 4.5 -13.5
s7.5 -4.5 13.5 -4.5c7.33301 0 17 4.16699 29 12.5s23.667 19.5 35 33.5s23.166 30.167 35.499 48.5s22.5 34.833 30.5 49.5l13 -7c-36 -58.667 -66.167 -101 -90.5 -127s-61.166 -39 -110.499 -39c-36 0 -63.333 10.5 -82 31.5s-28 47.5 -28 79.5
c0 21.333 3.16699 40.5 9.5 57.5s19.666 45.5 39.999 85.5l53.5 107c15.333 31.333 25.333 52.666 30 63.999s7 19.666 7 24.999c0 4.66699 -1.16699 8.16699 -3.5 10.5s-5.83301 3.5 -10.5 3.5s-12.5 -4.16699 -23.5 -12.5s-25.333 -23 -43 -44s-35.5 -48.167 -53.5 -81.5z
M421 518.002l-11 -4l-53.5 65.5c-18.333 22.333 -31.5 35.833 -39.5 40.5c-16 -4.66699 -42.667 -17.667 -80 -39l-108 -63l-9 8l175 181h86z" />
    <glyph glyph-name="idieresis" unicode="&#xef;" horiz-adv-x="368" 
d="M31 322c37.333 66.667 69.833 110.336 97.5 131.003s57.834 31 90.501 31c29.333 0 54.833 -9.83301 76.5 -29.5s32.5 -49.167 32.5 -88.5c0 -17.333 -4 -37 -12 -59s-19 -47.5 -33 -76.5s-33.333 -65.333 -58 -109s-37 -71.834 -37 -84.501c0 -6 1.5 -10.5 4.5 -13.5
s7.5 -4.5 13.5 -4.5c7.33301 0 17 4.16699 29 12.5s23.667 19.5 35 33.5s23.166 30.167 35.499 48.5s22.5 34.833 30.5 49.5l13 -7c-36 -58.667 -66.167 -101 -90.5 -127s-61.166 -39 -110.499 -39c-36 0 -63.333 10.5 -82 31.5s-28 47.5 -28 79.5
c0 21.333 3.16699 40.5 9.5 57.5s19.666 45.5 39.999 85.5l53.5 107c15.333 31.333 25.333 52.666 30 63.999s7 19.666 7 24.999c0 4.66699 -1.16699 8.16699 -3.5 10.5s-5.83301 3.5 -10.5 3.5s-12.5 -4.16699 -23.5 -12.5s-25.333 -23 -43 -44s-35.5 -48.167 -53.5 -81.5z
M129 617.002c0 16.667 6.66699 31.667 20 45s29 20 47 20s33.333 -6.33301 46 -19s19 -28 19 -46c0 -19.333 -6 -35.333 -18 -48s-27.667 -19 -47 -19c-18 0 -33.667 6.66699 -47 20s-20 29 -20 47zM349 617.002c0 16.667 6.66797 31.667 20.001 45s28.666 20 45.999 20
c18 0 33.5 -6.5 46.5 -19.5s19.5 -28.167 19.5 -45.5c0 -19.333 -6.33301 -35.333 -19 -48s-28.334 -19 -47.001 -19c-17.333 0 -32.666 6.66699 -45.999 20s-20 29 -20 47z" />
    <glyph glyph-name="eth" unicode="&#xf0;" horiz-adv-x="593" 
d="M407 430c0 24.667 -9.33301 37.001 -28 37.001c-20.667 0 -40 -10.833 -58 -32.5s-38.333 -56 -61 -103s-45 -100.333 -67 -160s-33 -101.834 -33 -126.501c0 -11.333 2.83301 -20.833 8.5 -28.5s14.5 -11.5 26.5 -11.5c16.667 0 31.667 6.66699 45 20
s44.5 68.333 93.5 165s73.5 176.667 73.5 240zM390 588.001l-129 -60l-9 18l128 59c-13.333 26 -28.833 47.667 -46.5 65s-33.834 28.5 -48.501 33.5s-27.334 7.66699 -38.001 8s-21.334 0.833008 -32.001 1.5v16h251c10.667 -7.33301 21.334 -17 32.001 -29l25 -28l120 55
l9 -18l-118 -53c17.333 -24 33.5 -57.167 48.5 -99.5s22.5 -84.166 22.5 -125.499c0 -128 -40.5 -233.5 -121.5 -316.5s-172.5 -124.5 -274.5 -124.5c-59.333 0 -106.166 19.667 -140.499 59s-51.5 85.666 -51.5 138.999c0 86 34.833 156.833 104.5 212.5
s145.5 83.5 227.5 83.5c19.333 0 33.333 -0.833008 42 -2.5s15.667 -3.5 21 -5.5c0.666992 20 -0.666016 39 -3.99902 57s-9.33301 36.333 -18 55z" />
    <glyph glyph-name="ntilde" unicode="&#xf1;" horiz-adv-x="672" 
d="M517 484c31.333 0 58.166 -9.83301 80.499 -29.5s33.5 -49.167 33.5 -88.5c0 -18 -3.66699 -37.167 -11 -57.5s-16.333 -42.166 -27 -65.499s-29.667 -61.333 -57 -114s-41 -83.667 -41 -93c0 -5.33301 1.33301 -9.33301 4 -12s6.66699 -4 12 -4
c6.66699 0 15.667 4 27 12s26.833 23 46.5 45s40.5 55 62.5 99l13 -7c-30.667 -54.667 -60.167 -98.167 -88.5 -130.5s-68.166 -48.5 -119.499 -48.5c-35.333 0 -62 10.667 -80 32s-27 47.666 -27 78.999c0 21.333 2.33301 38.666 7 51.999s18.834 44 42.501 92l58.5 118
c15.333 30.667 23 54.667 23 72c0 6.66699 -1.33301 11.5 -4 14.5s-7 4.5 -13 4.5c-8 0 -18.167 -5 -30.5 -15s-26.833 -26 -43.5 -48s-34 -52 -52 -90l-145 -301h-195l170 380l14 33.5c5.33301 12.333 8 21.166 8 26.499c0 4.66699 -1 8 -3 10s-5 3 -9 3
c-9.33301 0 -20 -4.16699 -32 -12.5s-23.833 -19.166 -35.5 -32.499s-24.334 -30.166 -38.001 -50.499s-27.167 -41.5 -40.5 -63.5l-13 6c32 56 63.5 100.667 94.5 134s69.167 50 114.5 50c32 0 57.167 -9.83301 75.5 -29.5s27.5 -47.167 27.5 -82.5
c0 -16 -1.5 -30.5 -4.5 -43.5l-7.5 -31.5c30 60 58.833 106.167 86.5 138.5s66.5 48.5 116.5 48.5zM365 595c-16 0 -27.666 -2.66797 -34.999 -8.00098s-18.333 -17.666 -33 -36.999h-18c26.667 45.333 51.5 77.5 74.5 96.5s49.167 28.5 78.5 28.5
c19.333 0 43.333 -6 72 -18s50.667 -18 66 -18s27.666 3.33301 36.999 10s20.333 18.667 33 36h18c-26.667 -46 -51.5 -78.5 -74.5 -97.5s-49.5 -28.5 -79.5 -28.5c-16.667 0 -41.5 6 -74.5 18s-54.5 18 -64.5 18z" />
    <glyph glyph-name="ograve" unicode="&#xf2;" horiz-adv-x="553" 
d="M536 286c0 -75.333 -32.1641 -143.5 -96.4971 -204.5s-142.833 -91.5 -235.5 -91.5c-28 0 -53.333 5.33301 -76 16s-46.834 29.667 -72.501 57s-38.5 69 -38.5 125c0 74 31.833 141.833 95.5 203.5s142.5 92.5 236.5 92.5c29.333 0 54.666 -5.16699 75.999 -15.5
s41.666 -25.833 60.999 -46.5s32.5 -42.5 39.5 -65.5s10.5 -46.5 10.5 -70.5zM398.003 433c0 10.667 -2.5 18.9961 -7.5 24.9961s-13.167 9 -24.5 9c-12 0 -25 -8.16699 -39 -24.5s-34.167 -50.666 -60.5 -102.999s-51.5 -108.666 -75.5 -168.999s-36 -102.833 -36 -127.5
c0 -12.667 2.66699 -22.167 8 -28.5s13.333 -9.5 24 -9.5c11.333 0 23.333 7.33301 36 22s31.167 45.334 55.5 92.001s50.333 103.834 78 171.501s41.5 115.167 41.5 142.5zM488.003 532.996l-8 -10l-135 64c-23.333 13.333 -40.833 26.166 -52.5 38.499
s-17.5 26.833 -17.5 43.5c0 22.667 2 36.167 6 40.5s10.5 8 19.5 11s18.5 4.5 28.5 4.5c19.333 0 35.333 -8 48 -24c18.667 -41.333 35.667 -75.166 51 -101.499s35.333 -48.5 60 -66.5z" />
    <glyph glyph-name="oacute" unicode="&#xf3;" horiz-adv-x="553" 
d="M536 286c0 -75.333 -32.1641 -143.5 -96.4971 -204.5s-142.833 -91.5 -235.5 -91.5c-28 0 -53.333 5.33301 -76 16s-46.834 29.667 -72.501 57s-38.5 69 -38.5 125c0 74 31.833 141.833 95.5 203.5s142.5 92.5 236.5 92.5c29.333 0 54.666 -5.16699 75.999 -15.5
s41.666 -25.833 60.999 -46.5s32.5 -42.5 39.5 -65.5s10.5 -46.5 10.5 -70.5zM398.003 433c0 10.667 -2.5 18.9961 -7.5 24.9961s-13.167 9 -24.5 9c-12 0 -25 -8.16699 -39 -24.5s-34.167 -50.666 -60.5 -102.999s-51.5 -108.666 -75.5 -168.999s-36 -102.833 -36 -127.5
c0 -12.667 2.66699 -22.167 8 -28.5s13.333 -9.5 24 -9.5c11.333 0 23.333 7.33301 36 22s31.167 45.334 55.5 92.001s50.333 103.834 78 171.501s41.5 115.167 41.5 142.5zM480.003 581.996c-19.333 -9.33301 -44.333 -18.834 -75 -28.501l-88 -27.5l-6 10
c29.333 16.667 55 38 77 64l72 98c7.33301 8 14 13.333 20 16s13.667 4 23 4c12 0 23.167 -2.16699 33.5 -6.5s16.833 -9 19.5 -14s4 -13.5 4 -25.5c0 -23.333 -5.5 -40.666 -16.5 -51.999s-32.167 -24 -63.5 -38z" />
    <glyph glyph-name="ocircumflex" unicode="&#xf4;" horiz-adv-x="553" 
d="M536 286c0 -75.333 -32.1641 -143.5 -96.4971 -204.5s-142.833 -91.5 -235.5 -91.5c-28 0 -53.333 5.33301 -76 16s-46.834 29.667 -72.501 57s-38.5 69 -38.5 125c0 74 31.833 141.833 95.5 203.5s142.5 92.5 236.5 92.5c29.333 0 54.666 -5.16699 75.999 -15.5
s41.666 -25.833 60.999 -46.5s32.5 -42.5 39.5 -65.5s10.5 -46.5 10.5 -70.5zM398.003 433c0 10.667 -2.5 18.9961 -7.5 24.9961s-13.167 9 -24.5 9c-12 0 -25 -8.16699 -39 -24.5s-34.167 -50.666 -60.5 -102.999s-51.5 -108.666 -75.5 -168.999s-36 -102.833 -36 -127.5
c0 -12.667 2.66699 -22.167 8 -28.5s13.333 -9.5 24 -9.5c11.333 0 23.333 7.33301 36 22s31.167 45.334 55.5 92.001s50.333 103.834 78 171.501s41.5 115.167 41.5 142.5zM514.003 517.996l-11 -4l-53.5 65.5c-18.333 22.333 -31.5 35.833 -39.5 40.5
c-16 -4.66699 -42.667 -17.667 -80 -39l-108 -63l-9 8l175 181h86z" />
    <glyph glyph-name="otilde" unicode="&#xf5;" horiz-adv-x="553" 
d="M536 286c0 -75.333 -32.1641 -143.5 -96.4971 -204.5s-142.833 -91.5 -235.5 -91.5c-28 0 -53.333 5.33301 -76 16s-46.834 29.667 -72.501 57s-38.5 69 -38.5 125c0 74 31.833 141.833 95.5 203.5s142.5 92.5 236.5 92.5c29.333 0 54.666 -5.16699 75.999 -15.5
s41.666 -25.833 60.999 -46.5s32.5 -42.5 39.5 -65.5s10.5 -46.5 10.5 -70.5zM398.003 433c0 10.667 -2.5 18.9961 -7.5 24.9961s-13.167 9 -24.5 9c-12 0 -25 -8.16699 -39 -24.5s-34.167 -50.666 -60.5 -102.999s-51.5 -108.666 -75.5 -168.999s-36 -102.833 -36 -127.5
c0 -12.667 2.66699 -22.167 8 -28.5s13.333 -9.5 24 -9.5c11.333 0 23.333 7.33301 36 22s31.167 45.334 55.5 92.001s50.333 103.834 78 171.501s41.5 115.167 41.5 142.5zM306.003 594.996c-16 0 -27.666 -2.66797 -34.999 -8.00098s-18.333 -17.666 -33 -36.999h-18
c26.667 45.333 51.5 77.5 74.5 96.5s49.167 28.5 78.5 28.5c19.333 0 43.333 -6 72 -18s50.667 -18 66 -18s27.666 3.33301 36.999 10s20.333 18.667 33 36h18c-26.667 -46 -51.5 -78.5 -74.5 -97.5s-49.5 -28.5 -79.5 -28.5c-16.667 0 -41.5 6 -74.5 18s-54.5 18 -64.5 18z
" />
    <glyph glyph-name="odieresis" unicode="&#xf6;" horiz-adv-x="553" 
d="M536 286c0 -75.333 -32.1641 -143.5 -96.4971 -204.5s-142.833 -91.5 -235.5 -91.5c-28 0 -53.333 5.33301 -76 16s-46.834 29.667 -72.501 57s-38.5 69 -38.5 125c0 74 31.833 141.833 95.5 203.5s142.5 92.5 236.5 92.5c29.333 0 54.666 -5.16699 75.999 -15.5
s41.666 -25.833 60.999 -46.5s32.5 -42.5 39.5 -65.5s10.5 -46.5 10.5 -70.5zM398.003 433c0 10.667 -2.5 18.9961 -7.5 24.9961s-13.167 9 -24.5 9c-12 0 -25 -8.16699 -39 -24.5s-34.167 -50.666 -60.5 -102.999s-51.5 -108.666 -75.5 -168.999s-36 -102.833 -36 -127.5
c0 -12.667 2.66699 -22.167 8 -28.5s13.333 -9.5 24 -9.5c11.333 0 23.333 7.33301 36 22s31.167 45.334 55.5 92.001s50.333 103.834 78 171.501s41.5 115.167 41.5 142.5zM222.003 616.996c0 16.667 6.66699 31.667 20 45s29 20 47 20s33.333 -6.33301 46 -19
s19 -28 19 -46c0 -19.333 -6 -35.333 -18 -48s-27.667 -19 -47 -19c-18 0 -33.667 6.66699 -47 20s-20 29 -20 47zM442.003 616.996c0 16.667 6.66797 31.667 20.001 45s28.666 20 45.999 20c18 0 33.5 -6.5 46.5 -19.5s19.5 -28.167 19.5 -45.5
c0 -19.333 -6.33301 -35.333 -19 -48s-28.334 -19 -47.001 -19c-17.333 0 -32.666 6.66699 -45.999 20s-20 29 -20 47z" />
    <glyph glyph-name="divide" unicode="&#xf7;" horiz-adv-x="833" 
d="M466 590c20 0 37.002 -7 51.002 -21s21 -31.333 21 -52c0 -20 -6.83301 -36.833 -20.5 -50.5s-30.834 -20.5 -51.501 -20.5c-20 0 -37 6.66699 -51 20s-21 30.333 -21 51c0 20 7.16699 37.167 21.5 51.5s31.166 21.5 50.499 21.5zM750.002 367v-78h-567v78h567z
M468.002 209c20 0 37.001 -7 51.001 -21s21 -31 21 -51s-6.83301 -36.833 -20.5 -50.5s-30.834 -20.5 -51.501 -20.5c-20 0 -37 6.66699 -51 20s-21 30.333 -21 51c0 20 7 37 21 51s31 21 51 21z" />
    <glyph glyph-name="oslash" unicode="&#xf8;" horiz-adv-x="553" 
d="M359 294l-195.001 -202.001c-2 -7.33301 -4 -16 -6 -26s-3 -18 -3 -24c0 -12 2.5 -21.167 7.5 -27.5s13.167 -9.5 24.5 -9.5c14.667 0 29.834 11 45.501 33s32.5 51.167 50.5 87.5s32.333 66.333 43 90s21.667 49.834 33 78.501zM178.999 138.999l197.003 205.001
c7.33301 22 12.666 39.333 15.999 52s5 24.667 5 36c0 12 -2.5 20.833 -7.5 26.5s-12.833 8.5 -23.5 8.5c-14.667 0 -30.334 -11.5 -47.001 -34.5s-33.834 -52.333 -51.501 -88s-34.167 -71.334 -49.5 -107.001s-28.333 -68.5 -39 -98.5zM82.002 37
c-21.333 19.333 -37.5 41.832 -48.5 67.499s-16.5 53.5 -16.5 83.5c0 74 31.833 141.833 95.5 203.5s142.5 92.5 236.5 92.5c24 0 45.5 -3.66699 64.5 -11s37.167 -18.333 54.5 -33l51 53l16 -14l-52 -54c19.333 -19.333 33 -41.666 41 -66.999s12 -49.333 12 -72
c0 -75.333 -32.167 -143.5 -96.5 -204.5s-142.833 -91.5 -235.5 -91.5c-20 0 -38.667 2.83301 -56 8.5s-34 14.167 -50 25.5l-56 -59l-15 15z" />
    <glyph glyph-name="ugrave" unicode="&#xf9;" horiz-adv-x="672" 
d="M154 -10c-31.333 0 -58.1689 9.66797 -80.502 29.001s-33.5 48.666 -33.5 87.999c0 18 4 38 12 60s18.833 47.667 32.5 77s32.5 66.5 56.5 111.5s36 71.833 36 80.5c0 6 -1.16699 10.333 -3.5 13s-6.16602 4 -11.499 4c-6.66699 0 -15.5 -4 -26.5 -12s-22 -18 -33 -30
s-23.667 -28.667 -38 -50s-26.833 -42 -37.5 -62l-13 6c32.667 56.667 62.834 100.667 90.501 132s66.167 47 115.5 47c34.667 0 61 -10.833 79 -32.5s27 -47.834 27 -78.501c0 -26.667 -5.33301 -52.667 -16 -78l-29.5 -63c-9.66699 -21.333 -26.5 -54.333 -50.5 -99
s-36 -75.667 -36 -93c0 -6.66699 1.5 -11.667 4.5 -15s7.16699 -5 12.5 -5c16 0 33 11.167 51 33.5s33 43 45 62s22.667 38.167 32 57.5l145 301h195l-170 -380l-12 -31c-4.66699 -12 -7 -20.667 -7 -26c0 -4.66699 1 -8.16699 3 -10.5s5 -3.5 9 -3.5
c19.333 0 37.166 9.33301 53.499 28s31.833 38.834 46.5 60.501s30.334 47.167 47.001 76.5l12 -7c-36.667 -62 -69.334 -109.333 -98.001 -142s-66.667 -49 -114 -49c-32 0 -57.167 9.83301 -75.5 29.5s-27.5 47.167 -27.5 82.5c0 14.667 1.66699 29 5 43s6 24.667 8 32
c-36.667 -63.333 -68.167 -110.333 -94.5 -141s-63.166 -46 -110.499 -46zM486.997 533.001l-8 -10l-135 64c-23.333 13.333 -40.833 26.166 -52.5 38.499s-17.5 26.833 -17.5 43.5c0 22.667 2 36.167 6 40.5s10.5 8 19.5 11s18.5 4.5 28.5 4.5c19.333 0 35.333 -8 48 -24
c18.667 -41.333 35.667 -75.166 51 -101.499s35.333 -48.5 60 -66.5z" />
    <glyph glyph-name="uacute" unicode="&#xfa;" horiz-adv-x="672" 
d="M154 -10c-31.333 0 -58.1689 9.66797 -80.502 29.001s-33.5 48.666 -33.5 87.999c0 18 4 38 12 60s18.833 47.667 32.5 77s32.5 66.5 56.5 111.5s36 71.833 36 80.5c0 6 -1.16699 10.333 -3.5 13s-6.16602 4 -11.499 4c-6.66699 0 -15.5 -4 -26.5 -12s-22 -18 -33 -30
s-23.667 -28.667 -38 -50s-26.833 -42 -37.5 -62l-13 6c32.667 56.667 62.834 100.667 90.501 132s66.167 47 115.5 47c34.667 0 61 -10.833 79 -32.5s27 -47.834 27 -78.501c0 -26.667 -5.33301 -52.667 -16 -78l-29.5 -63c-9.66699 -21.333 -26.5 -54.333 -50.5 -99
s-36 -75.667 -36 -93c0 -6.66699 1.5 -11.667 4.5 -15s7.16699 -5 12.5 -5c16 0 33 11.167 51 33.5s33 43 45 62s22.667 38.167 32 57.5l145 301h195l-170 -380l-12 -31c-4.66699 -12 -7 -20.667 -7 -26c0 -4.66699 1 -8.16699 3 -10.5s5 -3.5 9 -3.5
c19.333 0 37.166 9.33301 53.499 28s31.833 38.834 46.5 60.501s30.334 47.167 47.001 76.5l12 -7c-36.667 -62 -69.334 -109.333 -98.001 -142s-66.667 -49 -114 -49c-32 0 -57.167 9.83301 -75.5 29.5s-27.5 47.167 -27.5 82.5c0 14.667 1.66699 29 5 43s6 24.667 8 32
c-36.667 -63.333 -68.167 -110.333 -94.5 -141s-63.166 -46 -110.499 -46zM538.997 582.001c-19.333 -9.33301 -44.333 -18.834 -75 -28.501l-88 -27.5l-6 10c29.333 16.667 55 38 77 64l72 98c7.33301 8 14 13.333 20 16s13.667 4 23 4c12 0 23.167 -2.16699 33.5 -6.5
s16.833 -9 19.5 -14s4 -13.5 4 -25.5c0 -23.333 -5.5 -40.666 -16.5 -51.999s-32.167 -24 -63.5 -38z" />
    <glyph glyph-name="ucircumflex" unicode="&#xfb;" horiz-adv-x="672" 
d="M154 -10c-31.333 0 -58.1689 9.66797 -80.502 29.001s-33.5 48.666 -33.5 87.999c0 18 4 38 12 60s18.833 47.667 32.5 77s32.5 66.5 56.5 111.5s36 71.833 36 80.5c0 6 -1.16699 10.333 -3.5 13s-6.16602 4 -11.499 4c-6.66699 0 -15.5 -4 -26.5 -12s-22 -18 -33 -30
s-23.667 -28.667 -38 -50s-26.833 -42 -37.5 -62l-13 6c32.667 56.667 62.834 100.667 90.501 132s66.167 47 115.5 47c34.667 0 61 -10.833 79 -32.5s27 -47.834 27 -78.501c0 -26.667 -5.33301 -52.667 -16 -78l-29.5 -63c-9.66699 -21.333 -26.5 -54.333 -50.5 -99
s-36 -75.667 -36 -93c0 -6.66699 1.5 -11.667 4.5 -15s7.16699 -5 12.5 -5c16 0 33 11.167 51 33.5s33 43 45 62s22.667 38.167 32 57.5l145 301h195l-170 -380l-12 -31c-4.66699 -12 -7 -20.667 -7 -26c0 -4.66699 1 -8.16699 3 -10.5s5 -3.5 9 -3.5
c19.333 0 37.166 9.33301 53.499 28s31.833 38.834 46.5 60.501s30.334 47.167 47.001 76.5l12 -7c-36.667 -62 -69.334 -109.333 -98.001 -142s-66.667 -49 -114 -49c-32 0 -57.167 9.83301 -75.5 29.5s-27.5 47.167 -27.5 82.5c0 14.667 1.66699 29 5 43s6 24.667 8 32
c-36.667 -63.333 -68.167 -110.333 -94.5 -141s-63.166 -46 -110.499 -46zM572.997 518.001l-11 -4l-53.5 65.5c-18.333 22.333 -31.5 35.833 -39.5 40.5c-16 -4.66699 -42.667 -17.667 -80 -39l-108 -63l-9 8l175 181h86z" />
    <glyph glyph-name="udieresis" unicode="&#xfc;" horiz-adv-x="672" 
d="M154 -10c-31.333 0 -58.1689 9.66797 -80.502 29.001s-33.5 48.666 -33.5 87.999c0 18 4 38 12 60s18.833 47.667 32.5 77s32.5 66.5 56.5 111.5s36 71.833 36 80.5c0 6 -1.16699 10.333 -3.5 13s-6.16602 4 -11.499 4c-6.66699 0 -15.5 -4 -26.5 -12s-22 -18 -33 -30
s-23.667 -28.667 -38 -50s-26.833 -42 -37.5 -62l-13 6c32.667 56.667 62.834 100.667 90.501 132s66.167 47 115.5 47c34.667 0 61 -10.833 79 -32.5s27 -47.834 27 -78.501c0 -26.667 -5.33301 -52.667 -16 -78l-29.5 -63c-9.66699 -21.333 -26.5 -54.333 -50.5 -99
s-36 -75.667 -36 -93c0 -6.66699 1.5 -11.667 4.5 -15s7.16699 -5 12.5 -5c16 0 33 11.167 51 33.5s33 43 45 62s22.667 38.167 32 57.5l145 301h195l-170 -380l-12 -31c-4.66699 -12 -7 -20.667 -7 -26c0 -4.66699 1 -8.16699 3 -10.5s5 -3.5 9 -3.5
c19.333 0 37.166 9.33301 53.499 28s31.833 38.834 46.5 60.501s30.334 47.167 47.001 76.5l12 -7c-36.667 -62 -69.334 -109.333 -98.001 -142s-66.667 -49 -114 -49c-32 0 -57.167 9.83301 -75.5 29.5s-27.5 47.167 -27.5 82.5c0 14.667 1.66699 29 5 43s6 24.667 8 32
c-36.667 -63.333 -68.167 -110.333 -94.5 -141s-63.166 -46 -110.499 -46zM280.997 617.001c0 16.667 6.66699 31.667 20 45s29 20 47 20s33.333 -6.33301 46 -19s19 -28 19 -46c0 -19.333 -6 -35.333 -18 -48s-27.667 -19 -47 -19c-18 0 -33.667 6.66699 -47 20
s-20 29 -20 47zM500.997 617.001c0 16.667 6.66797 31.667 20.001 45s28.666 20 45.999 20c18 0 33.5 -6.5 46.5 -19.5s19.5 -28.167 19.5 -45.5c0 -19.333 -6.33301 -35.333 -19 -48s-28.334 -19 -47.001 -19c-17.333 0 -32.666 6.66699 -45.999 20s-20 29 -20 47z" />
    <glyph glyph-name="yacute" unicode="&#xfd;" horiz-adv-x="635" 
d="M97 -232c-42 0 -76.998 11.3359 -104.998 34.0029s-42 49.334 -42 80.001c0 24 9 45.333 27 64s42.333 28 73 28c25.333 0 47.166 -8.16699 65.499 -24.5s27.5 -36.5 27.5 -60.5c0 -36 -17.333 -59 -52 -69c-17.333 -2.66699 -29.666 -4.5 -36.999 -5.5
s-11 -5.16699 -11 -12.5c0 -6 3.5 -10.5 10.5 -13.5s17.5 -4.5 31.5 -4.5c34.667 0 66.334 15.333 95.001 46s53.167 66 73.5 106s47.166 98.667 80.499 176l-3 1c-25.333 -39.333 -51.833 -69.5 -79.5 -90.5s-60.834 -31.5 -99.501 -31.5
c-30.667 0 -57.334 9.5 -80.001 28.5s-34 48.167 -34 87.5c0 18 4.33301 38.667 13 62s18.5 46.666 29.5 69.999s29.833 59.666 56.5 108.999s40 78.666 40 87.999c0 5.33301 -1.33301 9.33301 -4 12s-6.66699 4 -12 4c-16.667 0 -34.167 -11.333 -52.5 -34
s-34.5 -44.834 -48.5 -66.501l-33 -52.5l-13 6c37.333 61.333 69 106.5 95 135.5s63 43.5 111 43.5c34.667 0 61 -10.833 79 -32.5s27 -47.834 27 -78.501c0 -23.333 -2.66699 -42.333 -8 -57s-14.666 -36 -27.999 -64s-32.833 -66.5 -58.5 -115.5
s-38.5 -81.167 -38.5 -96.5c0 -6.66699 1.5 -11.667 4.5 -15s7.5 -5 13.5 -5c7.33301 0 16 3 26 9s20.833 14.833 32.5 26.5s24.167 27 37.5 46s27.166 43.333 41.499 73s35.166 75.834 62.499 138.501s43.833 101.5 49.5 116.5l17.5 44.5h195l-40.5 -100l-54.5 -133
c-18.667 -44.667 -47.167 -109.5 -85.5 -194.5s-90.166 -152.667 -155.499 -203s-145.333 -75.5 -240 -75.5zM521.002 582.003c-19.333 -9.33301 -44.333 -18.834 -75 -28.501l-88 -27.5l-6 10c29.333 16.667 55 38 77 64l72 98c7.33301 8 14 13.333 20 16s13.667 4 23 4
c12 0 23.167 -2.16699 33.5 -6.5s16.833 -9 19.5 -14s4 -13.5 4 -25.5c0 -23.333 -5.5 -40.666 -16.5 -51.999s-32.167 -24 -63.5 -38z" />
    <glyph glyph-name="thorn" unicode="&#xfe;" horiz-adv-x="602" 
d="M422 418c0 25.333 -8.33301 37.999 -25 37.999c-15.333 0 -31.333 -10.167 -48 -30.5s-33.334 -47.666 -50.001 -81.999s-36.667 -83.333 -60 -147s-35 -108.167 -35 -133.5c0 -13.333 2.5 -23.5 7.5 -30.5s13.167 -10.5 24.5 -10.5c13.333 0 26.833 9.33301 40.5 28
s30.834 48.5 51.501 89.5s41.5 91 62.5 150s31.5 101.833 31.5 128.5zM589 315.999c0 -73.333 -28.8311 -146.002 -86.498 -218.002s-127.834 -108 -210.501 -108c-29.333 0 -54 6.5 -74 19.5s-30 34.833 -30 65.5l-67.5 -170c-22.333 -57.333 -33.5 -89 -33.5 -95
c0 -13.333 11 -21 33 -23l54 -2v-16h-383v16c4 0 9.33301 0.333008 16 1s17.5 2.16699 32.5 4.5s27.833 8.33301 38.5 18s27.667 43.334 51 101.001l64 158.5l105 261l101.5 252.5c17 42.333 27.167 68.833 30.5 79.5s5 19.334 5 26.001
c0 8.66699 -4.83301 15.167 -14.5 19.5s-30.834 6.5 -63.501 6.5v16h295l-125 -306l40 37c22.667 16 50 24 82 24c48 0 83.333 -16.5 106 -49.5s34 -72.5 34 -118.5z" />
    <glyph glyph-name="ydieresis" unicode="&#xff;" horiz-adv-x="635" 
d="M97 -232c-42 0 -76.998 11.3359 -104.998 34.0029s-42 49.334 -42 80.001c0 24 9 45.333 27 64s42.333 28 73 28c25.333 0 47.166 -8.16699 65.499 -24.5s27.5 -36.5 27.5 -60.5c0 -36 -17.333 -59 -52 -69c-17.333 -2.66699 -29.666 -4.5 -36.999 -5.5
s-11 -5.16699 -11 -12.5c0 -6 3.5 -10.5 10.5 -13.5s17.5 -4.5 31.5 -4.5c34.667 0 66.334 15.333 95.001 46s53.167 66 73.5 106s47.166 98.667 80.499 176l-3 1c-25.333 -39.333 -51.833 -69.5 -79.5 -90.5s-60.834 -31.5 -99.501 -31.5
c-30.667 0 -57.334 9.5 -80.001 28.5s-34 48.167 -34 87.5c0 18 4.33301 38.667 13 62s18.5 46.666 29.5 69.999s29.833 59.666 56.5 108.999s40 78.666 40 87.999c0 5.33301 -1.33301 9.33301 -4 12s-6.66699 4 -12 4c-16.667 0 -34.167 -11.333 -52.5 -34
s-34.5 -44.834 -48.5 -66.501l-33 -52.5l-13 6c37.333 61.333 69 106.5 95 135.5s63 43.5 111 43.5c34.667 0 61 -10.833 79 -32.5s27 -47.834 27 -78.501c0 -23.333 -2.66699 -42.333 -8 -57s-14.666 -36 -27.999 -64s-32.833 -66.5 -58.5 -115.5
s-38.5 -81.167 -38.5 -96.5c0 -6.66699 1.5 -11.667 4.5 -15s7.5 -5 13.5 -5c7.33301 0 16 3 26 9s20.833 14.833 32.5 26.5s24.167 27 37.5 46s27.166 43.333 41.499 73s35.166 75.834 62.499 138.501s43.833 101.5 49.5 116.5l17.5 44.5h195l-40.5 -100l-54.5 -133
c-18.667 -44.667 -47.167 -109.5 -85.5 -194.5s-90.166 -152.667 -155.499 -203s-145.333 -75.5 -240 -75.5zM263.002 617.003c0 16.667 6.66699 31.667 20 45s29 20 47 20s33.333 -6.33301 46 -19s19 -28 19 -46c0 -19.333 -6 -35.333 -18 -48s-27.667 -19 -47 -19
c-18 0 -33.667 6.66699 -47 20s-20 29 -20 47zM483.002 617.003c0 16.667 6.66797 31.667 20.001 45s28.666 20 45.999 20c18 0 33.5 -6.5 46.5 -19.5s19.5 -28.167 19.5 -45.5c0 -19.333 -6.33301 -35.333 -19 -48s-28.334 -19 -47.001 -19
c-17.333 0 -32.666 6.66699 -45.999 20s-20 29 -20 47z" />
    <glyph glyph-name="greaterequal" unicode="&#x107;" horiz-adv-x="490" 
d="M378 467c-14.667 0 -30.998 -8.99902 -48.998 -26.999s-36.667 -44.667 -56 -80s-35 -74.833 -47 -118.5s-18 -82.5 -18 -116.5c0 -38.667 5.83301 -65.5 17.5 -80.5s28.167 -22.5 49.5 -22.5c16.667 0 31.667 2.83301 45 8.5s28.166 14.5 44.499 26.5s30 24.333 41 37
s22.5 27.667 34.5 45l14 -10c-38 -52.667 -75.833 -89 -113.5 -109s-77.834 -30 -120.501 -30c-50 0 -96.833 15.167 -140.5 45.5s-65.5 74.5 -65.5 132.5c0 79.333 35.167 151.833 105.5 217.5s154.5 98.5 252.5 98.5c58 0 98.5 -10.667 121.5 -32s34.5 -45 34.5 -71
c0 -28.667 -8.5 -51.834 -25.5 -69.501s-38.833 -26.5 -65.5 -26.5c-24 0 -44 7 -60 21s-24 31.333 -24 52c0 17.333 7.83301 36 23.5 56s23.5 33.667 23.5 41c0 4 -1.83301 7 -5.5 9s-9.16699 3 -16.5 3zM453.002 582.001c-19.333 -9.33301 -44.333 -18.834 -75 -28.501
l-88 -27.5l-6 10c29.333 16.667 55 38 77 64l72 98c7.33301 8 14 13.333 20 16s13.667 4 23 4c12 0 23.167 -2.16699 33.5 -6.5s16.833 -9 19.5 -14s4 -13.5 4 -25.5c0 -23.333 -5.5 -40.666 -16.5 -51.999s-32.167 -24 -63.5 -38z" />
    <glyph glyph-name="product" unicode="&#x10d;" horiz-adv-x="490" 
d="M378 467c-14.667 0 -30.998 -8.99902 -48.998 -26.999s-36.667 -44.667 -56 -80s-35 -74.833 -47 -118.5s-18 -82.5 -18 -116.5c0 -38.667 5.83301 -65.5 17.5 -80.5s28.167 -22.5 49.5 -22.5c16.667 0 31.667 2.83301 45 8.5s28.166 14.5 44.499 26.5s30 24.333 41 37
s22.5 27.667 34.5 45l14 -10c-38 -52.667 -75.833 -89 -113.5 -109s-77.834 -30 -120.501 -30c-50 0 -96.833 15.167 -140.5 45.5s-65.5 74.5 -65.5 132.5c0 79.333 35.167 151.833 105.5 217.5s154.5 98.5 252.5 98.5c58 0 98.5 -10.667 121.5 -32s34.5 -45 34.5 -71
c0 -28.667 -8.5 -51.834 -25.5 -69.501s-38.833 -26.5 -65.5 -26.5c-24 0 -44 7 -60 21s-24 31.333 -24 52c0 17.333 7.83301 36 23.5 56s23.5 33.667 23.5 41c0 4 -1.83301 7 -5.5 9s-9.16699 3 -16.5 3zM266.002 712.001l11 4l53.5 -65.5
c18.333 -22.333 31.5 -35.833 39.5 -40.5c16 4.66699 42.667 17.667 80 39l108 63l9 -8l-175 -181h-86z" />
    <glyph glyph-name="partialdiff" unicode="&#x111;" horiz-adv-x="661" 
d="M418 411c0 10.667 -2.33301 18.6699 -7 24.0029s-11.667 8 -21 8c-12.667 0 -26.167 -8.66699 -40.5 -26s-33.833 -50.5 -58.5 -99.5s-50.5 -104.333 -77.5 -166s-40.5 -101.167 -40.5 -118.5c0 -6 1.5 -10.667 4.5 -14s7.16699 -5 12.5 -5c24 0 45 9.66699 63 29
s32 36.166 42 50.499s21.167 34.666 33.5 60.999s30.333 70.166 54 131.499s35.5 103 35.5 125zM704 596.003l112.999 -0.00195312l-11 -27h-113l-192 -475c-5.33301 -13.333 -9.16602 -23.5 -11.499 -30.5s-3.5 -13.5 -3.5 -19.5c0 -4.66699 1.16699 -8.16699 3.5 -10.5
s5.83301 -3.5 10.5 -3.5c20.667 0 41.167 13.333 61.5 40s34.666 46.834 42.999 60.501l32.5 54.5l13 -6c-22 -40.667 -41.5 -73 -58.5 -97s-39.333 -45.333 -67 -64s-59.167 -28 -94.5 -28c-30.667 0 -56.167 9.5 -76.5 28.5s-30.5 44.5 -30.5 76.5l1 13
c-26 -39.333 -51.5 -68.833 -76.5 -88.5s-56.167 -29.5 -93.5 -29.5c-41.333 0 -74.666 14 -99.999 42s-38 66.333 -38 115c0 76.667 31.833 152 95.5 226s135.834 111 216.501 111c32.667 0 58.167 -6 76.5 -18s27.5 -31 27.5 -57l-1 -15l68 175h-127l11 27h127
c20 50.667 30 80.334 30 89.001c0 12.667 -5.33301 20.5 -16 23.5s-34.334 4.5 -71.001 4.5v16h305z" />
    <glyph glyph-name="pi" unicode="&#x11e;" horiz-adv-x="882" 
d="M75 299c0 116 48.502 218.497 145.502 307.497s215.5 133.5 355.5 133.5c58 0 107.667 -6.66699 149 -20l113 -45c17.333 0 33.5 6 48.5 18s27.833 27.667 38.5 47h19l-136 -339h-19c0.666992 11.333 1.33398 27.5 2.00098 48.5s1 36.167 1 45.5l-2 70
c0 52 -11.5 89.167 -34.5 111.5s-53.167 33.5 -90.5 33.5c-30 0 -60.667 -10.333 -92 -31s-59.833 -48.167 -85.5 -82.5s-48.5 -69.666 -68.5 -105.999s-38.333 -76 -55 -119s-29.834 -86.167 -39.501 -129.5s-14.5 -84.333 -14.5 -123
c0 -33.333 5.83301 -60.166 17.5 -80.499s31.167 -30.5 58.5 -30.5c28 0 52 8.5 72 25.5s33.667 34 41 51s14.5 35 21.5 54s13.167 37.5 18.5 55.5s9.66602 33.5 12.999 46.5s5 23.167 5 30.5c0 14 -7.83301 23 -23.5 27s-39.5 6 -71.5 6v16h455v-16l-30 -3
c-32.667 0 -54 -9.16699 -64 -27.5s-21.833 -44.833 -35.5 -79.5s-26 -69.167 -37 -103.5l-30.5 -95.5h-15c-4 14.667 -11.5 29.334 -22.5 44.001s-35.167 22 -72.5 22c-28 0 -66.667 -12.167 -116 -36.5s-96 -36.5 -140 -36.5c-82.667 0 -149.834 29.5 -201.501 88.5
s-77.5 133.167 -77.5 222.5zM534.002 970.997h14.998l-1 -13c0 -24 8 -43.5 24 -58.5s41 -22.5 75 -22.5c35.333 0 66.5 8.33301 93.5 25s47.5 40 61.5 70h15c-14.667 -55.333 -40.167 -100.166 -76.5 -134.499s-75.166 -51.5 -116.499 -51.5
c-33.333 0 -58.666 9.66699 -75.999 29s-26 46.666 -26 81.999c0 22 4 46.667 12 74z" />
    <glyph glyph-name="integral" unicode="&#x11f;" horiz-adv-x="627" 
d="M424 417c0 11.333 -2.33301 19.8359 -7 25.5029s-12 8.5 -22 8.5c-11.333 0 -24.833 -9.83301 -40.5 -29.5s-35.167 -52.334 -58.5 -98.001s-48.5 -101.334 -75.5 -167.001s-40.5 -107.167 -40.5 -124.5c0 -6 1.33301 -10.667 4 -14s6.66699 -5 12 -5
c21.333 0 41.333 10.333 60 31s32.167 37.167 40.5 49.5s21 36.666 38 72.999s36.167 80.833 57.5 133.5s32 91.667 32 117zM660 474.003l-71.499 -184.499c-25.667 -65 -58.167 -143.167 -97.5 -234.5s-91 -162 -155 -212s-147.667 -75 -251 -75
c-40.667 0 -75.167 11 -103.5 33s-42.5 48 -42.5 78c0 24 8.5 45.5 25.5 64.5s40.167 28.5 69.5 28.5c25.333 0 47 -8.33301 65 -25s27 -37 27 -61c0 -21.333 -7.33301 -39.333 -22 -54s-34 -22 -58 -22c-7.33301 0 -11 -2.66699 -11 -8
c0 -4.66699 4.16699 -8.83398 12.5 -12.501s20.5 -5.5 36.5 -5.5c35.333 0 66.666 15.167 93.999 45.5s52.833 71.333 76.5 123l68.5 152.5l-3 1c-22.667 -36.667 -47 -65.167 -73 -85.5s-57.667 -30.5 -95 -30.5c-40 0 -73.333 13 -100 39s-40 60 -40 102
c0 79.333 34.833 158 104.5 236s149.167 117 238.5 117c22.667 0 42.167 -5 58.5 -15s24.5 -27 24.5 -51l-1 -17l31 73h192zM359.001 721.004h14.998l-1 -13c0 -24 8 -43.5 24 -58.5s41 -22.5 75 -22.5c35.333 0 66.5 8.33301 93.5 25s47.5 40 61.5 70h15
c-14.667 -55.333 -40.167 -100.166 -76.5 -134.499s-75.166 -51.5 -116.499 -51.5c-33.333 0 -58.666 9.66699 -75.999 29s-26 46.666 -26 81.999c0 22 4 46.667 12 74z" />
    <glyph glyph-name="apple" unicode="&#x130;" horiz-adv-x="528" 
d="M688 713l-52.001 -3.00098c-32 -2.66699 -53 -12.167 -63 -28.5s-23.667 -45.666 -41 -87.999l-59.5 -145.5l-65 -161l-60.5 -152c-19.333 -48.667 -29 -79 -29 -91c0 -9.33301 6 -16.333 18 -21s39 -7 81 -7v-16h-475v16l55 4c24.667 2.66699 42.834 10.5 54.501 23.5
s27.5 42.333 47.5 88l70.5 168.5l63.5 159l50.5 129.5c18.333 47 27.5 76.833 27.5 89.5c0 15.333 -5.83301 25 -17.5 29s-39.167 6 -82.5 6v16h477v-16zM429.999 867.999c0 18 6.66895 33.665 20.002 46.998s29.666 20 48.999 20c18 0 33.667 -6.66699 47 -20
s20 -29 20 -47c0 -19.333 -6.33301 -35.666 -19 -48.999s-28.667 -20 -48 -20c-18.667 0 -34.834 6.83301 -48.501 20.5s-20.5 29.834 -20.5 48.501z" />
    <glyph glyph-name="dotlessi" unicode="&#x131;" horiz-adv-x="368" 
d="M31 322c37.333 66.667 69.833 110.336 97.5 131.003s57.834 31 90.501 31c29.333 0 54.833 -9.83301 76.5 -29.5s32.5 -49.167 32.5 -88.5c0 -17.333 -4 -37 -12 -59s-19 -47.5 -33 -76.5s-33.333 -65.333 -58 -109s-37 -71.834 -37 -84.501c0 -6 1.5 -10.5 4.5 -13.5
s7.5 -4.5 13.5 -4.5c7.33301 0 17 4.16699 29 12.5s23.667 19.5 35 33.5s23.166 30.167 35.499 48.5s22.5 34.833 30.5 49.5l13 -7c-36 -58.667 -66.167 -101 -90.5 -127s-61.166 -39 -110.499 -39c-36 0 -63.333 10.5 -82 31.5s-28 47.5 -28 79.5
c0 21.333 3.16699 40.5 9.5 57.5s19.666 45.5 39.999 85.5l53.5 107c15.333 31.333 25.333 52.666 30 63.999s7 19.666 7 24.999c0 4.66699 -1.16699 8.16699 -3.5 10.5s-5.83301 3.5 -10.5 3.5s-12.5 -4.16699 -23.5 -12.5s-25.333 -23 -43 -44s-35.5 -48.167 -53.5 -81.5z
" />
    <glyph glyph-name="OE" unicode="&#x152;" horiz-adv-x="1275" 
d="M677 634c0 28 -5.16406 49.167 -15.4971 63.5s-28.833 21.5 -55.5 21.5c-22.667 0 -42.334 -5.83301 -59.001 -17.5s-34.834 -31.5 -54.501 -59.5s-42.167 -68.667 -67.5 -122s-47.666 -104.333 -66.999 -153s-36.5 -98.667 -51.5 -150s-22.5 -92 -22.5 -122
c0 -28 5.16699 -49.333 15.5 -64s28.833 -22 55.5 -22c23.333 0 43 5.5 59 16.5s33.667 30.333 53 58s42.166 69.5 68.499 125.5s50.666 113 72.999 171s39.333 109.167 51 153.5s17.5 77.833 17.5 100.5zM517.003 0c-13.333 -2 -34.499 -4.33398 -63.499 -7.00098
s-49.833 -4 -62.5 -4c-98 0 -175 29.667 -231 89c-56.667 59.333 -85 133 -85 221c0 120 51.667 223.333 155 310s221.666 130 354.999 130c20.667 0 39.334 -0.833008 56.001 -2.5s32.667 -4.16699 48 -7.5h692l-125 -310h-19l-4 70
c-6 54.667 -18.833 102.834 -38.5 144.501s-46.5 64.5 -80.5 68.5s-60.667 6.16699 -80 6.5s-36 0.5 -50 0.5l-134 -331l32 3c42.667 6.66699 81.667 24.334 117 53.001s64 64.667 86 108h20l-147 -365h-20c2.66699 10 5.16699 22 7.5 36s3.5 28.667 3.5 44
c0 33.333 -5.66699 58.5 -17 75.5s-30.666 25.5 -57.999 25.5l-32 1l-135 -339h35c32 0 72.167 2.16699 120.5 6.5s98.666 26.666 150.999 66.999s95.166 79 128.499 116l80 89.5h20l-120 -299h-605z" />
    <glyph glyph-name="oe" unicode="&#x153;" horiz-adv-x="813" 
d="M397 431c0 12 -2.5 21 -7.5 27s-12.833 9 -23.5 9c-12 0 -25 -8.16699 -39 -24.5s-34 -50.333 -60 -102s-51.167 -108.167 -75.5 -169.5s-36.5 -104 -36.5 -128c0 -12 2.33301 -21.333 7 -28s13 -10 25 -10c18 0 34.667 12.5 50 37.5s33.5 58.667 54.5 101
s43.833 94.333 68.5 156s37 105.5 37 131.5zM528 233c46 5.33301 88.167 31.333 126.5 78s57.5 88.334 57.5 125.001c0 10 -1.33301 17.667 -4 23s-8.66699 8 -18 8c-14 0 -29 -8 -45 -24s-32.333 -38.333 -49 -67s-30 -53.834 -40 -75.501s-19.333 -44.167 -28 -67.5z
M380 41c-24.667 -16 -52.001 -28.5029 -82.001 -37.5029s-61.333 -13.5 -94 -13.5c-28 0 -53.333 5.33301 -76 16s-46.834 29.667 -72.501 57s-38.5 69 -38.5 125c0 74 31.833 141.833 95.5 203.5s142.5 92.5 236.5 92.5c32.667 0 60.5 -4.83301 83.5 -14.5
s43.833 -26.5 62.5 -50.5c59.333 43.333 122.666 65 189.999 65c44.667 0 81.334 -10.5 110.001 -31.5s43 -45.167 43 -72.5c0 -52.667 -30.333 -92.167 -91 -118.5s-134.667 -39.5 -222 -39.5c-4 -12.667 -7.66699 -29.167 -11 -49.5s-5 -37.166 -5 -50.499
c0 -37.333 5.16699 -63.666 15.5 -78.999s25.5 -23 45.5 -23c15.333 0 29 1.83301 41 5.5s26 10.167 42 19.5s32.833 23 50.5 41s31.834 35.667 42.501 53l14 -10c-28.667 -40 -61.667 -73.167 -99 -99.5s-83 -39.5 -137 -39.5c-37.333 0 -66.166 3.83301 -86.499 11.5
s-39.5 20.834 -57.5 39.501z" />
    <glyph glyph-name="approxequal" unicode="&#x15e;" horiz-adv-x="710" 
d="M351 -12c-42.667 0 -85.3369 10.3311 -128.004 30.998l-127 64c-13.333 0 -30.5 -10.167 -51.5 -30.5s-37.167 -41.833 -48.5 -64.5h-17l148 364h18c-0.666992 -9.33301 -1.33398 -23.166 -2.00098 -41.499s-1 -31.5 -1 -39.5c0 -32 2.33301 -59.667 7 -83
s13.834 -50.166 27.501 -80.499s37 -54.666 70 -72.999s71.167 -27.5 114.5 -27.5c40 0 72.333 11.667 97 35s37 50 37 80c0 20 -6.66699 38.667 -20 56s-40.166 37.166 -80.499 59.499l-144.5 80.5c-65.333 46 -98 103 -98 171c0 67.333 31 126 93 176s136.333 75 223 75
c45.333 0 86 -6.66699 122 -20l99 -44c16 0 29.333 5.33301 40 16s22.334 26.667 35.001 48h19l-123 -304h-18c1.33301 8.66699 2.33301 19 3 31s1 26.333 1 43c0 26.667 -1.16699 49.5 -3.5 68.5s-8.16602 39.667 -17.499 62s-26 41.333 -50 57s-58 23.5 -102 23.5
c-34 0 -65.5 -9.5 -94.5 -28.5s-43.5 -44.5 -43.5 -76.5c0 -20.667 6.5 -40 19.5 -58s28.167 -32 45.5 -42l89 -49.5c42 -23 76 -42.667 102 -59s48.5 -39.5 67.5 -69.5s28.5 -63 28.5 -99c0 -72.667 -31.667 -132.667 -95 -180s-143.666 -71 -240.999 -71z
M284.997 -0.00195312l-53.999 -59.002c3.33301 0.666992 8.83301 1.33398 16.5 2.00098s14.5 1 20.5 1c38.667 0 65.5 -8 80.5 -24s22.5 -34 22.5 -54c0 -38 -17 -65.833 -51 -83.5s-68.667 -26.5 -104 -26.5c-21.333 0 -39.166 4.5 -53.499 13.5s-21.5 20.833 -21.5 35.5
c0 8 3.16699 15.833 9.5 23.5s14.833 11.5 25.5 11.5c12.667 0 21.667 -3.5 27 -10.5s8 -15.167 8 -24.5c0 -6 -3.66699 -15.667 -11 -29c0 -2.66699 7.33301 -5 22 -7c14 0 27 7.5 39 22.5s18 34.5 18 58.5c0 18 -4.83301 31.333 -14.5 40s-24.5 13 -44.5 13
c-12.667 0 -22.334 -1.16699 -29.001 -3.5s-11.334 -4.16602 -14.001 -5.49902l-4 7l91 99h21z" />
    <glyph glyph-name="Delta" unicode="&#x15f;" horiz-adv-x="450" 
d="M310 484c42 0 77.834 -10.5049 107.501 -31.5049s44.5 -47.167 44.5 -78.5c0 -23.333 -7.16699 -43.166 -21.5 -59.499s-32.5 -24.5 -54.5 -24.5c-19.333 0 -37.333 7.66699 -54 23s-25 33.666 -25 54.999c0 12 3.16699 22.833 9.5 32.5s13.333 16.5 21 20.5
s17.334 7.16699 29.001 9.5s17.5 6.83301 17.5 13.5c0 6 -5.5 11.667 -16.5 17s-26.167 8 -45.5 8c-26.667 0 -48.667 -6.5 -66 -19.5s-26 -29.833 -26 -50.5c0 -16 3 -28.667 9 -38s16.667 -21 32 -35l80 -70c18 -16.667 31.333 -33.667 40 -51s13 -37.333 13 -60
c0 -49.333 -23 -87.666 -69 -114.999s-97 -41 -153 -41c-50 0 -95.167 12.833 -135.5 38.5s-60.5 59.167 -60.5 100.5c0 22 7.5 40.833 22.5 56.5s34.167 23.5 57.5 23.5c19.333 0 37.333 -8 54 -24s25 -34.667 25 -56c0 -15.333 -4.33301 -28.666 -13 -39.999
s-18.334 -18.166 -29.001 -20.499s-19.5 -4.33301 -26.5 -6s-10.5 -5.5 -10.5 -11.5c0 -9.33301 9.16699 -19.166 27.5 -29.499s40.166 -15.5 65.499 -15.5c22.667 0 42.334 6.33301 59.001 19s25 29 25 49c0 17.333 -3 30.666 -9 39.999s-15.167 19.5 -27.5 30.5l-46 40.5
c-18.333 16 -32.333 29.833 -42 41.5s-17.167 23.334 -22.5 35.001s-8 26.834 -8 45.501c0 44.667 20.167 85.5 60.5 122.5s94.166 55.5 161.499 55.5zM160.001 -0.00488281l-53.999 -59.002c3.33301 0.666992 8.83301 1.33398 16.5 2.00098s14.5 1 20.5 1
c38.667 0 65.5 -8 80.5 -24s22.5 -34 22.5 -54c0 -38 -17 -65.833 -51 -83.5s-68.667 -26.5 -104 -26.5c-21.333 0 -39.166 4.5 -53.499 13.5s-21.5 20.833 -21.5 35.5c0 8 3.16699 15.833 9.5 23.5s14.833 11.5 25.5 11.5c12.667 0 21.667 -3.5 27 -10.5s8 -15.167 8 -24.5
c0 -6 -3.66699 -15.667 -11 -29c0 -2.66699 7.33301 -5 22 -7c14 0 27 7.5 39 22.5s18 34.5 18 58.5c0 18 -4.83301 31.333 -14.5 40s-24.5 13 -44.5 13c-12.667 0 -22.334 -1.16699 -29.001 -3.5s-11.334 -4.16602 -14.001 -5.49902l-4 7l91 99h21z" />
    <glyph glyph-name="Scaron" unicode="&#x160;" horiz-adv-x="710" 
d="M351 -12c-42.667 0 -85.3369 10.3311 -128.004 30.998l-127 64c-13.333 0 -30.5 -10.167 -51.5 -30.5s-37.167 -41.833 -48.5 -64.5h-17l148 364h18c-0.666992 -9.33301 -1.33398 -23.166 -2.00098 -41.499s-1 -31.5 -1 -39.5c0 -32 2.33301 -59.667 7 -83
s13.834 -50.166 27.501 -80.499s37 -54.666 70 -72.999s71.167 -27.5 114.5 -27.5c40 0 72.333 11.667 97 35s37 50 37 80c0 20 -6.66699 38.667 -20 56s-40.166 37.166 -80.499 59.499l-144.5 80.5c-65.333 46 -98 103 -98 171c0 67.333 31 126 93 176s136.333 75 223 75
c45.333 0 86 -6.66699 122 -20l99 -44c16 0 29.333 5.33301 40 16s22.334 26.667 35.001 48h19l-123 -304h-18c1.33301 8.66699 2.33301 19 3 31s1 26.333 1 43c0 26.667 -1.16699 49.5 -3.5 68.5s-8.16602 39.667 -17.499 62s-26 41.333 -50 57s-58 23.5 -102 23.5
c-34 0 -65.5 -9.5 -94.5 -28.5s-43.5 -44.5 -43.5 -76.5c0 -20.667 6.5 -40 19.5 -58s28.167 -32 45.5 -42l89 -49.5c42 -23 76 -42.667 102 -59s48.5 -39.5 67.5 -69.5s28.5 -63 28.5 -99c0 -72.667 -31.667 -132.667 -95 -180s-143.666 -71 -240.999 -71zM442.997 961.998
l11 4l53.5 -65.5c18.333 -22.333 31.5 -35.833 39.5 -40.5c16 4.66699 42.667 17.667 80 39l108 63l9 -8l-175 -181h-86z" />
    <glyph glyph-name="scaron" unicode="&#x161;" horiz-adv-x="450" 
d="M310 484c42 0 77.834 -10.5049 107.501 -31.5049s44.5 -47.167 44.5 -78.5c0 -23.333 -7.16699 -43.166 -21.5 -59.499s-32.5 -24.5 -54.5 -24.5c-19.333 0 -37.333 7.66699 -54 23s-25 33.666 -25 54.999c0 12 3.16699 22.833 9.5 32.5s13.333 16.5 21 20.5
s17.334 7.16699 29.001 9.5s17.5 6.83301 17.5 13.5c0 6 -5.5 11.667 -16.5 17s-26.167 8 -45.5 8c-26.667 0 -48.667 -6.5 -66 -19.5s-26 -29.833 -26 -50.5c0 -16 3 -28.667 9 -38s16.667 -21 32 -35l80 -70c18 -16.667 31.333 -33.667 40 -51s13 -37.333 13 -60
c0 -49.333 -23 -87.666 -69 -114.999s-97 -41 -153 -41c-50 0 -95.167 12.833 -135.5 38.5s-60.5 59.167 -60.5 100.5c0 22 7.5 40.833 22.5 56.5s34.167 23.5 57.5 23.5c19.333 0 37.333 -8 54 -24s25 -34.667 25 -56c0 -15.333 -4.33301 -28.666 -13 -39.999
s-18.334 -18.166 -29.001 -20.499s-19.5 -4.33301 -26.5 -6s-10.5 -5.5 -10.5 -11.5c0 -9.33301 9.16699 -19.166 27.5 -29.499s40.166 -15.5 65.499 -15.5c22.667 0 42.334 6.33301 59.001 19s25 29 25 49c0 17.333 -3 30.666 -9 39.999s-15.167 19.5 -27.5 30.5l-46 40.5
c-18.333 16 -32.333 29.833 -42 41.5s-17.167 23.334 -22.5 35.001s-8 26.834 -8 45.501c0 44.667 20.167 85.5 60.5 122.5s94.166 55.5 161.499 55.5zM266.001 711.995l11 4l53.5 -65.5c18.333 -22.333 31.5 -35.833 39.5 -40.5c16 4.66699 42.667 17.667 80 39l108 63
l9 -8l-175 -181h-86z" />
    <glyph glyph-name="Ydieresis" unicode="&#x178;" horiz-adv-x="863" 
d="M529 354l50.9971 101.5l67.5 128c27 49.667 55.667 88.167 86 115.5s71.5 41 123.5 41c40 0 74.167 -12.5 102.5 -37.5s42.5 -57.167 42.5 -96.5c0 -40 -12.667 -73 -38 -99s-58 -39 -98 -39c-35.333 0 -66 10.667 -92 32s-39 49 -39 83c0 12.667 1 22.334 3 29.001
s5 14.167 9 22.5s9.66699 17.333 17 27s11 18.167 11 25.5c0 4.66699 -3 7 -9 7c-8 0 -18 -5.66699 -30 -17s-26 -29.333 -42 -54s-37.5 -63.667 -64.5 -117l-65 -130l-36.5 -76l-70 -175c-16.667 -44 -25 -71.333 -25 -82s7.5 -17.834 22.5 -21.501s40.5 -5.5 76.5 -5.5
v-16h-475v16l55 4c24.667 2.66699 42.834 10.5 54.501 23.5s26.334 39.833 44.001 80.5l46.5 110.5l38 95.5l-24.5 77.5l-32.5 98l-37.5 105c-14.333 39 -24.833 64.167 -31.5 75.5s-17.167 18.333 -31.5 21s-26.166 4.16699 -35.499 4.5s-18 0.833008 -26 1.5v16h467v-16
c-39.333 -3.33301 -66.833 -6.5 -82.5 -9.5s-23.5 -16.833 -23.5 -41.5c0 -11.333 3 -27.333 9 -48s10.333 -36 13 -46l66 -214h4zM376.997 867c0 16.667 6.66699 31.667 20 45s29 20 47 20s33.333 -6.33301 46 -19s19 -28 19 -46c0 -19.333 -6 -35.333 -18 -48
s-27.667 -19 -47 -19c-18 0 -33.667 6.66699 -47 20s-20 29 -20 47zM596.997 867c0 16.667 6.66797 31.667 20.001 45s28.666 20 45.999 20c18 0 33.5 -6.5 46.5 -19.5s19.5 -28.167 19.5 -45.5c0 -19.333 -6.33301 -35.333 -19 -48s-28.334 -19 -47.001 -19
c-17.333 0 -32.666 6.66699 -45.999 20s-20 29 -20 47z" />
    <glyph glyph-name="florin" unicode="&#x192;" horiz-adv-x="644" 
d="M473 387l149.997 0.00292969l-11 -28h-144c-11.333 -60.667 -28.166 -123.334 -50.499 -188.001s-50.5 -123.334 -84.5 -176.001s-80.5 -101.334 -139.5 -146.001s-120.5 -67 -184.5 -67c-40.667 0 -76.667 10.5 -108 31.5s-47 48.5 -47 82.5
c0 25.333 8.83301 47.5 26.5 66.5s40.834 28.5 69.501 28.5c25.333 0 47.166 -7.5 65.499 -22.5s27.5 -34.5 27.5 -58.5c0 -23.333 -4 -42 -12 -56l-28 -41c0 -8.66699 5.66699 -13 17 -13c26 0 47.167 9.83301 63.5 29.5s31 50.834 44 93.501s24.333 91.667 34 147
l28 160.5c9 51.667 18.5 94.5 28.5 128.5h-136l11 28h134c13.333 40.667 25.833 74.667 37.5 102s33.334 61.166 65.001 101.499s72.334 75.333 122.001 105s107.834 44.5 174.501 44.5c45.333 0 81 -9.83301 107 -29.5s39 -44.5 39 -74.5c0 -26 -8.33301 -47.333 -25 -64
s-37.334 -25 -62.001 -25c-27.333 0 -49.333 6.66699 -66 20s-25 30 -25 50c0 24 6.83301 44.167 20.5 60.5s20.5 27.5 20.5 33.5c0 4.66699 -1.5 8.16699 -4.5 10.5s-7.83301 3.5 -14.5 3.5c-26 0 -47 -13.667 -63 -41s-28.167 -57 -36.5 -89s-16.333 -68 -24 -108z" />
    <glyph glyph-name="circumflex" unicode="&#x2c6;" 
d="M487 518l-11 -4l-53.5 65.5c-18.333 22.333 -31.5 35.833 -39.5 40.5c-16 -4.66699 -42.667 -17.667 -80 -39l-108 -63l-9 8l175 181h86z" />
    <glyph glyph-name="caron" unicode="&#x2c7;" 
d="M266 712l11 4l53.5 -65.5c18.333 -22.333 31.5 -35.833 39.5 -40.5c16 4.66699 42.667 17.667 80 39l108 63l9 -8l-175 -181h-86z" />
    <glyph glyph-name="macron" unicode="&#x2c9;" 
d="M210 574l31 75h300l-31 -75h-300z" />
    <glyph glyph-name="breve" unicode="&#x2d8;" 
d="M269 721h14.998l-1 -13c0 -24 8 -43.5 24 -58.5s41 -22.5 75 -22.5c35.333 0 66.5 8.33301 93.5 25s47.5 40 61.5 70h15c-14.667 -55.333 -40.167 -100.166 -76.5 -134.499s-75.166 -51.5 -116.499 -51.5c-33.333 0 -58.666 9.66699 -75.999 29s-26 46.666 -26 81.999
c0 22 4 46.667 12 74z" />
    <glyph glyph-name="dotaccent" unicode="&#x2d9;" 
d="M305 618c0 18 6.66895 33.665 20.002 46.998s29.666 20 48.999 20c18 0 33.667 -6.66699 47 -20s20 -29 20 -47c0 -19.333 -6.33301 -35.666 -19 -48.999s-28.667 -20 -48 -20c-18.667 0 -34.834 6.83301 -48.501 20.5s-20.5 29.834 -20.5 48.501z" />
    <glyph glyph-name="ring" unicode="&#x2da;" 
d="M313 630c0 -18.667 6 -34 18 -46s27.333 -18 46 -18s34.167 5.83301 46.5 17.5s18.5 27.167 18.5 46.5c0 18.667 -6.16699 34.167 -18.5 46.5s-27.833 18.5 -46.5 18.5s-34 -6 -46 -18s-18 -27.667 -18 -47zM272 630c0 30 10.333 54.667 31 74s45.667 29 75 29
s54.5 -9.5 75.5 -28.5s31.5 -43.833 31.5 -74.5c0 -29.333 -10.5 -53.833 -31.5 -73.5s-46.167 -29.5 -75.5 -29.5c-28.667 0 -53.5 9.83301 -74.5 29.5s-31.5 44.167 -31.5 73.5z" />
    <glyph glyph-name="ogonek" unicode="&#x2db;" 
d="M180 0c-32.667 -23.333 -56.334 -45 -71.001 -65s-22 -40 -22 -60c0 -13.333 3.33301 -23.5 10 -30.5s16.334 -10.5 29.001 -10.5c24 0 44.667 12 62 36l12 -7c-35.333 -60.667 -78.333 -91 -129 -91c-24.667 0 -43.167 5.5 -55.5 16.5s-18.5 27.167 -18.5 48.5
c0 28 13 54.167 39 78.5s68 52.5 126 84.5h18z" />
    <glyph glyph-name="tilde" unicode="&#x2dc;" 
d="M279 595c-16 0 -27.666 -2.66797 -34.999 -8.00098s-18.333 -17.666 -33 -36.999h-18c26.667 45.333 51.5 77.5 74.5 96.5s49.167 28.5 78.5 28.5c19.333 0 43.333 -6 72 -18s50.667 -18 66 -18s27.666 3.33301 36.999 10s20.333 18.667 33 36h18
c-26.667 -46 -51.5 -78.5 -74.5 -97.5s-49.5 -28.5 -79.5 -28.5c-16.667 0 -41.5 6 -74.5 18s-54.5 18 -64.5 18z" />
    <glyph glyph-name="lessequal" unicode="&#x4aa;" horiz-adv-x="749" 
d="M391 -12c-90.667 0 -166 29.667 -226 89s-90 133.333 -90 222c0 116 47.5 218.5 142.5 307.5s211.167 133.5 348.5 133.5c48 0 88.667 -6.83301 122 -20.5l102 -41.5c16 0 31.833 6.16699 47.5 18.5s27.834 26.833 36.501 43.5h18l-142 -354h-19
c0 11.333 0.5 36.166 1.5 74.499s1.5 59.833 1.5 64.5c0 68.667 -5.16699 116.5 -15.5 143.5s-35.5 40.5 -75.5 40.5c-26 0 -52.333 -9.16699 -79 -27.5s-52.5 -44.166 -77.5 -77.499s-47.667 -69 -68 -107s-37 -74.333 -50 -109s-23.667 -70.5 -32 -107.5
s-12.5 -69.833 -12.5 -98.5c0 -52 8.5 -91.667 25.5 -119s47.5 -41 91.5 -41c32 0 59.833 5.66699 83.5 17s45.667 26 66 44s36.833 36.833 49.5 56.5s24.667 41.167 36 64.5l18 -8c-28 -64.667 -68.333 -115.5 -121 -152.5s-113.334 -55.5 -182.001 -55.5zM285 0
l-53.999 -59.002c3.33301 0.666992 8.83301 1.33398 16.5 2.00098s14.5 1 20.5 1c38.667 0 65.5 -8 80.5 -24s22.5 -34 22.5 -54c0 -38 -17 -65.833 -51 -83.5s-68.667 -26.5 -104 -26.5c-21.333 0 -39.166 4.5 -53.499 13.5s-21.5 20.833 -21.5 35.5
c0 8 3.16699 15.833 9.5 23.5s14.833 11.5 25.5 11.5c12.667 0 21.667 -3.5 27 -10.5s8 -15.167 8 -24.5c0 -6 -3.66699 -15.667 -11 -29c0 -2.66699 7.33301 -5 22 -7c14 0 27 7.5 39 22.5s18 34.5 18 58.5c0 18 -4.83301 31.333 -14.5 40s-24.5 13 -44.5 13
c-12.667 0 -22.334 -1.16699 -29.001 -3.5s-11.334 -4.16602 -14.001 -5.49902l-4 7l91 99h21z" />
    <glyph glyph-name="endash" unicode="&#x2013;" 
d="M518 285l-31 -78h-500l31 78h500z" />
    <glyph glyph-name="emdash" unicode="&#x2014;" horiz-adv-x="1000" 
d="M1018 285l-31 -78h-1000l31 78h1000z" />
    <glyph glyph-name="quoteleft" unicode="&#x2018;" horiz-adv-x="232" 
d="M344 713c-40.667 0 -77.999 -11.668 -111.999 -35.001s-51 -46.666 -51 -69.999c0 -9.33301 3 -14 9 -14c2 0 6.83301 1.16699 14.5 3.5s13.834 3.5 18.501 3.5c21.333 0 39.666 -7.66699 54.999 -23s23 -33 23 -53c0 -26.667 -8.66699 -50.167 -26 -70.5
s-41 -30.5 -71 -30.5c-28.667 0 -52.834 10.167 -72.501 30.5s-29.5 44.5 -29.5 72.5c0 54.667 23.333 102 70 142s104 60 172 60v-16z" />
    <glyph glyph-name="quoteright" unicode="&#x2019;" horiz-adv-x="232" 
d="M130 446c40.667 0 77.998 11.668 111.998 35.001s51 46.666 51 69.999c0 9.33301 -2.66699 14 -8 14c-18 -4.66699 -29.333 -7 -34 -7c-21.333 0 -39.666 7.66699 -54.999 23s-23 33 -23 53c0 26.667 8.66699 50.167 26 70.5s41 30.5 71 30.5
c28.667 0 52.834 -10.167 72.501 -30.5s29.5 -44.5 29.5 -72.5c0 -54.667 -23.333 -102 -70 -142s-104 -60 -172 -60v16z" />
    <glyph glyph-name="quotesinglbase" unicode="&#x201a;" horiz-adv-x="232" 
d="M-19 -112c40.667 0 77.998 11.668 111.998 35.001s51 46.666 51 69.999c0 9.33301 -2.66699 14 -8 14c-18 -4.66699 -29.333 -7 -34 -7c-21.333 0 -39.666 7.66699 -54.999 23s-23 33 -23 53c0 26.667 8.66699 50.167 26 70.5s41 30.5 71 30.5
c28.667 0 52.834 -10.167 72.501 -30.5s29.5 -44.5 29.5 -72.5c0 -54.667 -23.333 -102 -70 -142s-104 -60 -172 -60v16z" />
    <glyph glyph-name="quotedblleft" unicode="&#x201c;" horiz-adv-x="456" 
d="M344 713c-40.667 0 -77.999 -11.668 -111.999 -35.001s-51 -46.666 -51 -69.999c0 -9.33301 3 -14 9 -14c2 0 6.83301 1.16699 14.5 3.5s13.834 3.5 18.501 3.5c21.333 0 39.666 -7.66699 54.999 -23s23 -33 23 -53c0 -26.667 -8.66699 -50.167 -26 -70.5
s-41 -30.5 -71 -30.5c-28.667 0 -52.834 10.167 -72.501 30.5s-29.5 44.5 -29.5 72.5c0 54.667 23.333 102 70 142s104 60 172 60v-16zM568.001 712.999c-40.667 0 -77.999 -11.668 -111.999 -35.001s-51 -46.666 -51 -69.999c0 -9.33301 3 -14 9 -14
c2 0 6.83301 1.16699 14.5 3.5s13.834 3.5 18.501 3.5c21.333 0 39.666 -7.66699 54.999 -23s23 -33 23 -53c0 -26.667 -8.66699 -50.167 -26 -70.5s-41 -30.5 -71 -30.5c-28.667 0 -52.834 10.167 -72.501 30.5s-29.5 44.5 -29.5 72.5c0 54.667 23.333 102 70 142
s104 60 172 60v-16z" />
    <glyph glyph-name="quotedblright" unicode="&#x201d;" horiz-adv-x="456" 
d="M130 446c40.667 0 77.998 11.668 111.998 35.001s51 46.666 51 69.999c0 9.33301 -2.66699 14 -8 14c-18 -4.66699 -29.333 -7 -34 -7c-21.333 0 -39.666 7.66699 -54.999 23s-23 33 -23 53c0 26.667 8.66699 50.167 26 70.5s41 30.5 71 30.5
c28.667 0 52.834 -10.167 72.501 -30.5s29.5 -44.5 29.5 -72.5c0 -54.667 -23.333 -102 -70 -142s-104 -60 -172 -60v16zM353.998 446.001c40.667 0 77.998 11.668 111.998 35.001s51 46.666 51 69.999c0 9.33301 -2.66699 14 -8 14c-18 -4.66699 -29.333 -7 -34 -7
c-21.333 0 -39.666 7.66699 -54.999 23s-23 33 -23 53c0 26.667 8.66699 50.167 26 70.5s41 30.5 71 30.5c28.667 0 52.834 -10.167 72.501 -30.5s29.5 -44.5 29.5 -72.5c0 -54.667 -23.333 -102 -70 -142s-104 -60 -172 -60v16z" />
    <glyph glyph-name="quotedblbase" unicode="&#x201e;" horiz-adv-x="456" 
d="M-19 -112c40.667 0 77.998 11.668 111.998 35.001s51 46.666 51 69.999c0 9.33301 -2.66699 14 -8 14c-18 -4.66699 -29.333 -7 -34 -7c-21.333 0 -39.666 7.66699 -54.999 23s-23 33 -23 53c0 26.667 8.66699 50.167 26 70.5s41 30.5 71 30.5
c28.667 0 52.834 -10.167 72.501 -30.5s29.5 -44.5 29.5 -72.5c0 -54.667 -23.333 -102 -70 -142s-104 -60 -172 -60v16zM204.998 -111.999c40.667 0 77.998 11.668 111.998 35.001s51 46.666 51 69.999c0 9.33301 -2.66699 14 -8 14c-18 -4.66699 -29.333 -7 -34 -7
c-21.333 0 -39.666 7.66699 -54.999 23s-23 33 -23 53c0 26.667 8.66699 50.167 26 70.5s41 30.5 71 30.5c28.667 0 52.834 -10.167 72.501 -30.5s29.5 -44.5 29.5 -72.5c0 -54.667 -23.333 -102 -70 -142s-104 -60 -172 -60v16z" />
    <glyph glyph-name="dagger" unicode="&#x2020;" horiz-adv-x="480" 
d="M267 430l-46.9961 12c-10.667 2.66699 -24.334 7.33398 -41.001 14.001s-32.334 16.834 -47.001 30.501s-22 27.834 -22 42.501c0 12 4.5 23.167 13.5 33.5s19.5 15.5 31.5 15.5c26 0 39 -12.667 39 -38c0 -4.66699 -1.66699 -11 -5 -19s-5 -14 -5 -18s1 -7.5 3 -10.5
s8.33301 -6.83301 19 -11.5s23.167 -9.33398 37.5 -14.001s24.833 -7 31.5 -7l3 7c-1.33301 7.33301 -2.33301 15.333 -3 24s-1 19 -1 31c0 28 6 49.833 18 65.5s30 29.5 54 41.5l5 10c-16.667 12 -25 27 -25 45c0 14.667 5.16699 26.5 15.5 35.5s23.166 13.5 38.499 13.5
c3.33301 0 8.33301 -0.666992 15 -2l6 14c3.33301 6 7.33301 9 12 9c6.66699 0 10 -3.33301 10 -10l-7 -21c9.33301 -4.66699 16.166 -10.834 20.499 -18.501s6.5 -16.5 6.5 -26.5c0 -16.667 -6 -29.334 -18 -38.001s-26.667 -13 -44 -13l-3 -8
c4.66699 -11.333 8.16699 -21.833 10.5 -31.5s3.5 -19.167 3.5 -28.5c0 -28 -8.16699 -50 -24.5 -66s-33.166 -29 -50.499 -39l-3 -8l45.5 -12c15 -4 31.333 -9.66699 49 -17s32.667 -16.5 45 -27.5s18.5 -23.833 18.5 -38.5c0 -10.667 -4.33301 -22.5 -13 -35.5
s-19 -19.5 -31 -19.5c-10 0 -19.333 3.16699 -28 9.5s-13 15.833 -13 28.5c0 5.33301 1.66699 12.333 5 21s5 15 5 19c0 6.66699 -6.66699 13 -20 19s-27.333 11 -42 15s-26.334 7.33301 -35.001 10l-9 -22l14 -50l-203 -462l-43 -22l-4 1l-18 48l174 475l49 24z" />
    <glyph glyph-name="daggerdbl" unicode="&#x2021;" horiz-adv-x="480" 
d="M254 182l41.0039 -9.99707c11.333 -2.66699 26.666 -7.83398 45.999 -15.501s35.166 -17.667 47.499 -30s18.5 -26.833 18.5 -43.5c0 -12 -4.16699 -23 -12.5 -33s-18.833 -15 -31.5 -15c-26 0 -39 12.667 -39 38c0 4.66699 1.66699 11 5 19s5 14 5 18s-1 7.5 -3 10.5
s-8.33301 6.83301 -19 11.5s-23.167 9.33398 -37.5 14.001s-24.833 7 -31.5 7l-3 -7c1.33301 -7.33301 2.33301 -15.333 3 -24s1 -19 1 -31c0 -28 -6 -49.833 -18 -65.5s-30 -29.5 -54 -41.5l-5 -10c16.667 -12 25 -27 25 -45c0 -14.667 -5.16699 -26.5 -15.5 -35.5
s-23.166 -13.5 -38.499 -13.5c-3.33301 0 -8.33301 0.666992 -15 2l-6 -14c-3.33301 -6 -7.33301 -9 -12 -9c-6.66699 0 -10 3.33301 -10 10l7 21c-8.66699 5.33301 -15.334 11.666 -20.001 18.999s-7 16 -7 26c0 16.667 6 29.334 18 38.001s26.667 13 44 13l3 8
c-4.66699 11.333 -8.16699 21.833 -10.5 31.5s-3.5 19.167 -3.5 28.5c0 28 8.16699 50 24.5 66s33.166 29 50.499 39l3 8l-45.5 12c-15 4 -31 9.5 -48 16.5s-31.833 16.5 -44.5 28.5s-19 25.667 -19 41c0 12 4.16699 23.5 12.5 34.5s18.5 16.5 30.5 16.5
c12.667 0 22.667 -3.66699 30 -11s11 -16 11 -26c0 -5.33301 -1.66699 -12.333 -5 -21s-5 -15 -5 -19c0 -6.66699 7.33301 -13.334 22 -20.001s29 -11.667 43 -15s23.333 -5.66602 28 -6.99902l95 234l-48.5 12.5c-11.667 3 -25.167 7.5 -40.5 13.5
s-30.166 15.5 -44.499 28.5s-21.5 27.5 -21.5 43.5c0 12 4.5 23.167 13.5 33.5s19.5 15.5 31.5 15.5c26 0 39 -12.667 39 -38c0 -4.66699 -1.66699 -11 -5 -19s-5 -14 -5 -18s1 -7.5 3 -10.5s8.33301 -6.83301 19 -11.5s23.167 -9.33398 37.5 -14.001s24.833 -7 31.5 -7l3 7
c-1.33301 7.33301 -2.33301 15.333 -3 24s-1 19 -1 31c0 28 6.16699 50 18.5 66s30.5 30 54.5 42l4 9c-16.667 12 -25 27 -25 45c0 14.667 5.16699 26.5 15.5 35.5s23.166 13.5 38.499 13.5c3.33301 0 8.33301 -0.666992 15 -2l6 14c3.33301 6 7.33301 9 12 9
c6.66699 0 10 -3.33301 10 -10l-7 -21c9.33301 -4.66699 16.166 -10.834 20.499 -18.501s6.5 -16.5 6.5 -26.5c0 -16.667 -6 -29.334 -18 -38.001s-26.667 -13 -44 -13l-3 -8c4.66699 -11.333 8.16699 -21.833 10.5 -31.5s3.5 -19.167 3.5 -28.5
c0 -28 -8.16699 -50 -24.5 -66s-33.166 -29 -50.499 -39l-3 -8l45.5 -12c15 -4 31.167 -9.5 48.5 -16.5s32.166 -16.333 44.499 -28s18.5 -26.167 18.5 -43.5c0 -11.333 -4.16699 -22.333 -12.5 -33s-18.5 -16 -30.5 -16c-12.667 0 -22.667 3.66699 -30 11s-11 16 -11 26
c0 5.33301 1.66699 12.333 5 21s5 15 5 19c0 6.66699 -7.33301 13.334 -22 20.001s-29 11.667 -43 15s-23.333 5.66602 -28 6.99902z" />
    <glyph glyph-name="bullet" unicode="&#x2022;" horiz-adv-x="588" 
d="M104 366c0 67.333 23.833 124.833 71.5 172.5s105.167 71.5 172.5 71.5s124.833 -23.833 172.5 -71.5s71.5 -105.167 71.5 -172.5s-23.833 -124.833 -71.5 -172.5s-105.167 -71.5 -172.5 -71.5s-124.833 23.833 -172.5 71.5s-71.5 105.167 -71.5 172.5z" />
    <glyph glyph-name="ellipsis" unicode="&#x2026;" horiz-adv-x="1000" 
d="M74 86c0 25.333 9.5 47.168 28.5 65.501s41.5 27.5 67.5 27.5c26.667 0 49.5 -8.83301 68.5 -26.5s28.5 -39.834 28.5 -66.501c0 -26 -9.5 -48.167 -28.5 -66.5s-41.833 -27.5 -68.5 -27.5c-26 0 -48.5 9.16699 -67.5 27.5s-28.5 40.5 -28.5 66.5zM407 86.002
c0 25.333 9.5 47.168 28.5 65.501s41.5 27.5 67.5 27.5c26.667 0 49.5 -8.83301 68.5 -26.5s28.5 -39.834 28.5 -66.501c0 -26 -9.5 -48.167 -28.5 -66.5s-41.833 -27.5 -68.5 -27.5c-26 0 -48.5 9.16699 -67.5 27.5s-28.5 40.5 -28.5 66.5zM740 86.0039
c0 25.333 9.5 47.168 28.5 65.501s41.5 27.5 67.5 27.5c26.667 0 49.5 -8.83301 68.5 -26.5s28.5 -39.834 28.5 -66.501c0 -26 -9.5 -48.167 -28.5 -66.5s-41.833 -27.5 -68.5 -27.5c-26 0 -48.5 9.16699 -67.5 27.5s-28.5 40.5 -28.5 66.5z" />
    <glyph glyph-name="guilsinglleft" unicode="&#x2039;" horiz-adv-x="325" 
d="M220 70l-11 -6l-172 167l10 28l294 166l7 -13l-81 -79c-30 -30 -59.333 -61.333 -88 -94c4.66699 -37.333 10.667 -69.5 18 -96.5s15 -51.167 23 -72.5z" />
    <glyph glyph-name="guilsinglright" unicode="&#x203a;" horiz-adv-x="325" 
d="M110 418l11 6l172 -167l-10 -28l-294 -166l-7 13l81 79c30 30 59.333 61.333 88 94c-4.66699 37.333 -10.667 69.5 -18 96.5s-15 51.167 -23 72.5z" />
    <glyph glyph-name="Euro" unicode="&#x20ac;" horiz-adv-x="749" 
d="M892 740l-104.004 -262h-19c2.66699 20 4 47.333 4 82c0 27.333 -4 50.833 -12 70.5s-23.333 37.5 -46 53.5s-46.667 24 -72 24c-45.333 0 -90.833 -26.667 -136.5 -80s-88.167 -123.666 -127.5 -210.999h350l-10 -27h-350v-2c-5.33301 -11.333 -11 -28.333 -17 -51h350
l-11 -27h-347c-13.333 -50.667 -20 -93.334 -20 -128.001c0 -50.667 8 -90.167 24 -118.5s46.667 -42.5 92 -42.5c49.333 0 94.5 16.5 135.5 49.5s74.167 77.5 99.5 133.5l18 -9c-27.333 -64.667 -67.666 -115.334 -120.999 -152.001s-113.666 -55 -180.999 -55
c-83.333 0 -155.333 27.333 -216 82s-91 130.667 -91 228v12h-54l11 27h45c0.666992 12.667 3.33398 30.334 8.00098 53.001h-49l11 27h45c24.667 86 79.334 161.333 164.001 226s184.667 97 300 97c48 0 88.667 -6.66699 122 -20c66.667 -28 101 -42 103 -42
c32 0 60 20.667 84 62h18z" />
    <glyph glyph-name="trademark" unicode="&#x2122;" horiz-adv-x="732" 
d="M183 729l276.002 -0.000976562v-115h-12c-7.33301 17.333 -18 38.833 -32 64.5s-27.333 38.5 -40 38.5h-11v-215c2 -13.333 8.66699 -20.666 20 -21.999l21 -1v-12h-171v12l24 1c12.667 0 19 7 19 21l1 17v199h-11c-12.667 0 -25.834 -12.5 -39.501 -37.5
s-24.834 -46.833 -33.501 -65.5h-11v115zM522.002 521.999l1.00098 -17c0 -14.667 7.33301 -23 22 -25l21 -2v-11h-104v11l20 2c14 2 21 10.333 21 25l1 17v155l-1 17c-2 6 -4.33301 10.833 -7 14.5s-7.33398 5.83398 -14.001 6.50098l-13 2v12h128l55 -146l53 146h131v-12
l-21 -1c-13.333 -2 -20 -9.66699 -20 -23l-1 -16v-159l1 -16c0 -12.667 6.33301 -20 19 -22l18 -2v-11h-161v11l17 1c12 1.33301 18.667 8.66602 20 21.999v139l2 50l-12 -36l-66 -187h-26l-82 207z" />
    <glyph glyph-name="fraction" unicode="&#x2215;" horiz-adv-x="167" 
d="M-114 -2l463 742l36 -21l-464 -743z" />
    </font>
</defs>
</svg>
